<svg xmlns="http://www.w3.org/2000/svg" width="720" height="540" viewBox="0,0,720,540"><g fill="none" stroke-linecap="round"><rect width="720" height="540" fill="#ffffff"></rect><g transform="translate(0,440)" fill="none" font-size="10" font-family="sans-serif" text-anchor="middle"><path class="domain" stroke="currentColor" d="M80.5,6V0.5H700.5V6"></path><g class="tick" opacity="1" transform="translate(80.5,0)"><line stroke="currentColor" y2="6"></line><text fill="currentColor" y="9" dy="0.71em">1996</text></g><g class="tick" opacity="1" transform="translate(132.16666666666666,0)"><line stroke="currentColor" y2="6"></line><text fill="currentColor" y="9" dy="0.71em">1998</text></g><g class="tick" opacity="1" transform="translate(183.83333333333331,0)"><line stroke="currentColor" y2="6"></line><text fill="currentColor" y="9" dy="0.71em">2000</text></g><g class="tick" opacity="1" transform="translate(235.5,0)"><line stroke="currentColor" y2="6"></line><text fill="currentColor" y="9" dy="0.71em">2002</text></g><g class="tick" opacity="1" transform="translate(287.16666666666663,0)"><line stroke="currentColor" y2="6"></line><text fill="currentColor" y="9" dy="0.71em">2004</text></g><g class="tick" opacity="1" transform="translate(338.83333333333337,0)"><line stroke="currentColor" y2="6"></line><text fill="currentColor" y="9" dy="0.71em">2006</text></g><g class="tick" opacity="1" transform="translate(390.5,0)"><line stroke="currentColor" y2="6"></line><text fill="currentColor" y="9" dy="0.71em">2008</text></g><g class="tick" opacity="1" transform="translate(442.1666666666667,0)"><line stroke="currentColor" y2="6"></line><text fill="currentColor" y="9" dy="0.71em">2010</text></g><g class="tick" opacity="1" transform="translate(493.8333333333333,0)"><line stroke="currentColor" y2="6"></line><text fill="currentColor" y="9" dy="0.71em">2012</text></g><g class="tick" opacity="1" transform="translate(545.5,0)"><line stroke="currentColor" y2="6"></line><text fill="currentColor" y="9" dy="0.71em">2014</text></g><g class="tick" opacity="1" transform="translate(597.1666666666667,0)"><line stroke="currentColor" y2="6"></line><text fill="currentColor" y="9" dy="0.71em">2016</text></g><g class="tick" opacity="1" transform="translate(648.8333333333333,0)"><line stroke="currentColor" y2="6"></line><text fill="currentColor" y="9" dy="0.71em">2018</text></g><g class="tick" opacity="1" transform="translate(700.5,0)"><line stroke="currentColor" y2="6"></line><text fill="currentColor" y="9" dy="0.71em">2020</text></g></g><g transform="translate(80,0)" fill="none" font-size="10" font-family="sans-serif" text-anchor="end"><g class="tick" opacity="1" transform="translate(0,440.5)"><line stroke="currentColor" x2="-6"></line><text fill="currentColor" x="-9" dy="0.32em">0.0k</text></g><g class="tick" opacity="1" transform="translate(0,411.26923076923083)"><line stroke="currentColor" x2="-6"></line><text fill="currentColor" x="-9" dy="0.32em">0.1k</text></g><g class="tick" opacity="1" transform="translate(0,382.03846153846155)"><line stroke="currentColor" x2="-6"></line><text fill="currentColor" x="-9" dy="0.32em">0.2k</text></g><g class="tick" opacity="1" transform="translate(0,352.8076923076923)"><line stroke="currentColor" x2="-6"></line><text fill="currentColor" x="-9" dy="0.32em">0.3k</text></g><g class="tick" opacity="1" transform="translate(0,323.57692307692304)"><line stroke="currentColor" x2="-6"></line><text fill="currentColor" x="-9" dy="0.32em">0.4k</text></g><g class="tick" opacity="1" transform="translate(0,294.34615384615387)"><line stroke="currentColor" x2="-6"></line><text fill="currentColor" x="-9" dy="0.32em">0.5k</text></g><g class="tick" opacity="1" transform="translate(0,265.1153846153846)"><line stroke="currentColor" x2="-6"></line><text fill="currentColor" x="-9" dy="0.32em">0.6k</text></g><g class="tick" opacity="1" transform="translate(0,235.88461538461542)"><line stroke="currentColor" x2="-6"></line><text fill="currentColor" x="-9" dy="0.32em">0.7k</text></g><g class="tick" opacity="1" transform="translate(0,206.65384615384616)"><line stroke="currentColor" x2="-6"></line><text fill="currentColor" x="-9" dy="0.32em">0.8k</text></g><g class="tick" opacity="1" transform="translate(0,177.42307692307693)"><line stroke="currentColor" x2="-6"></line><text fill="currentColor" x="-9" dy="0.32em">0.9k</text></g><g class="tick" opacity="1" transform="translate(0,148.19230769230768)"><line stroke="currentColor" x2="-6"></line><text fill="currentColor" x="-9" dy="0.32em">1.0k</text></g><g class="tick" opacity="1" transform="translate(0,118.96153846153845)"><line stroke="currentColor" x2="-6"></line><text fill="currentColor" x="-9" dy="0.32em">1.1k</text></g><g class="tick" opacity="1" transform="translate(0,89.73076923076921)"><line stroke="currentColor" x2="-6"></line><text fill="currentColor" x="-9" dy="0.32em">1.2k</text></g><g class="tick" opacity="1" transform="translate(0,60.5)"><line stroke="currentColor" x2="-6"></line><text fill="currentColor" x="-9" dy="0.32em">1.3k</text></g></g><line x1="570.8333333333333" y1="218.72307692307692" x2="80" y2="218.72307692307692" style="stroke: steelblue; stroke-width: 2;"></line><line x1="570.8333333333333" y1="218.72307692307692" x2="700" y2="387.0923076923077" style="stroke: green; stroke-width: 2;"></line><path fill="none" stroke="black" stroke-width="2.5" stroke-linejoin="round" stroke-linecap="round" d="M80,129.8615384615385C80,129.8615384615385,97.05089271659739,320.3987295683682,105.83333333333334,320.44615384615383C114.28574936961878,320.4917960250831,119.81778810287622,187.78718942009976,131.66666666666666,144.1846153846154C139.02806160001015,117.09548911350679,148.33799504960288,80.95025622252619,157.5,80.46153846153848C165.67275794800804,80.02558890823991,173.97562503716614,114.7480552381745,183.33333333333331,128.6923076923077C191.3908970183906,140.6991686280899,200.7772496126542,160.31511355870117,209.16666666666669,159.9692307692308C218.024943944777,159.60401759230461,225.9317558702107,123.56111212765761,235,122.84615384615384C243.23419994678275,122.19695325569212,253.2621639456631,137.67389564260154,260.83333333333337,149.73846153846154C271.51402109418416,166.7580069621497,277.3197121503466,218.69371744007404,286.66666666666663,219.3076923076923C294.7301443831525,219.8373592334142,304.49254083766186,169.91312880165444,312.5,170.4923076923077C321.9522495969651,171.1759881613255,326.3189512828144,229.5634713183856,338.33333333333337,242.9846153846154C345.67398049032346,251.18477770832547,357.0293656192392,259.3642102120381,364.16666666666663,255.5538461538462C382.466026036473,245.78443601305108,380.47009032320733,68.76142943640704,390,68.4769230769231C397.96869407672665,68.23902531938907,403.0488914737085,169.64494210506078,415.8333333333333,197.96923076923076C423.0971805705371,214.06248757450146,434.2037213542977,216.88490079304137,441.6666666666667,231.87692307692308C452.86120756144715,254.36520344449013,456.55948569684875,301.0270875343252,467.5,324.24615384615385C475.01270711171315,340.19038094322667,484.79994115340753,361.4755254633062,493.3333333333333,361.36923076923074C502.0250745036182,361.2609636288957,510.6835002102261,322.0357369306968,519.1666666666667,322.2C527.9138089856237,322.3693745433761,534.9144128238852,355.2523776495213,545,364.8769230769231C552.7422183442808,372.265221929752,562.263566920086,379.0546184616464,570.8333333333333,378.9076923076923C579.4865987464689,378.759334587658,587.7135754241233,366.3651141932861,596.6666666666667,363.7076923076923C604.9827312165439,361.2393502191137,622.5,362.53846153846155,622.5,362.53846153846155"></path><g fill="#ffffff"><circle cx="80" cy="129.8615384615385" r="8"></circle><circle cx="105.83333333333334" cy="320.44615384615383" r="8"></circle><circle cx="131.66666666666666" cy="144.1846153846154" r="8"></circle><circle cx="157.5" cy="80.46153846153848" r="8"></circle><circle cx="183.33333333333331" cy="128.6923076923077" r="8"></circle><circle cx="209.16666666666669" cy="159.9692307692308" r="8"></circle><circle cx="235" cy="122.84615384615384" r="8"></circle><circle cx="260.83333333333337" cy="149.73846153846154" r="8"></circle><circle cx="286.66666666666663" cy="219.3076923076923" r="8"></circle><circle cx="312.5" cy="170.4923076923077" r="8"></circle><circle cx="338.33333333333337" cy="242.9846153846154" r="8"></circle><circle cx="364.16666666666663" cy="255.5538461538462" r="8"></circle><circle cx="390" cy="68.4769230769231" r="8"></circle><circle cx="415.8333333333333" cy="197.96923076923076" r="8"></circle><circle cx="441.6666666666667" cy="231.87692307692308" r="8"></circle><circle cx="467.5" cy="324.24615384615385" r="8"></circle><circle cx="493.3333333333333" cy="361.36923076923074" r="8"></circle><circle cx="519.1666666666667" cy="322.2" r="8"></circle><circle cx="545" cy="364.8769230769231" r="8"></circle><circle cx="570.8333333333333" cy="378.9076923076923" r="8"></circle><circle cx="596.6666666666667" cy="363.7076923076923" r="8"></circle><circle cx="622.5" cy="362.53846153846155" r="8"></circle></g><g stroke="steelblue" stroke-width="2" fill="none"><circle cx="80" cy="129.8615384615385" r="4"></circle><circle cx="105.83333333333334" cy="320.44615384615383" r="4"></circle><circle cx="131.66666666666666" cy="144.1846153846154" r="4"></circle><circle cx="157.5" cy="80.46153846153848" r="4"></circle><circle cx="183.33333333333331" cy="128.6923076923077" r="4"></circle><circle cx="209.16666666666669" cy="159.9692307692308" r="4"></circle><circle cx="235" cy="122.84615384615384" r="4"></circle><circle cx="260.83333333333337" cy="149.73846153846154" r="4"></circle><circle cx="286.66666666666663" cy="219.3076923076923" r="4"></circle><circle cx="312.5" cy="170.4923076923077" r="4"></circle><circle cx="338.33333333333337" cy="242.9846153846154" r="4"></circle><circle cx="364.16666666666663" cy="255.5538461538462" r="4"></circle><circle cx="390" cy="68.4769230769231" r="4"></circle><circle cx="415.8333333333333" cy="197.96923076923076" r="4"></circle><circle cx="441.6666666666667" cy="231.87692307692308" r="4"></circle><circle cx="467.5" cy="324.24615384615385" r="4"></circle><circle cx="493.3333333333333" cy="361.36923076923074" r="4"></circle><circle cx="519.1666666666667" cy="322.2" r="4"></circle><circle cx="545" cy="364.8769230769231" r="4"></circle><circle cx="570.8333333333333" cy="378.9076923076923" r="4"></circle><circle cx="596.6666666666667" cy="363.7076923076923" r="4"></circle><circle cx="622.5" cy="362.53846153846155" r="4"></circle></g><path transform="translate(700,387.0923076923077)" d="M0,-14.71415478191356L8.495221224235612,0L0,14.71415478191356L-8.495221224235612,0Z" fill="#ffffff"></path><path transform="translate(700,387.0923076923077)" d="M0,-11.397535284773888L6.5803700647624614,0L0,11.397535284773888L-6.5803700647624614,0Z" fill="#33cc33"></path></g></svg>