<svg xmlns="http://www.w3.org/2000/svg" width="720" height="540" viewBox="0,0,720,540"><g fill="none" stroke-linecap="round"><rect width="720" height="540" fill="#ffffff"></rect><g transform="translate(0,440)" fill="none" font-size="10" font-family="sans-serif" text-anchor="middle"><path class="domain" stroke="currentColor" d="M80.5,6V0.5H700.5V6"></path><g class="tick" opacity="1" transform="translate(80.5,0)"><line stroke="currentColor" y2="6"></line><text fill="currentColor" y="9" dy="0.71em">1996</text></g><g class="tick" opacity="1" transform="translate(132.16666666666666,0)"><line stroke="currentColor" y2="6"></line><text fill="currentColor" y="9" dy="0.71em">1998</text></g><g class="tick" opacity="1" transform="translate(183.83333333333331,0)"><line stroke="currentColor" y2="6"></line><text fill="currentColor" y="9" dy="0.71em">2000</text></g><g class="tick" opacity="1" transform="translate(235.5,0)"><line stroke="currentColor" y2="6"></line><text fill="currentColor" y="9" dy="0.71em">2002</text></g><g class="tick" opacity="1" transform="translate(287.16666666666663,0)"><line stroke="currentColor" y2="6"></line><text fill="currentColor" y="9" dy="0.71em">2004</text></g><g class="tick" opacity="1" transform="translate(338.83333333333337,0)"><line stroke="currentColor" y2="6"></line><text fill="currentColor" y="9" dy="0.71em">2006</text></g><g class="tick" opacity="1" transform="translate(390.5,0)"><line stroke="currentColor" y2="6"></line><text fill="currentColor" y="9" dy="0.71em">2008</text></g><g class="tick" opacity="1" transform="translate(442.1666666666667,0)"><line stroke="currentColor" y2="6"></line><text fill="currentColor" y="9" dy="0.71em">2010</text></g><g class="tick" opacity="1" transform="translate(493.8333333333333,0)"><line stroke="currentColor" y2="6"></line><text fill="currentColor" y="9" dy="0.71em">2012</text></g><g class="tick" opacity="1" transform="translate(545.5,0)"><line stroke="currentColor" y2="6"></line><text fill="currentColor" y="9" dy="0.71em">2014</text></g><g class="tick" opacity="1" transform="translate(597.1666666666667,0)"><line stroke="currentColor" y2="6"></line><text fill="currentColor" y="9" dy="0.71em">2016</text></g><g class="tick" opacity="1" transform="translate(648.8333333333333,0)"><line stroke="currentColor" y2="6"></line><text fill="currentColor" y="9" dy="0.71em">2018</text></g><g class="tick" opacity="1" transform="translate(700.5,0)"><line stroke="currentColor" y2="6"></line><text fill="currentColor" y="9" dy="0.71em">2020</text></g></g><g transform="translate(80,0)" fill="none" font-size="10" font-family="sans-serif" text-anchor="end"><g class="tick" opacity="1" transform="translate(0,440.5)"><line stroke="currentColor" x2="-6"></line><text fill="currentColor" x="-9" dy="0.32em">0</text></g><g class="tick" opacity="1" transform="translate(0,393)"><line stroke="currentColor" x2="-6"></line><text fill="currentColor" x="-9" dy="0.32em">100</text></g><g class="tick" opacity="1" transform="translate(0,345.5)"><line stroke="currentColor" x2="-6"></line><text fill="currentColor" x="-9" dy="0.32em">200</text></g><g class="tick" opacity="1" transform="translate(0,298)"><line stroke="currentColor" x2="-6"></line><text fill="currentColor" x="-9" dy="0.32em">300</text></g><g class="tick" opacity="1" transform="translate(0,250.5)"><line stroke="currentColor" x2="-6"></line><text fill="currentColor" x="-9" dy="0.32em">400</text></g><g class="tick" opacity="1" transform="translate(0,203)"><line stroke="currentColor" x2="-6"></line><text fill="currentColor" x="-9" dy="0.32em">500</text></g><g class="tick" opacity="1" transform="translate(0,155.5)"><line stroke="currentColor" x2="-6"></line><text fill="currentColor" x="-9" dy="0.32em">600</text></g><g class="tick" opacity="1" transform="translate(0,108)"><line stroke="currentColor" x2="-6"></line><text fill="currentColor" x="-9" dy="0.32em">700</text></g><g class="tick" opacity="1" transform="translate(0,60.5)"><line stroke="currentColor" x2="-6"></line><text fill="currentColor" x="-9" dy="0.32em">800</text></g></g><line x1="570.8333333333333" y1="314.59999999999997" x2="80" y2="314.59999999999997" style="stroke: steelblue; stroke-width: 2;"></line><line x1="570.8333333333333" y1="314.59999999999997" x2="700" y2="411.5" style="stroke: green; stroke-width: 2;"></line><path fill="none" stroke="black" stroke-width="2.5" stroke-linejoin="round" stroke-linecap="round" d="M80,439.525C80,439.525,91.59007966146129,352.1844622386424,105.83333333333334,341.20000000000005C113.01326087011643,335.66280711409837,123.05555555555554,341.20000000000005,131.66666666666666,341.20000000000005C140.27777777777774,341.2000000000001,148.88888888888889,341.2000000000001,157.5,341.20000000000005C166.11111111111111,341.20000000000005,175.34277037704084,337.90685642181245,183.33333333333331,341.20000000000005C192.81892358505118,345.10928784287535,199.68107641494882,362.9407121571247,209.16666666666669,366.85C217.15722962295916,370.1431435781877,226.3892527079298,366.92915663202024,235,366.85C243.61147499164773,366.77083667840395,253.61751818673974,373.07983607775265,260.83333333333337,366.375C284.6683021146118,344.2278751984087,262.82955369145185,107.3942530368685,286.66666666666663,85.65C293.88252113171245,79.06768587797029,303.88888888888886,85.65,312.5,85.65C321.1111111111112,85.65,331.1952422819748,79.51440152693999,338.33333333333337,85.65C356.7519673064388,101.4818718083217,345.74803269356124,239.86812819167827,364.16666666666663,255.7C371.30475771802514,261.83559847306,381.3888888888889,255.7,390,255.7C398.6111111111111,255.7,408.6861844392091,261.9369239200126,415.8333333333333,255.7C435.25737564391386,238.74970612690083,422.2426243560859,83.6002938730991,441.6666666666667,66.64999999999999C448.8138155607906,60.413076079987306,460.32423532663324,60.23245075247144,467.5,66.64999999999999C489.0176136368739,85.89399022120382,471.82335093498,278.9629324429837,493.3333333333333,297.5C500.5089770476056,303.6838912665371,511.92737854924155,291.4665246118183,519.1666666666667,296.55C532.2768803854136,305.7560776822288,536.906671789127,377.6095368665022,545,377.29999999999995C554.2939054248668,376.9445459410733,558.8184854324069,293.37607400221407,570.8333333333333,268.52500000000003C578.1739244983463,253.34198846577416,588.9685687246687,234.55239491355172,596.6666666666667,235.75C606.8871313100221,237.34001360270696,622.5,304.625,622.5,304.625"></path><g fill="#ffffff"><circle cx="80" cy="439.525" r="8"></circle><circle cx="105.83333333333334" cy="341.20000000000005" r="8"></circle><circle cx="131.66666666666666" cy="341.20000000000005" r="8"></circle><circle cx="157.5" cy="341.20000000000005" r="8"></circle><circle cx="183.33333333333331" cy="341.20000000000005" r="8"></circle><circle cx="209.16666666666669" cy="366.85" r="8"></circle><circle cx="235" cy="366.85" r="8"></circle><circle cx="260.83333333333337" cy="366.375" r="8"></circle><circle cx="286.66666666666663" cy="85.65" r="8"></circle><circle cx="312.5" cy="85.65" r="8"></circle><circle cx="338.33333333333337" cy="85.65" r="8"></circle><circle cx="364.16666666666663" cy="255.7" r="8"></circle><circle cx="390" cy="255.7" r="8"></circle><circle cx="415.8333333333333" cy="255.7" r="8"></circle><circle cx="441.6666666666667" cy="66.64999999999999" r="8"></circle><circle cx="467.5" cy="66.64999999999999" r="8"></circle><circle cx="493.3333333333333" cy="297.5" r="8"></circle><circle cx="519.1666666666667" cy="296.55" r="8"></circle><circle cx="545" cy="377.29999999999995" r="8"></circle><circle cx="570.8333333333333" cy="268.52500000000003" r="8"></circle><circle cx="596.6666666666667" cy="235.75" r="8"></circle><circle cx="622.5" cy="304.625" r="8"></circle></g><g stroke="steelblue" stroke-width="2" fill="none"><circle cx="80" cy="439.525" r="4"></circle><circle cx="105.83333333333334" cy="341.20000000000005" r="4"></circle><circle cx="131.66666666666666" cy="341.20000000000005" r="4"></circle><circle cx="157.5" cy="341.20000000000005" r="4"></circle><circle cx="183.33333333333331" cy="341.20000000000005" r="4"></circle><circle cx="209.16666666666669" cy="366.85" r="4"></circle><circle cx="235" cy="366.85" r="4"></circle><circle cx="260.83333333333337" cy="366.375" r="4"></circle><circle cx="286.66666666666663" cy="85.65" r="4"></circle><circle cx="312.5" cy="85.65" r="4"></circle><circle cx="338.33333333333337" cy="85.65" r="4"></circle><circle cx="364.16666666666663" cy="255.7" r="4"></circle><circle cx="390" cy="255.7" r="4"></circle><circle cx="415.8333333333333" cy="255.7" r="4"></circle><circle cx="441.6666666666667" cy="66.64999999999999" r="4"></circle><circle cx="467.5" cy="66.64999999999999" r="4"></circle><circle cx="493.3333333333333" cy="297.5" r="4"></circle><circle cx="519.1666666666667" cy="296.55" r="4"></circle><circle cx="545" cy="377.29999999999995" r="4"></circle><circle cx="570.8333333333333" cy="268.52500000000003" r="4"></circle><circle cx="596.6666666666667" cy="235.75" r="4"></circle><circle cx="622.5" cy="304.625" r="4"></circle></g><path transform="translate(700,411.5)" d="M0,-14.71415478191356L8.495221224235612,0L0,14.71415478191356L-8.495221224235612,0Z" fill="#ffffff"></path><path transform="translate(700,411.5)" d="M0,-11.397535284773888L6.5803700647624614,0L0,11.397535284773888L-6.5803700647624614,0Z" fill="#33cc33"></path></g></svg>