<svg xmlns="http://www.w3.org/2000/svg" width="720" height="540" viewBox="0,0,720,540"><g fill="none" stroke-linecap="round"><rect width="720" height="540" fill="#ffffff"></rect><g transform="translate(0,440)" fill="none" font-size="10" font-family="sans-serif" text-anchor="middle"><path class="domain" stroke="currentColor" d="M80.5,6V0.5H700.5V6"></path><g class="tick" opacity="1" transform="translate(80.5,0)"><line stroke="currentColor" y2="6"></line><text fill="currentColor" y="9" dy="0.71em">1996</text></g><g class="tick" opacity="1" transform="translate(132.16666666666666,0)"><line stroke="currentColor" y2="6"></line><text fill="currentColor" y="9" dy="0.71em">1998</text></g><g class="tick" opacity="1" transform="translate(183.83333333333331,0)"><line stroke="currentColor" y2="6"></line><text fill="currentColor" y="9" dy="0.71em">2000</text></g><g class="tick" opacity="1" transform="translate(235.5,0)"><line stroke="currentColor" y2="6"></line><text fill="currentColor" y="9" dy="0.71em">2002</text></g><g class="tick" opacity="1" transform="translate(287.16666666666663,0)"><line stroke="currentColor" y2="6"></line><text fill="currentColor" y="9" dy="0.71em">2004</text></g><g class="tick" opacity="1" transform="translate(338.83333333333337,0)"><line stroke="currentColor" y2="6"></line><text fill="currentColor" y="9" dy="0.71em">2006</text></g><g class="tick" opacity="1" transform="translate(390.5,0)"><line stroke="currentColor" y2="6"></line><text fill="currentColor" y="9" dy="0.71em">2008</text></g><g class="tick" opacity="1" transform="translate(442.1666666666667,0)"><line stroke="currentColor" y2="6"></line><text fill="currentColor" y="9" dy="0.71em">2010</text></g><g class="tick" opacity="1" transform="translate(493.8333333333333,0)"><line stroke="currentColor" y2="6"></line><text fill="currentColor" y="9" dy="0.71em">2012</text></g><g class="tick" opacity="1" transform="translate(545.5,0)"><line stroke="currentColor" y2="6"></line><text fill="currentColor" y="9" dy="0.71em">2014</text></g><g class="tick" opacity="1" transform="translate(597.1666666666667,0)"><line stroke="currentColor" y2="6"></line><text fill="currentColor" y="9" dy="0.71em">2016</text></g><g class="tick" opacity="1" transform="translate(648.8333333333333,0)"><line stroke="currentColor" y2="6"></line><text fill="currentColor" y="9" dy="0.71em">2018</text></g><g class="tick" opacity="1" transform="translate(700.5,0)"><line stroke="currentColor" y2="6"></line><text fill="currentColor" y="9" dy="0.71em">2020</text></g></g><g transform="translate(80,0)" fill="none" font-size="10" font-family="sans-serif" text-anchor="end"><g class="tick" opacity="1" transform="translate(0,440.5)"><line stroke="currentColor" x2="-6"></line><text fill="currentColor" x="-9" dy="0.32em">0</text></g><g class="tick" opacity="1" transform="translate(0,413.3571428571429)"><line stroke="currentColor" x2="-6"></line><text fill="currentColor" x="-9" dy="0.32em">50</text></g><g class="tick" opacity="1" transform="translate(0,386.2142857142857)"><line stroke="currentColor" x2="-6"></line><text fill="currentColor" x="-9" dy="0.32em">100</text></g><g class="tick" opacity="1" transform="translate(0,359.07142857142856)"><line stroke="currentColor" x2="-6"></line><text fill="currentColor" x="-9" dy="0.32em">150</text></g><g class="tick" opacity="1" transform="translate(0,331.92857142857144)"><line stroke="currentColor" x2="-6"></line><text fill="currentColor" x="-9" dy="0.32em">200</text></g><g class="tick" opacity="1" transform="translate(0,304.7857142857143)"><line stroke="currentColor" x2="-6"></line><text fill="currentColor" x="-9" dy="0.32em">250</text></g><g class="tick" opacity="1" transform="translate(0,277.6428571428571)"><line stroke="currentColor" x2="-6"></line><text fill="currentColor" x="-9" dy="0.32em">300</text></g><g class="tick" opacity="1" transform="translate(0,250.5)"><line stroke="currentColor" x2="-6"></line><text fill="currentColor" x="-9" dy="0.32em">350</text></g><g class="tick" opacity="1" transform="translate(0,223.35714285714286)"><line stroke="currentColor" x2="-6"></line><text fill="currentColor" x="-9" dy="0.32em">400</text></g><g class="tick" opacity="1" transform="translate(0,196.2142857142857)"><line stroke="currentColor" x2="-6"></line><text fill="currentColor" x="-9" dy="0.32em">450</text></g><g class="tick" opacity="1" transform="translate(0,169.07142857142856)"><line stroke="currentColor" x2="-6"></line><text fill="currentColor" x="-9" dy="0.32em">500</text></g><g class="tick" opacity="1" transform="translate(0,141.92857142857144)"><line stroke="currentColor" x2="-6"></line><text fill="currentColor" x="-9" dy="0.32em">550</text></g><g class="tick" opacity="1" transform="translate(0,114.7857142857143)"><line stroke="currentColor" x2="-6"></line><text fill="currentColor" x="-9" dy="0.32em">600</text></g><g class="tick" opacity="1" transform="translate(0,87.64285714285714)"><line stroke="currentColor" x2="-6"></line><text fill="currentColor" x="-9" dy="0.32em">650</text></g><g class="tick" opacity="1" transform="translate(0,60.5)"><line stroke="currentColor" x2="-6"></line><text fill="currentColor" x="-9" dy="0.32em">700</text></g></g><path fill="none" stroke="black" stroke-width="2.5" stroke-linejoin="round" stroke-linecap="round" d="M80,244.02857142857144C80,244.02857142857144,97.22222222222221,244.02857142857138,105.83333333333334,244.02857142857144C114.44444444444446,244.02857142857144,123.05555555555554,244.02857142857144,131.66666666666666,244.02857142857144C140.27777777777774,244.02857142857144,148.88888888888889,244.02857142857138,157.5,244.02857142857144C166.11111111111111,244.02857142857144,174.7222222222222,244.02857142857144,183.33333333333331,244.02857142857144C191.94444444444443,244.02857142857144,201.63030606340342,248.47157028393625,209.16666666666669,244.02857142857144C219.99758170982423,237.6432953420655,224.16908495684254,203.72813322936318,235,197.34285714285716C242.5363606032632,192.89985828749232,252.2222222222223,197.3428571428572,260.83333333333337,197.34285714285716C269.4444444444445,197.34285714285718,278.0555555555556,197.34285714285718,286.66666666666663,197.34285714285716C295.2777777777778,197.3428571428572,305.23462973338235,192.1508543679436,312.5,197.34285714285716C325.26589572713834,206.465663497834,330.9209804480171,273.523933588074,338.33333333333337,272.8C349.82645323897935,271.67751491865147,344.69329752879156,99.80484674115628,364.16666666666663,82.80000000000003C371.3143566104051,76.5583799091974,381.3888888888889,82.80000000000003,390,82.80000000000003C398.6111111111111,82.80000000000001,407.22222222222223,82.80000000000001,415.8333333333333,82.80000000000003C424.44444444444446,82.80000000000003,434.12210648352686,78.37739545278822,441.6666666666667,82.80000000000003C452.4610628971912,89.12765127385548,456.7056037694755,122.61520586900167,467.5,128.94285714285712C475.0445601831398,133.36546169006897,484.7222222222222,128.94285714285712,493.3333333333333,128.94285714285712C501.9444444444443,128.9428571428571,510.55555555555566,128.94285714285712,519.1666666666667,128.94285714285712C527.7777777777777,128.9428571428571,536.3888888888889,128.94285714285712,545,128.94285714285712C553.6111111111111,128.94285714285712,570.8333333333333,128.94285714285712,570.8333333333333,128.94285714285712"></path><g fill="#ffffff"><circle cx="80" cy="244.02857142857144" r="8"></circle><circle cx="105.83333333333334" cy="244.02857142857144" r="8"></circle><circle cx="131.66666666666666" cy="244.02857142857144" r="8"></circle><circle cx="157.5" cy="244.02857142857144" r="8"></circle><circle cx="183.33333333333331" cy="244.02857142857144" r="8"></circle><circle cx="209.16666666666669" cy="244.02857142857144" r="8"></circle><circle cx="235" cy="197.34285714285716" r="8"></circle><circle cx="260.83333333333337" cy="197.34285714285716" r="8"></circle><circle cx="286.66666666666663" cy="197.34285714285716" r="8"></circle><circle cx="312.5" cy="197.34285714285716" r="8"></circle><circle cx="338.33333333333337" cy="272.8" r="8"></circle><circle cx="364.16666666666663" cy="82.80000000000003" r="8"></circle><circle cx="390" cy="82.80000000000003" r="8"></circle><circle cx="415.8333333333333" cy="82.80000000000003" r="8"></circle><circle cx="441.6666666666667" cy="82.80000000000003" r="8"></circle><circle cx="467.5" cy="128.94285714285712" r="8"></circle><circle cx="493.3333333333333" cy="128.94285714285712" r="8"></circle><circle cx="519.1666666666667" cy="128.94285714285712" r="8"></circle><circle cx="545" cy="128.94285714285712" r="8"></circle><circle cx="570.8333333333333" cy="128.94285714285712" r="8"></circle></g><g stroke="steelblue" stroke-width="2" fill="none"><circle cx="80" cy="244.02857142857144" r="4"></circle><circle cx="105.83333333333334" cy="244.02857142857144" r="4"></circle><circle cx="131.66666666666666" cy="244.02857142857144" r="4"></circle><circle cx="157.5" cy="244.02857142857144" r="4"></circle><circle cx="183.33333333333331" cy="244.02857142857144" r="4"></circle><circle cx="209.16666666666669" cy="244.02857142857144" r="4"></circle><circle cx="235" cy="197.34285714285716" r="4"></circle><circle cx="260.83333333333337" cy="197.34285714285716" r="4"></circle><circle cx="286.66666666666663" cy="197.34285714285716" r="4"></circle><circle cx="312.5" cy="197.34285714285716" r="4"></circle><circle cx="338.33333333333337" cy="272.8" r="4"></circle><circle cx="364.16666666666663" cy="82.80000000000003" r="4"></circle><circle cx="390" cy="82.80000000000003" r="4"></circle><circle cx="415.8333333333333" cy="82.80000000000003" r="4"></circle><circle cx="441.6666666666667" cy="82.80000000000003" r="4"></circle><circle cx="467.5" cy="128.94285714285712" r="4"></circle><circle cx="493.3333333333333" cy="128.94285714285712" r="4"></circle><circle cx="519.1666666666667" cy="128.94285714285712" r="4"></circle><circle cx="545" cy="128.94285714285712" r="4"></circle><circle cx="570.8333333333333" cy="128.94285714285712" r="4"></circle></g></g></svg>