<svg xmlns="http://www.w3.org/2000/svg" width="720" height="540" viewBox="0,0,720,540"><g fill="none" stroke-linecap="round"><rect width="720" height="540" fill="#ffffff"></rect><g transform="translate(0,440)" fill="none" font-size="10" font-family="sans-serif" text-anchor="middle"><path class="domain" stroke="currentColor" d="M80.5,6V0.5H700.5V6"></path><g class="tick" opacity="1" transform="translate(80.5,0)"><line stroke="currentColor" y2="6"></line><text fill="currentColor" y="9" dy="0.71em">1996</text></g><g class="tick" opacity="1" transform="translate(132.16666666666666,0)"><line stroke="currentColor" y2="6"></line><text fill="currentColor" y="9" dy="0.71em">1998</text></g><g class="tick" opacity="1" transform="translate(183.83333333333331,0)"><line stroke="currentColor" y2="6"></line><text fill="currentColor" y="9" dy="0.71em">2000</text></g><g class="tick" opacity="1" transform="translate(235.5,0)"><line stroke="currentColor" y2="6"></line><text fill="currentColor" y="9" dy="0.71em">2002</text></g><g class="tick" opacity="1" transform="translate(287.16666666666663,0)"><line stroke="currentColor" y2="6"></line><text fill="currentColor" y="9" dy="0.71em">2004</text></g><g class="tick" opacity="1" transform="translate(338.83333333333337,0)"><line stroke="currentColor" y2="6"></line><text fill="currentColor" y="9" dy="0.71em">2006</text></g><g class="tick" opacity="1" transform="translate(390.5,0)"><line stroke="currentColor" y2="6"></line><text fill="currentColor" y="9" dy="0.71em">2008</text></g><g class="tick" opacity="1" transform="translate(442.1666666666667,0)"><line stroke="currentColor" y2="6"></line><text fill="currentColor" y="9" dy="0.71em">2010</text></g><g class="tick" opacity="1" transform="translate(493.8333333333333,0)"><line stroke="currentColor" y2="6"></line><text fill="currentColor" y="9" dy="0.71em">2012</text></g><g class="tick" opacity="1" transform="translate(545.5,0)"><line stroke="currentColor" y2="6"></line><text fill="currentColor" y="9" dy="0.71em">2014</text></g><g class="tick" opacity="1" transform="translate(597.1666666666667,0)"><line stroke="currentColor" y2="6"></line><text fill="currentColor" y="9" dy="0.71em">2016</text></g><g class="tick" opacity="1" transform="translate(648.8333333333333,0)"><line stroke="currentColor" y2="6"></line><text fill="currentColor" y="9" dy="0.71em">2018</text></g><g class="tick" opacity="1" transform="translate(700.5,0)"><line stroke="currentColor" y2="6"></line><text fill="currentColor" y="9" dy="0.71em">2020</text></g></g><g transform="translate(80,0)" fill="none" font-size="10" font-family="sans-serif" text-anchor="end"><g class="tick" opacity="1" transform="translate(0,440.5)"><line stroke="currentColor" x2="-6"></line><text fill="currentColor" x="-9" dy="0.32em">0</text></g><g class="tick" opacity="1" transform="translate(0,402.5)"><line stroke="currentColor" x2="-6"></line><text fill="currentColor" x="-9" dy="0.32em">50</text></g><g class="tick" opacity="1" transform="translate(0,364.5)"><line stroke="currentColor" x2="-6"></line><text fill="currentColor" x="-9" dy="0.32em">100</text></g><g class="tick" opacity="1" transform="translate(0,326.5)"><line stroke="currentColor" x2="-6"></line><text fill="currentColor" x="-9" dy="0.32em">150</text></g><g class="tick" opacity="1" transform="translate(0,288.5)"><line stroke="currentColor" x2="-6"></line><text fill="currentColor" x="-9" dy="0.32em">200</text></g><g class="tick" opacity="1" transform="translate(0,250.5)"><line stroke="currentColor" x2="-6"></line><text fill="currentColor" x="-9" dy="0.32em">250</text></g><g class="tick" opacity="1" transform="translate(0,212.5)"><line stroke="currentColor" x2="-6"></line><text fill="currentColor" x="-9" dy="0.32em">300</text></g><g class="tick" opacity="1" transform="translate(0,174.50000000000003)"><line stroke="currentColor" x2="-6"></line><text fill="currentColor" x="-9" dy="0.32em">350</text></g><g class="tick" opacity="1" transform="translate(0,136.5)"><line stroke="currentColor" x2="-6"></line><text fill="currentColor" x="-9" dy="0.32em">400</text></g><g class="tick" opacity="1" transform="translate(0,98.5)"><line stroke="currentColor" x2="-6"></line><text fill="currentColor" x="-9" dy="0.32em">450</text></g><g class="tick" opacity="1" transform="translate(0,60.5)"><line stroke="currentColor" x2="-6"></line><text fill="currentColor" x="-9" dy="0.32em">500</text></g></g><line x1="570.8333333333333" y1="202.12" x2="80" y2="202.12" style="stroke: steelblue; stroke-width: 2;"></line><line x1="570.8333333333333" y1="202.12" x2="700" y2="392.12" style="stroke: green; stroke-width: 2;"></line><path fill="none" stroke="black" stroke-width="2.5" stroke-linejoin="round" stroke-linecap="round" d="M80,225.68000000000004C80,225.68000000000004,97.22222222222221,225.68000000000004,105.83333333333334,225.68000000000004C114.44444444444446,225.68000000000006,123.05555555555554,225.68,131.66666666666666,225.68000000000004C140.27777777777774,225.68000000000004,148.88888888888889,225.68000000000004,157.5,225.68000000000004C166.11111111111111,225.68000000000006,174.7222222222222,225.67999999999998,183.33333333333331,225.68000000000004C191.94444444444443,225.68,200.55555555555554,225.68000000000006,209.16666666666669,225.68000000000004C217.7777777777778,225.68000000000004,227.86584717332659,231.72379045254777,235,225.68000000000004C252.5973534177387,210.77217293767606,243.2359799155947,85.547827062324,260.83333333333337,70.64000000000001C267.96748616000673,64.59620954745229,278.0555555555556,70.64000000000004,286.66666666666663,70.64000000000001C295.2777777777778,70.64000000000001,305.3187904249061,64.19643476044791,312.5,70.64000000000001C334.3554282286593,90.25046759004725,316.5568248105315,286.5473969809723,338.33333333333337,308.52C345.5132555611676,315.7645764505593,355.5407010425722,311.05420435377675,364.16666666666663,311.55999999999995C372.76302506121283,312.06405958460925,381.3888888888889,311.55999999999995,390,311.55999999999995C398.6111111111111,311.55999999999995,407.22222222222223,311.55999999999995,415.8333333333333,311.55999999999995C424.44444444444446,311.55999999999995,433.0784744449215,312.18826734607643,441.6666666666667,311.55999999999995C450.3009432934784,310.92836135922965,458.86572337318825,308.39163864077017,467.5,307.76C476.08819222174543,307.1317326539236,484.7222222222222,307.76,493.3333333333333,307.76C501.9444444444443,307.75999999999993,510.55555555555566,307.76,519.1666666666667,307.76C527.7777777777777,307.7599999999999,536.3888888888889,307.76,545,307.76C553.6111111111111,307.76,570.8333333333333,307.76,570.8333333333333,307.76"></path><g fill="#ffffff"><circle cx="80" cy="225.68000000000004" r="8"></circle><circle cx="105.83333333333334" cy="225.68000000000004" r="8"></circle><circle cx="131.66666666666666" cy="225.68000000000004" r="8"></circle><circle cx="157.5" cy="225.68000000000004" r="8"></circle><circle cx="183.33333333333331" cy="225.68000000000004" r="8"></circle><circle cx="209.16666666666669" cy="225.68000000000004" r="8"></circle><circle cx="235" cy="225.68000000000004" r="8"></circle><circle cx="260.83333333333337" cy="70.64000000000001" r="8"></circle><circle cx="286.66666666666663" cy="70.64000000000001" r="8"></circle><circle cx="312.5" cy="70.64000000000001" r="8"></circle><circle cx="338.33333333333337" cy="308.52" r="8"></circle><circle cx="364.16666666666663" cy="311.55999999999995" r="8"></circle><circle cx="390" cy="311.55999999999995" r="8"></circle><circle cx="415.8333333333333" cy="311.55999999999995" r="8"></circle><circle cx="441.6666666666667" cy="311.55999999999995" r="8"></circle><circle cx="467.5" cy="307.76" r="8"></circle><circle cx="493.3333333333333" cy="307.76" r="8"></circle><circle cx="519.1666666666667" cy="307.76" r="8"></circle><circle cx="545" cy="307.76" r="8"></circle><circle cx="570.8333333333333" cy="307.76" r="8"></circle></g><g stroke="steelblue" stroke-width="2" fill="none"><circle cx="80" cy="225.68000000000004" r="4"></circle><circle cx="105.83333333333334" cy="225.68000000000004" r="4"></circle><circle cx="131.66666666666666" cy="225.68000000000004" r="4"></circle><circle cx="157.5" cy="225.68000000000004" r="4"></circle><circle cx="183.33333333333331" cy="225.68000000000004" r="4"></circle><circle cx="209.16666666666669" cy="225.68000000000004" r="4"></circle><circle cx="235" cy="225.68000000000004" r="4"></circle><circle cx="260.83333333333337" cy="70.64000000000001" r="4"></circle><circle cx="286.66666666666663" cy="70.64000000000001" r="4"></circle><circle cx="312.5" cy="70.64000000000001" r="4"></circle><circle cx="338.33333333333337" cy="308.52" r="4"></circle><circle cx="364.16666666666663" cy="311.55999999999995" r="4"></circle><circle cx="390" cy="311.55999999999995" r="4"></circle><circle cx="415.8333333333333" cy="311.55999999999995" r="4"></circle><circle cx="441.6666666666667" cy="311.55999999999995" r="4"></circle><circle cx="467.5" cy="307.76" r="4"></circle><circle cx="493.3333333333333" cy="307.76" r="4"></circle><circle cx="519.1666666666667" cy="307.76" r="4"></circle><circle cx="545" cy="307.76" r="4"></circle><circle cx="570.8333333333333" cy="307.76" r="4"></circle></g><path transform="translate(700,392.12)" d="M0,-14.71415478191356L8.495221224235612,0L0,14.71415478191356L-8.495221224235612,0Z" fill="#ffffff"></path><path transform="translate(700,392.12)" d="M0,-11.397535284773888L6.5803700647624614,0L0,11.397535284773888L-6.5803700647624614,0Z" fill="#33cc33"></path></g></svg>