<svg xmlns="http://www.w3.org/2000/svg" width="720" height="540" viewBox="0,0,720,540"><g fill="none" stroke-linecap="round"><rect width="720" height="540" fill="#ffffff"></rect><g transform="translate(0,440)" fill="none" font-size="10" font-family="sans-serif" text-anchor="middle"><path class="domain" stroke="currentColor" d="M80.5,6V0.5H700.5V6"></path><g class="tick" opacity="1" transform="translate(80.5,0)"><line stroke="currentColor" y2="6"></line><text fill="currentColor" y="9" dy="0.71em">1996</text></g><g class="tick" opacity="1" transform="translate(132.16666666666666,0)"><line stroke="currentColor" y2="6"></line><text fill="currentColor" y="9" dy="0.71em">1998</text></g><g class="tick" opacity="1" transform="translate(183.83333333333331,0)"><line stroke="currentColor" y2="6"></line><text fill="currentColor" y="9" dy="0.71em">2000</text></g><g class="tick" opacity="1" transform="translate(235.5,0)"><line stroke="currentColor" y2="6"></line><text fill="currentColor" y="9" dy="0.71em">2002</text></g><g class="tick" opacity="1" transform="translate(287.16666666666663,0)"><line stroke="currentColor" y2="6"></line><text fill="currentColor" y="9" dy="0.71em">2004</text></g><g class="tick" opacity="1" transform="translate(338.83333333333337,0)"><line stroke="currentColor" y2="6"></line><text fill="currentColor" y="9" dy="0.71em">2006</text></g><g class="tick" opacity="1" transform="translate(390.5,0)"><line stroke="currentColor" y2="6"></line><text fill="currentColor" y="9" dy="0.71em">2008</text></g><g class="tick" opacity="1" transform="translate(442.1666666666667,0)"><line stroke="currentColor" y2="6"></line><text fill="currentColor" y="9" dy="0.71em">2010</text></g><g class="tick" opacity="1" transform="translate(493.8333333333333,0)"><line stroke="currentColor" y2="6"></line><text fill="currentColor" y="9" dy="0.71em">2012</text></g><g class="tick" opacity="1" transform="translate(545.5,0)"><line stroke="currentColor" y2="6"></line><text fill="currentColor" y="9" dy="0.71em">2014</text></g><g class="tick" opacity="1" transform="translate(597.1666666666667,0)"><line stroke="currentColor" y2="6"></line><text fill="currentColor" y="9" dy="0.71em">2016</text></g><g class="tick" opacity="1" transform="translate(648.8333333333333,0)"><line stroke="currentColor" y2="6"></line><text fill="currentColor" y="9" dy="0.71em">2018</text></g><g class="tick" opacity="1" transform="translate(700.5,0)"><line stroke="currentColor" y2="6"></line><text fill="currentColor" y="9" dy="0.71em">2020</text></g></g><g transform="translate(80,0)" fill="none" font-size="10" font-family="sans-serif" text-anchor="end"><g class="tick" opacity="1" transform="translate(0,440.5)"><line stroke="currentColor" x2="-6"></line><text fill="currentColor" x="-9" dy="0.32em">0</text></g><g class="tick" opacity="1" transform="translate(0,393)"><line stroke="currentColor" x2="-6"></line><text fill="currentColor" x="-9" dy="0.32em">50</text></g><g class="tick" opacity="1" transform="translate(0,345.5)"><line stroke="currentColor" x2="-6"></line><text fill="currentColor" x="-9" dy="0.32em">100</text></g><g class="tick" opacity="1" transform="translate(0,298)"><line stroke="currentColor" x2="-6"></line><text fill="currentColor" x="-9" dy="0.32em">150</text></g><g class="tick" opacity="1" transform="translate(0,250.5)"><line stroke="currentColor" x2="-6"></line><text fill="currentColor" x="-9" dy="0.32em">200</text></g><g class="tick" opacity="1" transform="translate(0,203)"><line stroke="currentColor" x2="-6"></line><text fill="currentColor" x="-9" dy="0.32em">250</text></g><g class="tick" opacity="1" transform="translate(0,155.5)"><line stroke="currentColor" x2="-6"></line><text fill="currentColor" x="-9" dy="0.32em">300</text></g><g class="tick" opacity="1" transform="translate(0,108)"><line stroke="currentColor" x2="-6"></line><text fill="currentColor" x="-9" dy="0.32em">350</text></g><g class="tick" opacity="1" transform="translate(0,60.5)"><line stroke="currentColor" x2="-6"></line><text fill="currentColor" x="-9" dy="0.32em">400</text></g></g><path fill="none" stroke="black" stroke-width="2.5" stroke-linejoin="round" stroke-linecap="round" d="M209.16666666666669,328.85C209.16666666666669,328.85,226.49579380951795,337.9378654631732,235,337.4C243.723603188693,336.84825833657726,252.0033838950718,326.5478535733756,260.83333333333337,325.04999999999995C269.2458099397117,323.62296372602054,279.496757536357,332.89216799533887,286.66666666666663,327.90000000000003C301.19582750999336,317.783831099816,303.75069126169745,224.42022294604382,312.5,224.35000000000002C320.9812518224986,224.2819285092195,325.69311087137584,301.7685589627292,338.33333333333337,321.25C345.60940573323353,332.464072843115,356.6646623925277,344.1458703603116,364.16666666666663,342.15C375.1589866511075,339.2255487671959,381.7854132530071,299.2381212298132,390,275.65C399.09744848714786,249.52674822773315,407.00187980624133,192.190469801616,415.8333333333333,192.05C424.24457168388983,191.91621398404888,432.4421557898207,266.6366889992052,441.6666666666667,267.09999999999997C449.8008183430713,267.5085465347838,456.2239129852074,220.79161630460766,467.5,211.04999999999998C474.9483375471363,204.61524595844116,486.1744976218418,211.07678439883628,493.3333333333333,203.44999999999996C508.24853552900095,187.55984187990148,507.4066262939334,91.67641667446898,519.1666666666667,89.45000000000002C526.5399352755895,88.05408913099429,536.062516296556,115.71066628732889,545,127.44999999999999C553.3277510588854,138.3884533723555,561.0664087276328,153.11282622484396,570.8333333333333,157.85C578.695489891175,161.66331927557235,596.6666666666667,158.8,596.6666666666667,158.8"></path><g fill="#ffffff"><circle cx="209.16666666666669" cy="328.85" r="8"></circle><circle cx="235" cy="337.4" r="8"></circle><circle cx="260.83333333333337" cy="325.04999999999995" r="8"></circle><circle cx="286.66666666666663" cy="327.90000000000003" r="8"></circle><circle cx="312.5" cy="224.35000000000002" r="8"></circle><circle cx="338.33333333333337" cy="321.25" r="8"></circle><circle cx="364.16666666666663" cy="342.15" r="8"></circle><circle cx="390" cy="275.65" r="8"></circle><circle cx="415.8333333333333" cy="192.05" r="8"></circle><circle cx="441.6666666666667" cy="267.09999999999997" r="8"></circle><circle cx="467.5" cy="211.04999999999998" r="8"></circle><circle cx="493.3333333333333" cy="203.44999999999996" r="8"></circle><circle cx="519.1666666666667" cy="89.45000000000002" r="8"></circle><circle cx="545" cy="127.44999999999999" r="8"></circle><circle cx="570.8333333333333" cy="157.85" r="8"></circle><circle cx="596.6666666666667" cy="158.8" r="8"></circle></g><g stroke="steelblue" stroke-width="2" fill="none"><circle cx="209.16666666666669" cy="328.85" r="4"></circle><circle cx="235" cy="337.4" r="4"></circle><circle cx="260.83333333333337" cy="325.04999999999995" r="4"></circle><circle cx="286.66666666666663" cy="327.90000000000003" r="4"></circle><circle cx="312.5" cy="224.35000000000002" r="4"></circle><circle cx="338.33333333333337" cy="321.25" r="4"></circle><circle cx="364.16666666666663" cy="342.15" r="4"></circle><circle cx="390" cy="275.65" r="4"></circle><circle cx="415.8333333333333" cy="192.05" r="4"></circle><circle cx="441.6666666666667" cy="267.09999999999997" r="4"></circle><circle cx="467.5" cy="211.04999999999998" r="4"></circle><circle cx="493.3333333333333" cy="203.44999999999996" r="4"></circle><circle cx="519.1666666666667" cy="89.45000000000002" r="4"></circle><circle cx="545" cy="127.44999999999999" r="4"></circle><circle cx="570.8333333333333" cy="157.85" r="4"></circle><circle cx="596.6666666666667" cy="158.8" r="4"></circle></g></g></svg>