<svg xmlns="http://www.w3.org/2000/svg" width="720" height="540" viewBox="0,0,720,540"><g fill="none" stroke-linecap="round"><rect width="720" height="540" fill="#ffffff"></rect><g transform="translate(0,510)" fill="none" font-size="10" font-family="sans-serif" text-anchor="middle"><path class="domain" stroke="currentColor" d="M40.5,6V0.5H700.5V6"></path><g class="tick" opacity="1" transform="translate(40.5,0)"><line stroke="currentColor" y2="6"></line><text fill="currentColor" y="9" dy="0.71em">1996</text></g><g class="tick" opacity="1" transform="translate(95.5,0)"><line stroke="currentColor" y2="6"></line><text fill="currentColor" y="9" dy="0.71em">1998</text></g><g class="tick" opacity="1" transform="translate(150.5,0)"><line stroke="currentColor" y2="6"></line><text fill="currentColor" y="9" dy="0.71em">2000</text></g><g class="tick" opacity="1" transform="translate(205.5,0)"><line stroke="currentColor" y2="6"></line><text fill="currentColor" y="9" dy="0.71em">2002</text></g><g class="tick" opacity="1" transform="translate(260.5,0)"><line stroke="currentColor" y2="6"></line><text fill="currentColor" y="9" dy="0.71em">2004</text></g><g class="tick" opacity="1" transform="translate(315.5,0)"><line stroke="currentColor" y2="6"></line><text fill="currentColor" y="9" dy="0.71em">2006</text></g><g class="tick" opacity="1" transform="translate(370.5,0)"><line stroke="currentColor" y2="6"></line><text fill="currentColor" y="9" dy="0.71em">2008</text></g><g class="tick" opacity="1" transform="translate(425.50000000000006,0)"><line stroke="currentColor" y2="6"></line><text fill="currentColor" y="9" dy="0.71em">2010</text></g><g class="tick" opacity="1" transform="translate(480.49999999999994,0)"><line stroke="currentColor" y2="6"></line><text fill="currentColor" y="9" dy="0.71em">2012</text></g><g class="tick" opacity="1" transform="translate(535.5,0)"><line stroke="currentColor" y2="6"></line><text fill="currentColor" y="9" dy="0.71em">2014</text></g><g class="tick" opacity="1" transform="translate(590.5,0)"><line stroke="currentColor" y2="6"></line><text fill="currentColor" y="9" dy="0.71em">2016</text></g><g class="tick" opacity="1" transform="translate(645.5,0)"><line stroke="currentColor" y2="6"></line><text fill="currentColor" y="9" dy="0.71em">2018</text></g><g class="tick" opacity="1" transform="translate(700.5,0)"><line stroke="currentColor" y2="6"></line><text fill="currentColor" y="9" dy="0.71em">2020</text></g></g><g transform="translate(40,0)" fill="none" font-size="10" font-family="sans-serif" text-anchor="end"><path class="domain" stroke="currentColor" d="M-6,510.5H0.5V20.5H-6"></path><g class="tick" opacity="1" transform="translate(0,510.5)"><line stroke="currentColor" x2="-6"></line><text fill="currentColor" x="-9" dy="0.32em">0k</text></g><g class="tick" opacity="1" transform="translate(0,455.2576099210823)"><line stroke="currentColor" x2="-6"></line><text fill="currentColor" x="-9" dy="0.32em">1k</text></g><g class="tick" opacity="1" transform="translate(0,400.01521984216464)"><line stroke="currentColor" x2="-6"></line><text fill="currentColor" x="-9" dy="0.32em">2k</text></g><g class="tick" opacity="1" transform="translate(0,344.77282976324693)"><line stroke="currentColor" x2="-6"></line><text fill="currentColor" x="-9" dy="0.32em">3k</text></g><g class="tick" opacity="1" transform="translate(0,289.5304396843292)"><line stroke="currentColor" x2="-6"></line><text fill="currentColor" x="-9" dy="0.32em">4k</text></g><g class="tick" opacity="1" transform="translate(0,234.28804960541152)"><line stroke="currentColor" x2="-6"></line><text fill="currentColor" x="-9" dy="0.32em">5k</text></g><g class="tick" opacity="1" transform="translate(0,179.0456595264938)"><line stroke="currentColor" x2="-6"></line><text fill="currentColor" x="-9" dy="0.32em">6k</text></g><g class="tick" opacity="1" transform="translate(0,123.80326944757608)"><line stroke="currentColor" x2="-6"></line><text fill="currentColor" x="-9" dy="0.32em">7k</text></g><g class="tick" opacity="1" transform="translate(0,68.56087936865842)"><line stroke="currentColor" x2="-6"></line><text fill="currentColor" x="-9" dy="0.32em">8k</text></g></g><g stroke="steelblue" stroke-width="1.5" fill="none"><circle cx="40" cy="171.08793686583988" r="3"></circle><circle cx="67.5" cy="281.35174746335963" r="3"></circle><circle cx="95" cy="187.99210822998876" r="3"></circle><circle cx="122.5" cy="227.65614430665164" r="3"></circle><circle cx="150" cy="141.47801578354006" r="3"></circle><circle cx="177.5" cy="220.69560315670805" r="3"></circle><circle cx="205" cy="95.12965050732805" r="3"></circle><circle cx="232.5" cy="115.29312288613306" r="3"></circle><circle cx="260" cy="20" r="3"></circle><circle cx="287.5" cy="184.12514092446446" r="3"></circle><circle cx="315" cy="197.3833145434047" r="3"></circle><circle cx="342.5" cy="204.7305524239008" r="3"></circle><circle cx="370" cy="200.25591882750845" r="3"></circle><circle cx="397.49999999999994" cy="273.5073280721533" r="3"></circle><circle cx="425.00000000000006" cy="301.7361894024803" r="3"></circle><circle cx="452.5" cy="351.4543404735062" r="3"></circle><circle cx="479.99999999999994" cy="413.8229988726043" r="3"></circle><circle cx="507.50000000000006" cy="380.40135287485907" r="3"></circle><circle cx="535" cy="405.7576099210823" r="3"></circle><circle cx="562.5" cy="391.0631341600902" r="3"></circle><circle cx="590" cy="344.7147688838782" r="3"></circle><circle cx="617.5" cy="375.5952649379932" r="3"></circle></g></g></svg>