<svg xmlns="http://www.w3.org/2000/svg" width="720" height="540" viewBox="0,0,720,540"><g fill="none" stroke-linecap="round"><rect width="720" height="540" fill="#ffffff"></rect><g transform="translate(0,510)" fill="none" font-size="10" font-family="sans-serif" text-anchor="middle"><path class="domain" stroke="currentColor" d="M40.5,6V0.5H700.5V6"></path><g class="tick" opacity="1" transform="translate(40.5,0)"><line stroke="currentColor" y2="6"></line><text fill="currentColor" y="9" dy="0.71em">1996</text></g><g class="tick" opacity="1" transform="translate(95.5,0)"><line stroke="currentColor" y2="6"></line><text fill="currentColor" y="9" dy="0.71em">1998</text></g><g class="tick" opacity="1" transform="translate(150.5,0)"><line stroke="currentColor" y2="6"></line><text fill="currentColor" y="9" dy="0.71em">2000</text></g><g class="tick" opacity="1" transform="translate(205.5,0)"><line stroke="currentColor" y2="6"></line><text fill="currentColor" y="9" dy="0.71em">2002</text></g><g class="tick" opacity="1" transform="translate(260.5,0)"><line stroke="currentColor" y2="6"></line><text fill="currentColor" y="9" dy="0.71em">2004</text></g><g class="tick" opacity="1" transform="translate(315.5,0)"><line stroke="currentColor" y2="6"></line><text fill="currentColor" y="9" dy="0.71em">2006</text></g><g class="tick" opacity="1" transform="translate(370.5,0)"><line stroke="currentColor" y2="6"></line><text fill="currentColor" y="9" dy="0.71em">2008</text></g><g class="tick" opacity="1" transform="translate(425.50000000000006,0)"><line stroke="currentColor" y2="6"></line><text fill="currentColor" y="9" dy="0.71em">2010</text></g><g class="tick" opacity="1" transform="translate(480.49999999999994,0)"><line stroke="currentColor" y2="6"></line><text fill="currentColor" y="9" dy="0.71em">2012</text></g><g class="tick" opacity="1" transform="translate(535.5,0)"><line stroke="currentColor" y2="6"></line><text fill="currentColor" y="9" dy="0.71em">2014</text></g><g class="tick" opacity="1" transform="translate(590.5,0)"><line stroke="currentColor" y2="6"></line><text fill="currentColor" y="9" dy="0.71em">2016</text></g><g class="tick" opacity="1" transform="translate(645.5,0)"><line stroke="currentColor" y2="6"></line><text fill="currentColor" y="9" dy="0.71em">2018</text></g><g class="tick" opacity="1" transform="translate(700.5,0)"><line stroke="currentColor" y2="6"></line><text fill="currentColor" y="9" dy="0.71em">2020</text></g></g><g transform="translate(40,0)" fill="none" font-size="10" font-family="sans-serif" text-anchor="end"><path class="domain" stroke="currentColor" d="M-6,510.5H0.5V20.5H-6"></path><g class="tick" opacity="1" transform="translate(0,510.5)"><line stroke="currentColor" x2="-6"></line><text fill="currentColor" x="-9" dy="0.32em">0.0k</text></g><g class="tick" opacity="1" transform="translate(0,433.3346456692914)"><line stroke="currentColor" x2="-6"></line><text fill="currentColor" x="-9" dy="0.32em">0.5k</text></g><g class="tick" opacity="1" transform="translate(0,356.1692913385827)"><line stroke="currentColor" x2="-6"></line><text fill="currentColor" x="-9" dy="0.32em">1.0k</text></g><g class="tick" opacity="1" transform="translate(0,279.003937007874)"><line stroke="currentColor" x2="-6"></line><text fill="currentColor" x="-9" dy="0.32em">1.5k</text></g><g class="tick" opacity="1" transform="translate(0,201.83858267716536)"><line stroke="currentColor" x2="-6"></line><text fill="currentColor" x="-9" dy="0.32em">2.0k</text></g><g class="tick" opacity="1" transform="translate(0,124.67322834645667)"><line stroke="currentColor" x2="-6"></line><text fill="currentColor" x="-9" dy="0.32em">2.5k</text></g><g class="tick" opacity="1" transform="translate(0,47.50787401574804)"><line stroke="currentColor" x2="-6"></line><text fill="currentColor" x="-9" dy="0.32em">3.0k</text></g></g><g stroke="steelblue" stroke-width="1.5" fill="none"><circle cx="40" cy="20" r="3"></circle><circle cx="67.5" cy="446.57007874015744" r="3"></circle><circle cx="95" cy="446.57007874015744" r="3"></circle><circle cx="122.5" cy="446.57007874015744" r="3"></circle><circle cx="150" cy="446.57007874015744" r="3"></circle><circle cx="177.5" cy="429.90236220472434" r="3"></circle><circle cx="205" cy="429.90236220472434" r="3"></circle><circle cx="232.5" cy="429.90236220472434" r="3"></circle><circle cx="260" cy="378.20157480314964" r="3"></circle><circle cx="287.5" cy="378.20157480314964" r="3"></circle><circle cx="315" cy="378.20157480314964" r="3"></circle><circle cx="342.5" cy="294.7086614173228" r="3"></circle><circle cx="370" cy="294.7086614173228" r="3"></circle><circle cx="397.49999999999994" cy="294.7086614173228" r="3"></circle><circle cx="425.00000000000006" cy="353.97165354330707" r="3"></circle><circle cx="452.5" cy="353.97165354330707" r="3"></circle><circle cx="479.99999999999994" cy="423.1118110236221" r="3"></circle><circle cx="507.50000000000006" cy="374.3433070866142" r="3"></circle><circle cx="535" cy="397.6472440944882" r="3"></circle><circle cx="562.5" cy="219.24094488188976" r="3"></circle><circle cx="590" cy="332.82834645669294" r="3"></circle><circle cx="617.5" cy="333.4456692913386" r="3"></circle></g></g></svg>