<svg xmlns="http://www.w3.org/2000/svg" width="720" height="540" viewBox="0,0,720,540"><g fill="none" stroke-linecap="round"><rect width="720" height="540" fill="#ffffff"></rect><g transform="translate(0,440)" fill="none" font-size="10" font-family="sans-serif" text-anchor="middle"><path class="domain" stroke="currentColor" d="M80.5,6V0.5H700.5V6"></path><g class="tick" opacity="1" transform="translate(80.5,0)"><line stroke="currentColor" y2="6"></line><text fill="currentColor" y="9" dy="0.71em">1996</text></g><g class="tick" opacity="1" transform="translate(132.16666666666666,0)"><line stroke="currentColor" y2="6"></line><text fill="currentColor" y="9" dy="0.71em">1998</text></g><g class="tick" opacity="1" transform="translate(183.83333333333331,0)"><line stroke="currentColor" y2="6"></line><text fill="currentColor" y="9" dy="0.71em">2000</text></g><g class="tick" opacity="1" transform="translate(235.5,0)"><line stroke="currentColor" y2="6"></line><text fill="currentColor" y="9" dy="0.71em">2002</text></g><g class="tick" opacity="1" transform="translate(287.16666666666663,0)"><line stroke="currentColor" y2="6"></line><text fill="currentColor" y="9" dy="0.71em">2004</text></g><g class="tick" opacity="1" transform="translate(338.83333333333337,0)"><line stroke="currentColor" y2="6"></line><text fill="currentColor" y="9" dy="0.71em">2006</text></g><g class="tick" opacity="1" transform="translate(390.5,0)"><line stroke="currentColor" y2="6"></line><text fill="currentColor" y="9" dy="0.71em">2008</text></g><g class="tick" opacity="1" transform="translate(442.1666666666667,0)"><line stroke="currentColor" y2="6"></line><text fill="currentColor" y="9" dy="0.71em">2010</text></g><g class="tick" opacity="1" transform="translate(493.8333333333333,0)"><line stroke="currentColor" y2="6"></line><text fill="currentColor" y="9" dy="0.71em">2012</text></g><g class="tick" opacity="1" transform="translate(545.5,0)"><line stroke="currentColor" y2="6"></line><text fill="currentColor" y="9" dy="0.71em">2014</text></g><g class="tick" opacity="1" transform="translate(597.1666666666667,0)"><line stroke="currentColor" y2="6"></line><text fill="currentColor" y="9" dy="0.71em">2016</text></g><g class="tick" opacity="1" transform="translate(648.8333333333333,0)"><line stroke="currentColor" y2="6"></line><text fill="currentColor" y="9" dy="0.71em">2018</text></g><g class="tick" opacity="1" transform="translate(700.5,0)"><line stroke="currentColor" y2="6"></line><text fill="currentColor" y="9" dy="0.71em">2020</text></g></g><g transform="translate(80,0)" fill="none" font-size="10" font-family="sans-serif" text-anchor="end"><g class="tick" opacity="1" transform="translate(0,440.5)"><line stroke="currentColor" x2="-6"></line><text fill="currentColor" x="-9" dy="0.32em">−60</text></g><g class="tick" opacity="1" transform="translate(0,393)"><line stroke="currentColor" x2="-6"></line><text fill="currentColor" x="-9" dy="0.32em">−40</text></g><g class="tick" opacity="1" transform="translate(0,345.5)"><line stroke="currentColor" x2="-6"></line><text fill="currentColor" x="-9" dy="0.32em">−20</text></g><g class="tick" opacity="1" transform="translate(0,298)"><line stroke="currentColor" x2="-6"></line><text fill="currentColor" x="-9" dy="0.32em">0</text></g><g class="tick" opacity="1" transform="translate(0,250.5)"><line stroke="currentColor" x2="-6"></line><text fill="currentColor" x="-9" dy="0.32em">20</text></g><g class="tick" opacity="1" transform="translate(0,203)"><line stroke="currentColor" x2="-6"></line><text fill="currentColor" x="-9" dy="0.32em">40</text></g><g class="tick" opacity="1" transform="translate(0,155.5)"><line stroke="currentColor" x2="-6"></line><text fill="currentColor" x="-9" dy="0.32em">60</text></g><g class="tick" opacity="1" transform="translate(0,108)"><line stroke="currentColor" x2="-6"></line><text fill="currentColor" x="-9" dy="0.32em">80</text></g><g class="tick" opacity="1" transform="translate(0,60.5)"><line stroke="currentColor" x2="-6"></line><text fill="currentColor" x="-9" dy="0.32em">100</text></g></g><path fill="none" stroke="black" stroke-width="2.5" stroke-linejoin="round" stroke-linecap="round" d="M209.16666666666669,242.87499999999997C209.16666666666669,242.87499999999997,221.11818379547012,324.9600560987488,235,335.5C242.1951394347137,340.9630002937811,252.2222222222223,335.5,260.83333333333337,335.5C269.4444444444445,335.50000000000006,278.0555555555556,335.50000000000006,286.66666666666663,335.5C295.2777777777778,335.50000000000006,303.88888888888886,335.5,312.5,335.5C321.1111111111112,335.5,329.7222222222223,335.5,338.33333333333337,335.5C346.94444444444446,335.50000000000006,356.86091361706406,330.4374681786063,364.16666666666663,335.5C376.49478205390074,344.04278484667367,377.6718846127659,395.8322151533263,390,404.375C397.3057530496026,409.43753182139363,407.22222222222223,404.375,415.8333333333333,404.375C424.44444444444446,404.375,433.05555555555566,404.375,441.6666666666667,404.375C450.27777777777777,404.375,460.2476518276205,411.0743661072156,467.5,404.375C493.2788046204753,380.5617955241488,467.554528712858,102.8132044758514,493.3333333333333,79.00000000000003C500.58568150571296,72.30063389278448,510.55555555555566,79.00000000000003,519.1666666666667,79.00000000000003C527.7777777777777,79.00000000000001,545,79.00000000000003,545,79.00000000000003"></path><g fill="#ffffff"><circle cx="209.16666666666669" cy="242.87499999999997" r="8"></circle><circle cx="235" cy="335.5" r="8"></circle><circle cx="260.83333333333337" cy="335.5" r="8"></circle><circle cx="286.66666666666663" cy="335.5" r="8"></circle><circle cx="312.5" cy="335.5" r="8"></circle><circle cx="338.33333333333337" cy="335.5" r="8"></circle><circle cx="364.16666666666663" cy="335.5" r="8"></circle><circle cx="390" cy="404.375" r="8"></circle><circle cx="415.8333333333333" cy="404.375" r="8"></circle><circle cx="441.6666666666667" cy="404.375" r="8"></circle><circle cx="467.5" cy="404.375" r="8"></circle><circle cx="493.3333333333333" cy="79.00000000000003" r="8"></circle><circle cx="519.1666666666667" cy="79.00000000000003" r="8"></circle><circle cx="545" cy="79.00000000000003" r="8"></circle></g><g stroke="steelblue" stroke-width="2" fill="none"><circle cx="209.16666666666669" cy="242.87499999999997" r="4"></circle><circle cx="235" cy="335.5" r="4"></circle><circle cx="260.83333333333337" cy="335.5" r="4"></circle><circle cx="286.66666666666663" cy="335.5" r="4"></circle><circle cx="312.5" cy="335.5" r="4"></circle><circle cx="338.33333333333337" cy="335.5" r="4"></circle><circle cx="364.16666666666663" cy="335.5" r="4"></circle><circle cx="390" cy="404.375" r="4"></circle><circle cx="415.8333333333333" cy="404.375" r="4"></circle><circle cx="441.6666666666667" cy="404.375" r="4"></circle><circle cx="467.5" cy="404.375" r="4"></circle><circle cx="493.3333333333333" cy="79.00000000000003" r="4"></circle><circle cx="519.1666666666667" cy="79.00000000000003" r="4"></circle><circle cx="545" cy="79.00000000000003" r="4"></circle></g></g></svg>