<svg xmlns="http://www.w3.org/2000/svg" width="720" height="540" viewBox="0,0,720,540"><g fill="none" stroke-linecap="round"><rect width="720" height="540" fill="#ffffff"></rect><g transform="translate(0,440)" fill="none" font-size="10" font-family="sans-serif" text-anchor="middle"><path class="domain" stroke="currentColor" d="M80.5,6V0.5H700.5V6"></path><g class="tick" opacity="1" transform="translate(80.5,0)"><line stroke="currentColor" y2="6"></line><text fill="currentColor" y="9" dy="0.71em">1996</text></g><g class="tick" opacity="1" transform="translate(132.16666666666666,0)"><line stroke="currentColor" y2="6"></line><text fill="currentColor" y="9" dy="0.71em">1998</text></g><g class="tick" opacity="1" transform="translate(183.83333333333331,0)"><line stroke="currentColor" y2="6"></line><text fill="currentColor" y="9" dy="0.71em">2000</text></g><g class="tick" opacity="1" transform="translate(235.5,0)"><line stroke="currentColor" y2="6"></line><text fill="currentColor" y="9" dy="0.71em">2002</text></g><g class="tick" opacity="1" transform="translate(287.16666666666663,0)"><line stroke="currentColor" y2="6"></line><text fill="currentColor" y="9" dy="0.71em">2004</text></g><g class="tick" opacity="1" transform="translate(338.83333333333337,0)"><line stroke="currentColor" y2="6"></line><text fill="currentColor" y="9" dy="0.71em">2006</text></g><g class="tick" opacity="1" transform="translate(390.5,0)"><line stroke="currentColor" y2="6"></line><text fill="currentColor" y="9" dy="0.71em">2008</text></g><g class="tick" opacity="1" transform="translate(442.1666666666667,0)"><line stroke="currentColor" y2="6"></line><text fill="currentColor" y="9" dy="0.71em">2010</text></g><g class="tick" opacity="1" transform="translate(493.8333333333333,0)"><line stroke="currentColor" y2="6"></line><text fill="currentColor" y="9" dy="0.71em">2012</text></g><g class="tick" opacity="1" transform="translate(545.5,0)"><line stroke="currentColor" y2="6"></line><text fill="currentColor" y="9" dy="0.71em">2014</text></g><g class="tick" opacity="1" transform="translate(597.1666666666667,0)"><line stroke="currentColor" y2="6"></line><text fill="currentColor" y="9" dy="0.71em">2016</text></g><g class="tick" opacity="1" transform="translate(648.8333333333333,0)"><line stroke="currentColor" y2="6"></line><text fill="currentColor" y="9" dy="0.71em">2018</text></g><g class="tick" opacity="1" transform="translate(700.5,0)"><line stroke="currentColor" y2="6"></line><text fill="currentColor" y="9" dy="0.71em">2020</text></g></g><g transform="translate(80,0)" fill="none" font-size="10" font-family="sans-serif" text-anchor="end"><g class="tick" opacity="1" transform="translate(0,440.5)"><line stroke="currentColor" x2="-6"></line><text fill="currentColor" x="-9" dy="0.32em">0.0k</text></g><g class="tick" opacity="1" transform="translate(0,393)"><line stroke="currentColor" x2="-6"></line><text fill="currentColor" x="-9" dy="0.32em">0.2k</text></g><g class="tick" opacity="1" transform="translate(0,345.5)"><line stroke="currentColor" x2="-6"></line><text fill="currentColor" x="-9" dy="0.32em">0.4k</text></g><g class="tick" opacity="1" transform="translate(0,298)"><line stroke="currentColor" x2="-6"></line><text fill="currentColor" x="-9" dy="0.32em">0.6k</text></g><g class="tick" opacity="1" transform="translate(0,250.5)"><line stroke="currentColor" x2="-6"></line><text fill="currentColor" x="-9" dy="0.32em">0.8k</text></g><g class="tick" opacity="1" transform="translate(0,203)"><line stroke="currentColor" x2="-6"></line><text fill="currentColor" x="-9" dy="0.32em">1.0k</text></g><g class="tick" opacity="1" transform="translate(0,155.5)"><line stroke="currentColor" x2="-6"></line><text fill="currentColor" x="-9" dy="0.32em">1.2k</text></g><g class="tick" opacity="1" transform="translate(0,108)"><line stroke="currentColor" x2="-6"></line><text fill="currentColor" x="-9" dy="0.32em">1.4k</text></g><g class="tick" opacity="1" transform="translate(0,60.5)"><line stroke="currentColor" x2="-6"></line><text fill="currentColor" x="-9" dy="0.32em">1.6k</text></g></g><path fill="none" stroke="black" stroke-width="2.5" stroke-linejoin="round" stroke-linecap="round" d="M80,197.0375C80,197.0375,92.68855591668515,295.4246480558117,105.83333333333334,300.11249999999995C113.07024533703277,302.69341643023904,122.7698217953429,286.15350696644146,131.66666666666666,280.875C140.0255537605667,275.91566392131153,149.35854590663877,267.55647065854805,157.5,269C166.71246251117037,270.63342564969366,173.9068345941063,291.82534965127843,183.33333333333331,294.65C191.35411235329917,297.05342643461944,201.77206084214322,295.41352261702104,209.16666666666669,289.42499999999995C220.77649537087862,280.0227785125017,227.612929649852,255.06563948484904,235,229.8125C246.66157413739694,189.94671500734879,250.16543762773017,70.83994351729342,260.83333333333337,69.975C268.4076021257047,69.36088500759728,278.6299089738576,119.22373478135327,286.66666666666663,147.39999999999998C296.0628734698295,180.34239108043033,297.67069602234585,245.59310353687502,312.5,255.9375C319.66107433563906,260.9328114550342,330.7184352339562,249.155986972004,338.33333333333337,252.85000000000005C348.841485458358,257.9475404192449,353.63704791408196,288.8319965411444,364.16666666666663,295.125C371.77589032340313,299.67263576119933,382.47081394248426,291.7997479482769,390,296.55C400.86347590022734,303.4038947357248,407.1449921463453,343.72683950795204,415.8333333333333,343.8125C424.36988921643905,343.8966640034162,431.92775290728343,300.3766279866196,441.6666666666667,298.6875C449.5405666845905,297.3218420618849,458.26321390270857,318.3342680883439,467.5,320.775C475.62677834684274,322.9224230366676,484.9549867791742,318.8211661319087,493.3333333333333,315.7875C502.205453159204,312.57504641384236,510.75367966095956,300.91494452106696,519.1666666666667,301.5375C527.9959966879833,302.19086458695955,537.288096068461,322.9945163711719,545,321.25C555.1770789128358,318.94783429205563,563.1639015892678,290.9943941283009,570.8333333333333,270.9C581.1475945951769,243.8759859851249,584.8654803794865,174.5585852581157,596.6666666666667,171.86250000000004C604.0343694291937,170.17928321815788,622.5,202.2625,622.5,202.2625"></path><g fill="#ffffff"><circle cx="80" cy="197.0375" r="8"></circle><circle cx="105.83333333333334" cy="300.11249999999995" r="8"></circle><circle cx="131.66666666666666" cy="280.875" r="8"></circle><circle cx="157.5" cy="269" r="8"></circle><circle cx="183.33333333333331" cy="294.65" r="8"></circle><circle cx="209.16666666666669" cy="289.42499999999995" r="8"></circle><circle cx="235" cy="229.8125" r="8"></circle><circle cx="260.83333333333337" cy="69.975" r="8"></circle><circle cx="286.66666666666663" cy="147.39999999999998" r="8"></circle><circle cx="312.5" cy="255.9375" r="8"></circle><circle cx="338.33333333333337" cy="252.85000000000005" r="8"></circle><circle cx="364.16666666666663" cy="295.125" r="8"></circle><circle cx="390" cy="296.55" r="8"></circle><circle cx="415.8333333333333" cy="343.8125" r="8"></circle><circle cx="441.6666666666667" cy="298.6875" r="8"></circle><circle cx="467.5" cy="320.775" r="8"></circle><circle cx="493.3333333333333" cy="315.7875" r="8"></circle><circle cx="519.1666666666667" cy="301.5375" r="8"></circle><circle cx="545" cy="321.25" r="8"></circle><circle cx="570.8333333333333" cy="270.9" r="8"></circle><circle cx="596.6666666666667" cy="171.86250000000004" r="8"></circle><circle cx="622.5" cy="202.2625" r="8"></circle></g><g stroke="steelblue" stroke-width="2" fill="none"><circle cx="80" cy="197.0375" r="4"></circle><circle cx="105.83333333333334" cy="300.11249999999995" r="4"></circle><circle cx="131.66666666666666" cy="280.875" r="4"></circle><circle cx="157.5" cy="269" r="4"></circle><circle cx="183.33333333333331" cy="294.65" r="4"></circle><circle cx="209.16666666666669" cy="289.42499999999995" r="4"></circle><circle cx="235" cy="229.8125" r="4"></circle><circle cx="260.83333333333337" cy="69.975" r="4"></circle><circle cx="286.66666666666663" cy="147.39999999999998" r="4"></circle><circle cx="312.5" cy="255.9375" r="4"></circle><circle cx="338.33333333333337" cy="252.85000000000005" r="4"></circle><circle cx="364.16666666666663" cy="295.125" r="4"></circle><circle cx="390" cy="296.55" r="4"></circle><circle cx="415.8333333333333" cy="343.8125" r="4"></circle><circle cx="441.6666666666667" cy="298.6875" r="4"></circle><circle cx="467.5" cy="320.775" r="4"></circle><circle cx="493.3333333333333" cy="315.7875" r="4"></circle><circle cx="519.1666666666667" cy="301.5375" r="4"></circle><circle cx="545" cy="321.25" r="4"></circle><circle cx="570.8333333333333" cy="270.9" r="4"></circle><circle cx="596.6666666666667" cy="171.86250000000004" r="4"></circle><circle cx="622.5" cy="202.2625" r="4"></circle></g></g></svg>