<svg xmlns="http://www.w3.org/2000/svg" width="720" height="540" viewBox="0,0,720,540"><g fill="none" stroke-linecap="round"><rect width="720" height="540" fill="#ffffff"></rect><g transform="translate(0,440)" fill="none" font-size="10" font-family="sans-serif" text-anchor="middle"><path class="domain" stroke="currentColor" d="M80.5,6V0.5H700.5V6"></path><g class="tick" opacity="1" transform="translate(80.5,0)"><line stroke="currentColor" y2="6"></line><text fill="currentColor" y="9" dy="0.71em">1996</text></g><g class="tick" opacity="1" transform="translate(132.16666666666666,0)"><line stroke="currentColor" y2="6"></line><text fill="currentColor" y="9" dy="0.71em">1998</text></g><g class="tick" opacity="1" transform="translate(183.83333333333331,0)"><line stroke="currentColor" y2="6"></line><text fill="currentColor" y="9" dy="0.71em">2000</text></g><g class="tick" opacity="1" transform="translate(235.5,0)"><line stroke="currentColor" y2="6"></line><text fill="currentColor" y="9" dy="0.71em">2002</text></g><g class="tick" opacity="1" transform="translate(287.16666666666663,0)"><line stroke="currentColor" y2="6"></line><text fill="currentColor" y="9" dy="0.71em">2004</text></g><g class="tick" opacity="1" transform="translate(338.83333333333337,0)"><line stroke="currentColor" y2="6"></line><text fill="currentColor" y="9" dy="0.71em">2006</text></g><g class="tick" opacity="1" transform="translate(390.5,0)"><line stroke="currentColor" y2="6"></line><text fill="currentColor" y="9" dy="0.71em">2008</text></g><g class="tick" opacity="1" transform="translate(442.1666666666667,0)"><line stroke="currentColor" y2="6"></line><text fill="currentColor" y="9" dy="0.71em">2010</text></g><g class="tick" opacity="1" transform="translate(493.8333333333333,0)"><line stroke="currentColor" y2="6"></line><text fill="currentColor" y="9" dy="0.71em">2012</text></g><g class="tick" opacity="1" transform="translate(545.5,0)"><line stroke="currentColor" y2="6"></line><text fill="currentColor" y="9" dy="0.71em">2014</text></g><g class="tick" opacity="1" transform="translate(597.1666666666667,0)"><line stroke="currentColor" y2="6"></line><text fill="currentColor" y="9" dy="0.71em">2016</text></g><g class="tick" opacity="1" transform="translate(648.8333333333333,0)"><line stroke="currentColor" y2="6"></line><text fill="currentColor" y="9" dy="0.71em">2018</text></g><g class="tick" opacity="1" transform="translate(700.5,0)"><line stroke="currentColor" y2="6"></line><text fill="currentColor" y="9" dy="0.71em">2020</text></g></g><g transform="translate(80,0)" fill="none" font-size="10" font-family="sans-serif" text-anchor="end"><g class="tick" opacity="1" transform="translate(0,440.5)"><line stroke="currentColor" x2="-6"></line><text fill="currentColor" x="-9" dy="0.32em">0.0k</text></g><g class="tick" opacity="1" transform="translate(0,393)"><line stroke="currentColor" x2="-6"></line><text fill="currentColor" x="-9" dy="0.32em">0.5k</text></g><g class="tick" opacity="1" transform="translate(0,345.5)"><line stroke="currentColor" x2="-6"></line><text fill="currentColor" x="-9" dy="0.32em">1.0k</text></g><g class="tick" opacity="1" transform="translate(0,298)"><line stroke="currentColor" x2="-6"></line><text fill="currentColor" x="-9" dy="0.32em">1.5k</text></g><g class="tick" opacity="1" transform="translate(0,250.5)"><line stroke="currentColor" x2="-6"></line><text fill="currentColor" x="-9" dy="0.32em">2.0k</text></g><g class="tick" opacity="1" transform="translate(0,203)"><line stroke="currentColor" x2="-6"></line><text fill="currentColor" x="-9" dy="0.32em">2.5k</text></g><g class="tick" opacity="1" transform="translate(0,155.5)"><line stroke="currentColor" x2="-6"></line><text fill="currentColor" x="-9" dy="0.32em">3.0k</text></g><g class="tick" opacity="1" transform="translate(0,108)"><line stroke="currentColor" x2="-6"></line><text fill="currentColor" x="-9" dy="0.32em">3.5k</text></g><g class="tick" opacity="1" transform="translate(0,60.5)"><line stroke="currentColor" x2="-6"></line><text fill="currentColor" x="-9" dy="0.32em">4.0k</text></g></g><g stroke="steelblue" stroke-width="1.5" fill="none"><circle cx="80" cy="208.96" r="3"></circle><circle cx="105.83333333333334" cy="251.33" r="3"></circle><circle cx="131.66666666666666" cy="246.10500000000002" r="3"></circle><circle cx="157.5" cy="215.98999999999998" r="3"></circle><circle cx="183.33333333333331" cy="205.82500000000002" r="3"></circle><circle cx="209.16666666666669" cy="186.065" r="3"></circle><circle cx="235" cy="145.59499999999997" r="3"></circle><circle cx="260.83333333333337" cy="98.285" r="3"></circle><circle cx="286.66666666666663" cy="73.49" r="3"></circle><circle cx="312.5" cy="131.82" r="3"></circle><circle cx="338.33333333333337" cy="245.34500000000003" r="3"></circle><circle cx="364.16666666666663" cy="286.95500000000004" r="3"></circle><circle cx="390" cy="332.08" r="3"></circle><circle cx="415.8333333333333" cy="394.21" r="3"></circle><circle cx="441.6666666666667" cy="398.67499999999995" r="3"></circle><circle cx="467.5" cy="357.825" r="3"></circle><circle cx="493.3333333333333" cy="366.565" r="3"></circle><circle cx="519.1666666666667" cy="351.46000000000004" r="3"></circle><circle cx="545" cy="375.02" r="3"></circle><circle cx="570.8333333333333" cy="342.15" r="3"></circle><circle cx="596.6666666666667" cy="309.28" r="3"></circle><circle cx="622.5" cy="321.91499999999996" r="3"></circle></g></g></svg>