<svg xmlns="http://www.w3.org/2000/svg" width="720" height="540" viewBox="0,0,720,540"><g fill="none" stroke-linecap="round"><rect width="720" height="540" fill="#ffffff"></rect><g transform="translate(0,440)" fill="none" font-size="10" font-family="sans-serif" text-anchor="middle"><path class="domain" stroke="currentColor" d="M80.5,6V0.5H700.5V6"></path><g class="tick" opacity="1" transform="translate(80.5,0)"><line stroke="currentColor" y2="6"></line><text fill="currentColor" y="9" dy="0.71em">1996</text></g><g class="tick" opacity="1" transform="translate(132.16666666666666,0)"><line stroke="currentColor" y2="6"></line><text fill="currentColor" y="9" dy="0.71em">1998</text></g><g class="tick" opacity="1" transform="translate(183.83333333333331,0)"><line stroke="currentColor" y2="6"></line><text fill="currentColor" y="9" dy="0.71em">2000</text></g><g class="tick" opacity="1" transform="translate(235.5,0)"><line stroke="currentColor" y2="6"></line><text fill="currentColor" y="9" dy="0.71em">2002</text></g><g class="tick" opacity="1" transform="translate(287.16666666666663,0)"><line stroke="currentColor" y2="6"></line><text fill="currentColor" y="9" dy="0.71em">2004</text></g><g class="tick" opacity="1" transform="translate(338.83333333333337,0)"><line stroke="currentColor" y2="6"></line><text fill="currentColor" y="9" dy="0.71em">2006</text></g><g class="tick" opacity="1" transform="translate(390.5,0)"><line stroke="currentColor" y2="6"></line><text fill="currentColor" y="9" dy="0.71em">2008</text></g><g class="tick" opacity="1" transform="translate(442.1666666666667,0)"><line stroke="currentColor" y2="6"></line><text fill="currentColor" y="9" dy="0.71em">2010</text></g><g class="tick" opacity="1" transform="translate(493.8333333333333,0)"><line stroke="currentColor" y2="6"></line><text fill="currentColor" y="9" dy="0.71em">2012</text></g><g class="tick" opacity="1" transform="translate(545.5,0)"><line stroke="currentColor" y2="6"></line><text fill="currentColor" y="9" dy="0.71em">2014</text></g><g class="tick" opacity="1" transform="translate(597.1666666666667,0)"><line stroke="currentColor" y2="6"></line><text fill="currentColor" y="9" dy="0.71em">2016</text></g><g class="tick" opacity="1" transform="translate(648.8333333333333,0)"><line stroke="currentColor" y2="6"></line><text fill="currentColor" y="9" dy="0.71em">2018</text></g><g class="tick" opacity="1" transform="translate(700.5,0)"><line stroke="currentColor" y2="6"></line><text fill="currentColor" y="9" dy="0.71em">2020</text></g></g><g transform="translate(80,0)" fill="none" font-size="10" font-family="sans-serif" text-anchor="end"><g class="tick" opacity="1" transform="translate(0,440.5)"><line stroke="currentColor" x2="-6"></line><text fill="currentColor" x="-9" dy="0.32em">0k</text></g><g class="tick" opacity="1" transform="translate(0,398.27777777777777)"><line stroke="currentColor" x2="-6"></line><text fill="currentColor" x="-9" dy="0.32em">1k</text></g><g class="tick" opacity="1" transform="translate(0,356.05555555555554)"><line stroke="currentColor" x2="-6"></line><text fill="currentColor" x="-9" dy="0.32em">2k</text></g><g class="tick" opacity="1" transform="translate(0,313.83333333333337)"><line stroke="currentColor" x2="-6"></line><text fill="currentColor" x="-9" dy="0.32em">3k</text></g><g class="tick" opacity="1" transform="translate(0,271.61111111111114)"><line stroke="currentColor" x2="-6"></line><text fill="currentColor" x="-9" dy="0.32em">4k</text></g><g class="tick" opacity="1" transform="translate(0,229.38888888888889)"><line stroke="currentColor" x2="-6"></line><text fill="currentColor" x="-9" dy="0.32em">5k</text></g><g class="tick" opacity="1" transform="translate(0,187.16666666666669)"><line stroke="currentColor" x2="-6"></line><text fill="currentColor" x="-9" dy="0.32em">6k</text></g><g class="tick" opacity="1" transform="translate(0,144.94444444444443)"><line stroke="currentColor" x2="-6"></line><text fill="currentColor" x="-9" dy="0.32em">7k</text></g><g class="tick" opacity="1" transform="translate(0,102.72222222222224)"><line stroke="currentColor" x2="-6"></line><text fill="currentColor" x="-9" dy="0.32em">8k</text></g><g class="tick" opacity="1" transform="translate(0,60.5)"><line stroke="currentColor" x2="-6"></line><text fill="currentColor" x="-9" dy="0.32em">9k</text></g></g><g stroke="steelblue" stroke-width="1.5" fill="none"><circle cx="80" cy="180.96666666666667" r="3"></circle><circle cx="105.83333333333334" cy="265.2422222222222" r="3"></circle><circle cx="131.66666666666666" cy="193.8866666666667" r="3"></circle><circle cx="157.5" cy="224.20222222222222" r="3"></circle><circle cx="183.33333333333331" cy="158.33555555555554" r="3"></circle><circle cx="209.16666666666669" cy="218.88222222222223" r="3"></circle><circle cx="235" cy="122.91111111111111" r="3"></circle><circle cx="260.83333333333337" cy="138.32222222222222" r="3"></circle><circle cx="286.66666666666663" cy="65.48888888888891" r="3"></circle><circle cx="312.5" cy="190.93111111111108" r="3"></circle><circle cx="338.33333333333337" cy="201.06444444444443" r="3"></circle><circle cx="364.16666666666663" cy="206.68" r="3"></circle><circle cx="390" cy="203.26" r="3"></circle><circle cx="415.8333333333333" cy="259.24666666666667" r="3"></circle><circle cx="441.6666666666667" cy="280.82222222222225" r="3"></circle><circle cx="467.5" cy="318.8222222222222" r="3"></circle><circle cx="493.3333333333333" cy="366.49111111111114" r="3"></circle><circle cx="519.1666666666667" cy="340.94666666666666" r="3"></circle><circle cx="545" cy="360.32666666666665" r="3"></circle><circle cx="570.8333333333333" cy="349.09555555555556" r="3"></circle><circle cx="596.6666666666667" cy="313.6711111111111" r="3"></circle><circle cx="622.5" cy="337.2733333333333" r="3"></circle></g></g></svg>