<svg xmlns="http://www.w3.org/2000/svg" width="720" height="540" viewBox="0,0,720,540"><g fill="none" stroke-linecap="round"><rect width="720" height="540" fill="#ffffff"></rect><g transform="translate(0,510)" fill="none" font-size="10" font-family="sans-serif" text-anchor="middle"><path class="domain" stroke="currentColor" d="M40.5,6V0.5H700.5V6"></path><g class="tick" opacity="1" transform="translate(40.5,0)"><line stroke="currentColor" y2="6"></line><text fill="currentColor" y="9" dy="0.71em">1996</text></g><g class="tick" opacity="1" transform="translate(95.5,0)"><line stroke="currentColor" y2="6"></line><text fill="currentColor" y="9" dy="0.71em">1998</text></g><g class="tick" opacity="1" transform="translate(150.5,0)"><line stroke="currentColor" y2="6"></line><text fill="currentColor" y="9" dy="0.71em">2000</text></g><g class="tick" opacity="1" transform="translate(205.5,0)"><line stroke="currentColor" y2="6"></line><text fill="currentColor" y="9" dy="0.71em">2002</text></g><g class="tick" opacity="1" transform="translate(260.5,0)"><line stroke="currentColor" y2="6"></line><text fill="currentColor" y="9" dy="0.71em">2004</text></g><g class="tick" opacity="1" transform="translate(315.5,0)"><line stroke="currentColor" y2="6"></line><text fill="currentColor" y="9" dy="0.71em">2006</text></g><g class="tick" opacity="1" transform="translate(370.5,0)"><line stroke="currentColor" y2="6"></line><text fill="currentColor" y="9" dy="0.71em">2008</text></g><g class="tick" opacity="1" transform="translate(425.50000000000006,0)"><line stroke="currentColor" y2="6"></line><text fill="currentColor" y="9" dy="0.71em">2010</text></g><g class="tick" opacity="1" transform="translate(480.49999999999994,0)"><line stroke="currentColor" y2="6"></line><text fill="currentColor" y="9" dy="0.71em">2012</text></g><g class="tick" opacity="1" transform="translate(535.5,0)"><line stroke="currentColor" y2="6"></line><text fill="currentColor" y="9" dy="0.71em">2014</text></g><g class="tick" opacity="1" transform="translate(590.5,0)"><line stroke="currentColor" y2="6"></line><text fill="currentColor" y="9" dy="0.71em">2016</text></g><g class="tick" opacity="1" transform="translate(645.5,0)"><line stroke="currentColor" y2="6"></line><text fill="currentColor" y="9" dy="0.71em">2018</text></g><g class="tick" opacity="1" transform="translate(700.5,0)"><line stroke="currentColor" y2="6"></line><text fill="currentColor" y="9" dy="0.71em">2020</text></g></g><g transform="translate(40,0)" fill="none" font-size="10" font-family="sans-serif" text-anchor="end"><path class="domain" stroke="currentColor" d="M-6,510.5H0.5V20.5H-6"></path><g class="tick" opacity="1" transform="translate(0,510.5)"><line stroke="currentColor" x2="-6"></line><text fill="currentColor" x="-9" dy="0.32em">0.0k</text></g><g class="tick" opacity="1" transform="translate(0,476.984268125855)"><line stroke="currentColor" x2="-6"></line><text fill="currentColor" x="-9" dy="0.32em">0.2k</text></g><g class="tick" opacity="1" transform="translate(0,443.46853625170996)"><line stroke="currentColor" x2="-6"></line><text fill="currentColor" x="-9" dy="0.32em">0.4k</text></g><g class="tick" opacity="1" transform="translate(0,409.952804377565)"><line stroke="currentColor" x2="-6"></line><text fill="currentColor" x="-9" dy="0.32em">0.6k</text></g><g class="tick" opacity="1" transform="translate(0,376.43707250342)"><line stroke="currentColor" x2="-6"></line><text fill="currentColor" x="-9" dy="0.32em">0.8k</text></g><g class="tick" opacity="1" transform="translate(0,342.921340629275)"><line stroke="currentColor" x2="-6"></line><text fill="currentColor" x="-9" dy="0.32em">1.0k</text></g><g class="tick" opacity="1" transform="translate(0,309.4056087551299)"><line stroke="currentColor" x2="-6"></line><text fill="currentColor" x="-9" dy="0.32em">1.2k</text></g><g class="tick" opacity="1" transform="translate(0,275.88987688098496)"><line stroke="currentColor" x2="-6"></line><text fill="currentColor" x="-9" dy="0.32em">1.4k</text></g><g class="tick" opacity="1" transform="translate(0,242.37414500683997)"><line stroke="currentColor" x2="-6"></line><text fill="currentColor" x="-9" dy="0.32em">1.6k</text></g><g class="tick" opacity="1" transform="translate(0,208.85841313269495)"><line stroke="currentColor" x2="-6"></line><text fill="currentColor" x="-9" dy="0.32em">1.8k</text></g><g class="tick" opacity="1" transform="translate(0,175.3426812585499)"><line stroke="currentColor" x2="-6"></line><text fill="currentColor" x="-9" dy="0.32em">2.0k</text></g><g class="tick" opacity="1" transform="translate(0,141.8269493844049)"><line stroke="currentColor" x2="-6"></line><text fill="currentColor" x="-9" dy="0.32em">2.2k</text></g><g class="tick" opacity="1" transform="translate(0,108.31121751025992)"><line stroke="currentColor" x2="-6"></line><text fill="currentColor" x="-9" dy="0.32em">2.4k</text></g><g class="tick" opacity="1" transform="translate(0,74.79548563611493)"><line stroke="currentColor" x2="-6"></line><text fill="currentColor" x="-9" dy="0.32em">2.6k</text></g><g class="tick" opacity="1" transform="translate(0,41.279753761969886)"><line stroke="currentColor" x2="-6"></line><text fill="currentColor" x="-9" dy="0.32em">2.8k</text></g></g><g stroke="steelblue" stroke-width="1.5" fill="none"><circle cx="40" cy="510" r="3"></circle><circle cx="67.5" cy="20" r="3"></circle><circle cx="95" cy="20" r="3"></circle><circle cx="122.5" cy="20" r="3"></circle><circle cx="150" cy="20" r="3"></circle><circle cx="177.5" cy="465.2564979480164" r="3"></circle><circle cx="205" cy="465.2564979480164" r="3"></circle><circle cx="232.5" cy="465.2564979480164" r="3"></circle><circle cx="260" cy="366.0499316005472" r="3"></circle><circle cx="287.5" cy="366.0499316005472" r="3"></circle><circle cx="315" cy="366.0499316005472" r="3"></circle><circle cx="342.5" cy="450.84473324213405" r="3"></circle><circle cx="370" cy="450.84473324213405" r="3"></circle><circle cx="397.49999999999994" cy="450.84473324213405" r="3"></circle><circle cx="425.00000000000006" cy="499.61012311901504" r="3"></circle><circle cx="452.5" cy="499.61012311901504" r="3"></circle><circle cx="479.99999999999994" cy="470.95417236662104" r="3"></circle><circle cx="507.50000000000006" cy="487.8796169630643" r="3"></circle><circle cx="535" cy="475.81395348837214" r="3"></circle><circle cx="562.5" cy="396.2140902872777" r="3"></circle><circle cx="590" cy="498.7722298221614" r="3"></circle><circle cx="617.5" cy="477.32216142270863" r="3"></circle></g></g></svg>