<svg xmlns="http://www.w3.org/2000/svg" width="720" height="540" viewBox="0,0,720,540"><g fill="none" stroke-linecap="round"><rect width="720" height="540" fill="#ffffff"></rect><g transform="translate(0,510)" fill="none" font-size="10" font-family="sans-serif" text-anchor="middle"><path class="domain" stroke="currentColor" d="M40.5,6V0.5H700.5V6"></path><g class="tick" opacity="1" transform="translate(40.5,0)"><line stroke="currentColor" y2="6"></line><text fill="currentColor" y="9" dy="0.71em">1996</text></g><g class="tick" opacity="1" transform="translate(95.5,0)"><line stroke="currentColor" y2="6"></line><text fill="currentColor" y="9" dy="0.71em">1998</text></g><g class="tick" opacity="1" transform="translate(150.5,0)"><line stroke="currentColor" y2="6"></line><text fill="currentColor" y="9" dy="0.71em">2000</text></g><g class="tick" opacity="1" transform="translate(205.5,0)"><line stroke="currentColor" y2="6"></line><text fill="currentColor" y="9" dy="0.71em">2002</text></g><g class="tick" opacity="1" transform="translate(260.5,0)"><line stroke="currentColor" y2="6"></line><text fill="currentColor" y="9" dy="0.71em">2004</text></g><g class="tick" opacity="1" transform="translate(315.5,0)"><line stroke="currentColor" y2="6"></line><text fill="currentColor" y="9" dy="0.71em">2006</text></g><g class="tick" opacity="1" transform="translate(370.5,0)"><line stroke="currentColor" y2="6"></line><text fill="currentColor" y="9" dy="0.71em">2008</text></g><g class="tick" opacity="1" transform="translate(425.50000000000006,0)"><line stroke="currentColor" y2="6"></line><text fill="currentColor" y="9" dy="0.71em">2010</text></g><g class="tick" opacity="1" transform="translate(480.49999999999994,0)"><line stroke="currentColor" y2="6"></line><text fill="currentColor" y="9" dy="0.71em">2012</text></g><g class="tick" opacity="1" transform="translate(535.5,0)"><line stroke="currentColor" y2="6"></line><text fill="currentColor" y="9" dy="0.71em">2014</text></g><g class="tick" opacity="1" transform="translate(590.5,0)"><line stroke="currentColor" y2="6"></line><text fill="currentColor" y="9" dy="0.71em">2016</text></g><g class="tick" opacity="1" transform="translate(645.5,0)"><line stroke="currentColor" y2="6"></line><text fill="currentColor" y="9" dy="0.71em">2018</text></g><g class="tick" opacity="1" transform="translate(700.5,0)"><line stroke="currentColor" y2="6"></line><text fill="currentColor" y="9" dy="0.71em">2020</text></g></g><g transform="translate(40,0)" fill="none" font-size="10" font-family="sans-serif" text-anchor="end"><path class="domain" stroke="currentColor" d="M-6,510.5H0.5V20.5H-6"></path><g class="tick" opacity="1" transform="translate(0,510.5)"><line stroke="currentColor" x2="-6"></line><text fill="currentColor" x="-9" dy="0.32em">0</text></g><g class="tick" opacity="1" transform="translate(0,474.9927536231884)"><line stroke="currentColor" x2="-6"></line><text fill="currentColor" x="-9" dy="0.32em">20</text></g><g class="tick" opacity="1" transform="translate(0,439.4855072463768)"><line stroke="currentColor" x2="-6"></line><text fill="currentColor" x="-9" dy="0.32em">40</text></g><g class="tick" opacity="1" transform="translate(0,403.9782608695652)"><line stroke="currentColor" x2="-6"></line><text fill="currentColor" x="-9" dy="0.32em">60</text></g><g class="tick" opacity="1" transform="translate(0,368.4710144927537)"><line stroke="currentColor" x2="-6"></line><text fill="currentColor" x="-9" dy="0.32em">80</text></g><g class="tick" opacity="1" transform="translate(0,332.963768115942)"><line stroke="currentColor" x2="-6"></line><text fill="currentColor" x="-9" dy="0.32em">100</text></g><g class="tick" opacity="1" transform="translate(0,297.4565217391305)"><line stroke="currentColor" x2="-6"></line><text fill="currentColor" x="-9" dy="0.32em">120</text></g><g class="tick" opacity="1" transform="translate(0,261.9492753623188)"><line stroke="currentColor" x2="-6"></line><text fill="currentColor" x="-9" dy="0.32em">140</text></g><g class="tick" opacity="1" transform="translate(0,226.44202898550722)"><line stroke="currentColor" x2="-6"></line><text fill="currentColor" x="-9" dy="0.32em">160</text></g><g class="tick" opacity="1" transform="translate(0,190.93478260869566)"><line stroke="currentColor" x2="-6"></line><text fill="currentColor" x="-9" dy="0.32em">180</text></g><g class="tick" opacity="1" transform="translate(0,155.42753623188406)"><line stroke="currentColor" x2="-6"></line><text fill="currentColor" x="-9" dy="0.32em">200</text></g><g class="tick" opacity="1" transform="translate(0,119.92028985507247)"><line stroke="currentColor" x2="-6"></line><text fill="currentColor" x="-9" dy="0.32em">220</text></g><g class="tick" opacity="1" transform="translate(0,84.41304347826087)"><line stroke="currentColor" x2="-6"></line><text fill="currentColor" x="-9" dy="0.32em">240</text></g><g class="tick" opacity="1" transform="translate(0,48.905797101449295)"><line stroke="currentColor" x2="-6"></line><text fill="currentColor" x="-9" dy="0.32em">260</text></g></g><g stroke="steelblue" stroke-width="1.5" fill="none"><circle cx="40" r="3"></circle><circle cx="67.5" r="3"></circle><circle cx="95" r="3"></circle><circle cx="122.5" r="3"></circle><circle cx="150" r="3"></circle><circle cx="177.5" cy="316.4855072463768" r="3"></circle><circle cx="205" cy="327.13768115942025" r="3"></circle><circle cx="232.5" cy="259.67391304347825" r="3"></circle><circle cx="260" cy="348.44202898550725" r="3"></circle><circle cx="287.5" cy="41.30434782608694" r="3"></circle><circle cx="315" cy="355.5434782608695" r="3"></circle><circle cx="342.5" cy="302.28260869565213" r="3"></circle><circle cx="370" cy="206.41304347826087" r="3"></circle><circle cx="397.49999999999994" cy="66.15942028985506" r="3"></circle><circle cx="425.00000000000006" cy="192.21014492753625" r="3"></circle><circle cx="452.5" cy="169.13043478260872" r="3"></circle><circle cx="479.99999999999994" cy="96.34057971014494" r="3"></circle><circle cx="507.50000000000006" cy="140.7246376811594" r="3"></circle><circle cx="535" cy="20" r="3"></circle><circle cx="562.5" cy="103.44202898550725" r="3"></circle><circle cx="590" cy="186.88405797101447" r="3"></circle><circle cx="617.5" r="3"></circle></g></g></svg>