<svg xmlns="http://www.w3.org/2000/svg" width="720" height="540" viewBox="0,0,720,540"><g fill="none" stroke-linecap="round"><rect width="720" height="540" fill="#ffffff"></rect><g transform="translate(0,440)" fill="none" font-size="10" font-family="sans-serif" text-anchor="middle"><path class="domain" stroke="currentColor" d="M80.5,6V0.5H700.5V6"></path><g class="tick" opacity="1" transform="translate(80.5,0)"><line stroke="currentColor" y2="6"></line><text fill="currentColor" y="9" dy="0.71em">1996</text></g><g class="tick" opacity="1" transform="translate(132.16666666666666,0)"><line stroke="currentColor" y2="6"></line><text fill="currentColor" y="9" dy="0.71em">1998</text></g><g class="tick" opacity="1" transform="translate(183.83333333333331,0)"><line stroke="currentColor" y2="6"></line><text fill="currentColor" y="9" dy="0.71em">2000</text></g><g class="tick" opacity="1" transform="translate(235.5,0)"><line stroke="currentColor" y2="6"></line><text fill="currentColor" y="9" dy="0.71em">2002</text></g><g class="tick" opacity="1" transform="translate(287.16666666666663,0)"><line stroke="currentColor" y2="6"></line><text fill="currentColor" y="9" dy="0.71em">2004</text></g><g class="tick" opacity="1" transform="translate(338.83333333333337,0)"><line stroke="currentColor" y2="6"></line><text fill="currentColor" y="9" dy="0.71em">2006</text></g><g class="tick" opacity="1" transform="translate(390.5,0)"><line stroke="currentColor" y2="6"></line><text fill="currentColor" y="9" dy="0.71em">2008</text></g><g class="tick" opacity="1" transform="translate(442.1666666666667,0)"><line stroke="currentColor" y2="6"></line><text fill="currentColor" y="9" dy="0.71em">2010</text></g><g class="tick" opacity="1" transform="translate(493.8333333333333,0)"><line stroke="currentColor" y2="6"></line><text fill="currentColor" y="9" dy="0.71em">2012</text></g><g class="tick" opacity="1" transform="translate(545.5,0)"><line stroke="currentColor" y2="6"></line><text fill="currentColor" y="9" dy="0.71em">2014</text></g><g class="tick" opacity="1" transform="translate(597.1666666666667,0)"><line stroke="currentColor" y2="6"></line><text fill="currentColor" y="9" dy="0.71em">2016</text></g><g class="tick" opacity="1" transform="translate(648.8333333333333,0)"><line stroke="currentColor" y2="6"></line><text fill="currentColor" y="9" dy="0.71em">2018</text></g><g class="tick" opacity="1" transform="translate(700.5,0)"><line stroke="currentColor" y2="6"></line><text fill="currentColor" y="9" dy="0.71em">2020</text></g></g><g transform="translate(80,0)" fill="none" font-size="10" font-family="sans-serif" text-anchor="end"><g class="tick" opacity="1" transform="translate(0,440.5)"><line stroke="currentColor" x2="-6"></line><text fill="currentColor" x="-9" dy="0.32em">0.0k</text></g><g class="tick" opacity="1" transform="translate(0,405.95454545454544)"><line stroke="currentColor" x2="-6"></line><text fill="currentColor" x="-9" dy="0.32em">0.2k</text></g><g class="tick" opacity="1" transform="translate(0,371.40909090909093)"><line stroke="currentColor" x2="-6"></line><text fill="currentColor" x="-9" dy="0.32em">0.4k</text></g><g class="tick" opacity="1" transform="translate(0,336.8636363636364)"><line stroke="currentColor" x2="-6"></line><text fill="currentColor" x="-9" dy="0.32em">0.6k</text></g><g class="tick" opacity="1" transform="translate(0,302.3181818181818)"><line stroke="currentColor" x2="-6"></line><text fill="currentColor" x="-9" dy="0.32em">0.8k</text></g><g class="tick" opacity="1" transform="translate(0,267.77272727272725)"><line stroke="currentColor" x2="-6"></line><text fill="currentColor" x="-9" dy="0.32em">1.0k</text></g><g class="tick" opacity="1" transform="translate(0,233.22727272727275)"><line stroke="currentColor" x2="-6"></line><text fill="currentColor" x="-9" dy="0.32em">1.2k</text></g><g class="tick" opacity="1" transform="translate(0,198.6818181818182)"><line stroke="currentColor" x2="-6"></line><text fill="currentColor" x="-9" dy="0.32em">1.4k</text></g><g class="tick" opacity="1" transform="translate(0,164.13636363636363)"><line stroke="currentColor" x2="-6"></line><text fill="currentColor" x="-9" dy="0.32em">1.6k</text></g><g class="tick" opacity="1" transform="translate(0,129.59090909090907)"><line stroke="currentColor" x2="-6"></line><text fill="currentColor" x="-9" dy="0.32em">1.8k</text></g><g class="tick" opacity="1" transform="translate(0,95.04545454545456)"><line stroke="currentColor" x2="-6"></line><text fill="currentColor" x="-9" dy="0.32em">2.0k</text></g><g class="tick" opacity="1" transform="translate(0,60.5)"><line stroke="currentColor" x2="-6"></line><text fill="currentColor" x="-9" dy="0.32em">2.2k</text></g></g><g stroke="steelblue" stroke-width="1.5" fill="none"><circle cx="80" cy="423.9363636363637" r="3"></circle><circle cx="105.83333333333334" cy="64.31818181818181" r="3"></circle><circle cx="131.66666666666666" cy="64.31818181818181" r="3"></circle><circle cx="157.5" cy="64.31818181818181" r="3"></circle><circle cx="183.33333333333331" cy="64.31818181818181" r="3"></circle><circle cx="209.16666666666669" cy="276.77272727272725" r="3"></circle><circle cx="235" cy="276.77272727272725" r="3"></circle><circle cx="260.83333333333337" cy="276.77272727272725" r="3"></circle><circle cx="286.66666666666663" cy="325.6545454545455" r="3"></circle><circle cx="312.5" cy="325.6545454545455" r="3"></circle><circle cx="338.33333333333337" cy="325.6545454545455" r="3"></circle><circle cx="364.16666666666663" cy="331.00909090909084" r="3"></circle><circle cx="390" cy="331.00909090909084" r="3"></circle><circle cx="415.8333333333333" cy="331.00909090909084" r="3"></circle><circle cx="441.6666666666667" cy="266.40909090909093" r="3"></circle><circle cx="467.5" cy="266.40909090909093" r="3"></circle><circle cx="493.3333333333333" cy="267.6181818181818" r="3"></circle><circle cx="519.1666666666667" cy="314.77272727272725" r="3"></circle><circle cx="545" cy="380.23636363636365" r="3"></circle><circle cx="570.8333333333333" cy="335.1545454545455" r="3"></circle><circle cx="596.6666666666667" cy="233.93636363636364" r="3"></circle><circle cx="622.5" cy="234.45454545454544" r="3"></circle></g></g></svg>