<svg xmlns="http://www.w3.org/2000/svg" width="720" height="540" viewBox="0,0,720,540"><g fill="none" stroke-linecap="round"><rect width="720" height="540" fill="#ffffff"></rect><g transform="translate(0,440)" fill="none" font-size="10" font-family="sans-serif" text-anchor="middle"><path class="domain" stroke="currentColor" d="M80.5,6V0.5H700.5V6"></path><g class="tick" opacity="1" transform="translate(80.5,0)"><line stroke="currentColor" y2="6"></line><text fill="currentColor" y="9" dy="0.71em">1996</text></g><g class="tick" opacity="1" transform="translate(132.16666666666666,0)"><line stroke="currentColor" y2="6"></line><text fill="currentColor" y="9" dy="0.71em">1998</text></g><g class="tick" opacity="1" transform="translate(183.83333333333331,0)"><line stroke="currentColor" y2="6"></line><text fill="currentColor" y="9" dy="0.71em">2000</text></g><g class="tick" opacity="1" transform="translate(235.5,0)"><line stroke="currentColor" y2="6"></line><text fill="currentColor" y="9" dy="0.71em">2002</text></g><g class="tick" opacity="1" transform="translate(287.16666666666663,0)"><line stroke="currentColor" y2="6"></line><text fill="currentColor" y="9" dy="0.71em">2004</text></g><g class="tick" opacity="1" transform="translate(338.83333333333337,0)"><line stroke="currentColor" y2="6"></line><text fill="currentColor" y="9" dy="0.71em">2006</text></g><g class="tick" opacity="1" transform="translate(390.5,0)"><line stroke="currentColor" y2="6"></line><text fill="currentColor" y="9" dy="0.71em">2008</text></g><g class="tick" opacity="1" transform="translate(442.1666666666667,0)"><line stroke="currentColor" y2="6"></line><text fill="currentColor" y="9" dy="0.71em">2010</text></g><g class="tick" opacity="1" transform="translate(493.8333333333333,0)"><line stroke="currentColor" y2="6"></line><text fill="currentColor" y="9" dy="0.71em">2012</text></g><g class="tick" opacity="1" transform="translate(545.5,0)"><line stroke="currentColor" y2="6"></line><text fill="currentColor" y="9" dy="0.71em">2014</text></g><g class="tick" opacity="1" transform="translate(597.1666666666667,0)"><line stroke="currentColor" y2="6"></line><text fill="currentColor" y="9" dy="0.71em">2016</text></g><g class="tick" opacity="1" transform="translate(648.8333333333333,0)"><line stroke="currentColor" y2="6"></line><text fill="currentColor" y="9" dy="0.71em">2018</text></g><g class="tick" opacity="1" transform="translate(700.5,0)"><line stroke="currentColor" y2="6"></line><text fill="currentColor" y="9" dy="0.71em">2020</text></g></g><g transform="translate(80,0)" fill="none" font-size="10" font-family="sans-serif" text-anchor="end"><g class="tick" opacity="1" transform="translate(0,440.5)"><line stroke="currentColor" x2="-6"></line><text fill="currentColor" x="-9" dy="0.32em">0</text></g><g class="tick" opacity="1" transform="translate(0,386.2142857142857)"><line stroke="currentColor" x2="-6"></line><text fill="currentColor" x="-9" dy="0.32em">50</text></g><g class="tick" opacity="1" transform="translate(0,331.92857142857144)"><line stroke="currentColor" x2="-6"></line><text fill="currentColor" x="-9" dy="0.32em">100</text></g><g class="tick" opacity="1" transform="translate(0,277.6428571428571)"><line stroke="currentColor" x2="-6"></line><text fill="currentColor" x="-9" dy="0.32em">150</text></g><g class="tick" opacity="1" transform="translate(0,223.35714285714286)"><line stroke="currentColor" x2="-6"></line><text fill="currentColor" x="-9" dy="0.32em">200</text></g><g class="tick" opacity="1" transform="translate(0,169.07142857142856)"><line stroke="currentColor" x2="-6"></line><text fill="currentColor" x="-9" dy="0.32em">250</text></g><g class="tick" opacity="1" transform="translate(0,114.7857142857143)"><line stroke="currentColor" x2="-6"></line><text fill="currentColor" x="-9" dy="0.32em">300</text></g><g class="tick" opacity="1" transform="translate(0,60.5)"><line stroke="currentColor" x2="-6"></line><text fill="currentColor" x="-9" dy="0.32em">350</text></g></g><line x1="570.8333333333333" y1="73.02857142857141" x2="80" y2="73.02857142857141" style="stroke: steelblue; stroke-width: 2;"></line><line x1="570.8333333333333" y1="73.02857142857141" x2="700" y2="366.1714285714286" style="stroke: green; stroke-width: 2;"></line><path fill="none" stroke="black" stroke-width="2.5" stroke-linejoin="round" stroke-linecap="round" d="M80,149.02857142857144C80,149.02857142857144,97.22222222222221,149.02857142857144,105.83333333333334,149.02857142857144C114.44444444444446,149.02857142857144,123.05555555555554,149.02857142857144,131.66666666666666,149.02857142857144C140.27777777777774,149.02857142857144,148.88888888888889,149.02857142857144,157.5,149.02857142857144C166.11111111111111,149.02857142857144,174.7222222222222,149.02857142857144,183.33333333333331,149.02857142857144C191.94444444444443,149.02857142857144,201.8335323541222,154.00921709040415,209.16666666666669,149.02857142857144C221.24455079871032,140.82530408850982,222.92211586795642,92.08898162577587,235,83.88571428571427C242.33313431254447,78.90506862388158,252.2222222222223,83.88571428571429,260.83333333333337,83.88571428571427C269.4444444444445,83.88571428571427,278.0555555555556,83.88571428571427,286.66666666666663,83.88571428571427C295.2777777777778,83.88571428571429,305.3137418338126,77.41933558345919,312.5,83.88571428571427C334.6599657160345,103.82581761001407,328.1904771643963,327.78053450612026,338.33333333333337,328.1714285714286C346.0563820126194,328.46906602625774,347.41498288938936,202.0587195418929,364.16666666666663,188.11428571428573C371.3011691254855,182.1753843624796,381.3888888888889,188.11428571428573,390,188.11428571428573C398.6111111111111,188.1142857142857,407.22222222222223,188.1142857142857,415.8333333333333,188.11428571428573C424.44444444444446,188.11428571428573,433.06312049011433,187.75333532173818,441.6666666666667,188.11428571428573C450.2853693895401,188.47587197967357,458.8812972771267,189.9241280203264,467.5,190.28571428571428C476.10354617655236,190.64666467826186,484.7222222222222,190.28571428571428,493.3333333333333,190.28571428571428C501.9444444444443,190.28571428571425,510.55555555555566,190.28571428571428,519.1666666666667,190.28571428571428C527.7777777777777,190.28571428571425,536.3888888888889,190.28571428571428,545,190.28571428571428C553.6111111111111,190.28571428571428,570.8333333333333,190.28571428571428,570.8333333333333,190.28571428571428"></path><g fill="#ffffff"><circle cx="80" cy="149.02857142857144" r="8"></circle><circle cx="105.83333333333334" cy="149.02857142857144" r="8"></circle><circle cx="131.66666666666666" cy="149.02857142857144" r="8"></circle><circle cx="157.5" cy="149.02857142857144" r="8"></circle><circle cx="183.33333333333331" cy="149.02857142857144" r="8"></circle><circle cx="209.16666666666669" cy="149.02857142857144" r="8"></circle><circle cx="235" cy="83.88571428571427" r="8"></circle><circle cx="260.83333333333337" cy="83.88571428571427" r="8"></circle><circle cx="286.66666666666663" cy="83.88571428571427" r="8"></circle><circle cx="312.5" cy="83.88571428571427" r="8"></circle><circle cx="338.33333333333337" cy="328.1714285714286" r="8"></circle><circle cx="364.16666666666663" cy="188.11428571428573" r="8"></circle><circle cx="390" cy="188.11428571428573" r="8"></circle><circle cx="415.8333333333333" cy="188.11428571428573" r="8"></circle><circle cx="441.6666666666667" cy="188.11428571428573" r="8"></circle><circle cx="467.5" cy="190.28571428571428" r="8"></circle><circle cx="493.3333333333333" cy="190.28571428571428" r="8"></circle><circle cx="519.1666666666667" cy="190.28571428571428" r="8"></circle><circle cx="545" cy="190.28571428571428" r="8"></circle><circle cx="570.8333333333333" cy="190.28571428571428" r="8"></circle></g><g stroke="steelblue" stroke-width="2" fill="none"><circle cx="80" cy="149.02857142857144" r="4"></circle><circle cx="105.83333333333334" cy="149.02857142857144" r="4"></circle><circle cx="131.66666666666666" cy="149.02857142857144" r="4"></circle><circle cx="157.5" cy="149.02857142857144" r="4"></circle><circle cx="183.33333333333331" cy="149.02857142857144" r="4"></circle><circle cx="209.16666666666669" cy="149.02857142857144" r="4"></circle><circle cx="235" cy="83.88571428571427" r="4"></circle><circle cx="260.83333333333337" cy="83.88571428571427" r="4"></circle><circle cx="286.66666666666663" cy="83.88571428571427" r="4"></circle><circle cx="312.5" cy="83.88571428571427" r="4"></circle><circle cx="338.33333333333337" cy="328.1714285714286" r="4"></circle><circle cx="364.16666666666663" cy="188.11428571428573" r="4"></circle><circle cx="390" cy="188.11428571428573" r="4"></circle><circle cx="415.8333333333333" cy="188.11428571428573" r="4"></circle><circle cx="441.6666666666667" cy="188.11428571428573" r="4"></circle><circle cx="467.5" cy="190.28571428571428" r="4"></circle><circle cx="493.3333333333333" cy="190.28571428571428" r="4"></circle><circle cx="519.1666666666667" cy="190.28571428571428" r="4"></circle><circle cx="545" cy="190.28571428571428" r="4"></circle><circle cx="570.8333333333333" cy="190.28571428571428" r="4"></circle></g><path transform="translate(700,366.1714285714286)" d="M0,-14.71415478191356L8.495221224235612,0L0,14.71415478191356L-8.495221224235612,0Z" fill="#ffffff"></path><path transform="translate(700,366.1714285714286)" d="M0,-11.397535284773888L6.5803700647624614,0L0,11.397535284773888L-6.5803700647624614,0Z" fill="#33cc33"></path></g></svg>