<svg xmlns="http://www.w3.org/2000/svg" width="720" height="540" viewBox="0,0,720,540"><g fill="none" stroke-linecap="round"><rect width="720" height="540" fill="#ffffff"></rect><g transform="translate(0,440)" fill="none" font-size="10" font-family="sans-serif" text-anchor="middle"><path class="domain" stroke="currentColor" d="M80.5,6V0.5H700.5V6"></path><g class="tick" opacity="1" transform="translate(80.5,0)"><line stroke="currentColor" y2="6"></line><text fill="currentColor" y="9" dy="0.71em">1996</text></g><g class="tick" opacity="1" transform="translate(132.16666666666666,0)"><line stroke="currentColor" y2="6"></line><text fill="currentColor" y="9" dy="0.71em">1998</text></g><g class="tick" opacity="1" transform="translate(183.83333333333331,0)"><line stroke="currentColor" y2="6"></line><text fill="currentColor" y="9" dy="0.71em">2000</text></g><g class="tick" opacity="1" transform="translate(235.5,0)"><line stroke="currentColor" y2="6"></line><text fill="currentColor" y="9" dy="0.71em">2002</text></g><g class="tick" opacity="1" transform="translate(287.16666666666663,0)"><line stroke="currentColor" y2="6"></line><text fill="currentColor" y="9" dy="0.71em">2004</text></g><g class="tick" opacity="1" transform="translate(338.83333333333337,0)"><line stroke="currentColor" y2="6"></line><text fill="currentColor" y="9" dy="0.71em">2006</text></g><g class="tick" opacity="1" transform="translate(390.5,0)"><line stroke="currentColor" y2="6"></line><text fill="currentColor" y="9" dy="0.71em">2008</text></g><g class="tick" opacity="1" transform="translate(442.1666666666667,0)"><line stroke="currentColor" y2="6"></line><text fill="currentColor" y="9" dy="0.71em">2010</text></g><g class="tick" opacity="1" transform="translate(493.8333333333333,0)"><line stroke="currentColor" y2="6"></line><text fill="currentColor" y="9" dy="0.71em">2012</text></g><g class="tick" opacity="1" transform="translate(545.5,0)"><line stroke="currentColor" y2="6"></line><text fill="currentColor" y="9" dy="0.71em">2014</text></g><g class="tick" opacity="1" transform="translate(597.1666666666667,0)"><line stroke="currentColor" y2="6"></line><text fill="currentColor" y="9" dy="0.71em">2016</text></g><g class="tick" opacity="1" transform="translate(648.8333333333333,0)"><line stroke="currentColor" y2="6"></line><text fill="currentColor" y="9" dy="0.71em">2018</text></g><g class="tick" opacity="1" transform="translate(700.5,0)"><line stroke="currentColor" y2="6"></line><text fill="currentColor" y="9" dy="0.71em">2020</text></g></g><g transform="translate(80,0)" fill="none" font-size="10" font-family="sans-serif" text-anchor="end"><g class="tick" opacity="1" transform="translate(0,440.5)"><line stroke="currentColor" x2="-6"></line><text fill="currentColor" x="-9" dy="0.32em">0</text></g><g class="tick" opacity="1" transform="translate(0,413.3571428571429)"><line stroke="currentColor" x2="-6"></line><text fill="currentColor" x="-9" dy="0.32em">50</text></g><g class="tick" opacity="1" transform="translate(0,386.2142857142857)"><line stroke="currentColor" x2="-6"></line><text fill="currentColor" x="-9" dy="0.32em">100</text></g><g class="tick" opacity="1" transform="translate(0,359.07142857142856)"><line stroke="currentColor" x2="-6"></line><text fill="currentColor" x="-9" dy="0.32em">150</text></g><g class="tick" opacity="1" transform="translate(0,331.92857142857144)"><line stroke="currentColor" x2="-6"></line><text fill="currentColor" x="-9" dy="0.32em">200</text></g><g class="tick" opacity="1" transform="translate(0,304.7857142857143)"><line stroke="currentColor" x2="-6"></line><text fill="currentColor" x="-9" dy="0.32em">250</text></g><g class="tick" opacity="1" transform="translate(0,277.6428571428571)"><line stroke="currentColor" x2="-6"></line><text fill="currentColor" x="-9" dy="0.32em">300</text></g><g class="tick" opacity="1" transform="translate(0,250.5)"><line stroke="currentColor" x2="-6"></line><text fill="currentColor" x="-9" dy="0.32em">350</text></g><g class="tick" opacity="1" transform="translate(0,223.35714285714286)"><line stroke="currentColor" x2="-6"></line><text fill="currentColor" x="-9" dy="0.32em">400</text></g><g class="tick" opacity="1" transform="translate(0,196.2142857142857)"><line stroke="currentColor" x2="-6"></line><text fill="currentColor" x="-9" dy="0.32em">450</text></g><g class="tick" opacity="1" transform="translate(0,169.07142857142856)"><line stroke="currentColor" x2="-6"></line><text fill="currentColor" x="-9" dy="0.32em">500</text></g><g class="tick" opacity="1" transform="translate(0,141.92857142857144)"><line stroke="currentColor" x2="-6"></line><text fill="currentColor" x="-9" dy="0.32em">550</text></g><g class="tick" opacity="1" transform="translate(0,114.7857142857143)"><line stroke="currentColor" x2="-6"></line><text fill="currentColor" x="-9" dy="0.32em">600</text></g><g class="tick" opacity="1" transform="translate(0,87.64285714285714)"><line stroke="currentColor" x2="-6"></line><text fill="currentColor" x="-9" dy="0.32em">650</text></g><g class="tick" opacity="1" transform="translate(0,60.5)"><line stroke="currentColor" x2="-6"></line><text fill="currentColor" x="-9" dy="0.32em">700</text></g></g><path fill="none" stroke="black" stroke-width="2.5" stroke-linejoin="round" stroke-linecap="round" d="M80,85.51428571428572C80,85.51428571428572,97.22222222222221,85.51428571428572,105.83333333333334,85.51428571428572C114.44444444444446,85.51428571428572,123.05555555555554,85.51428571428572,131.66666666666666,85.51428571428572C140.27777777777774,85.51428571428572,148.88888888888889,85.51428571428572,157.5,85.51428571428572C166.11111111111111,85.51428571428572,174.7222222222222,85.51428571428572,183.33333333333331,85.51428571428572C191.94444444444443,85.51428571428572,200.57246540071864,86.05394058082902,209.16666666666669,85.51428571428572C217.79482150012458,84.97249880459191,226.37184516654213,82.79892976683668,235,82.25714285714287C243.59420126594807,81.71748799059957,252.2222222222223,82.25714285714287,260.83333333333337,82.25714285714287C269.4444444444445,82.25714285714288,278.0555555555556,82.25714285714288,286.66666666666663,82.25714285714287C295.2777777777778,82.25714285714287,305.34999734705997,76.52829582803619,312.5,82.25714285714287C327.81218220360705,94.52583054639908,329.28518077783275,197.67891486800065,338.33333333333337,197.8857142857143C346.58128679401005,198.07422480899905,350.1336886074636,113.61229470986568,364.16666666666663,102.8857142857143C371.3550739157626,97.39101257994102,381.3888888888889,102.8857142857143,390,102.8857142857143C398.6111111111111,102.8857142857143,407.22222222222223,102.8857142857143,415.8333333333333,102.8857142857143C424.44444444444446,102.8857142857143,433.0574542913198,102.70488162147177,441.6666666666667,102.8857142857143C450.2796781896929,103.06662674935856,458.8869884769737,103.79051610778434,467.5,103.97142857142859C476.1092123753466,104.15226123567109,484.7222222222222,103.9714285714286,493.3333333333333,103.97142857142859C501.9444444444443,103.97142857142858,510.55555555555566,103.97142857142859,519.1666666666667,103.97142857142859C527.7777777777777,103.97142857142858,536.3888888888889,103.9714285714286,545,103.97142857142859C553.6111111111111,103.97142857142859,570.8333333333333,103.97142857142859,570.8333333333333,103.97142857142859"></path><g fill="#ffffff"><circle cx="80" cy="85.51428571428572" r="8"></circle><circle cx="105.83333333333334" cy="85.51428571428572" r="8"></circle><circle cx="131.66666666666666" cy="85.51428571428572" r="8"></circle><circle cx="157.5" cy="85.51428571428572" r="8"></circle><circle cx="183.33333333333331" cy="85.51428571428572" r="8"></circle><circle cx="209.16666666666669" cy="85.51428571428572" r="8"></circle><circle cx="235" cy="82.25714285714287" r="8"></circle><circle cx="260.83333333333337" cy="82.25714285714287" r="8"></circle><circle cx="286.66666666666663" cy="82.25714285714287" r="8"></circle><circle cx="312.5" cy="82.25714285714287" r="8"></circle><circle cx="338.33333333333337" cy="197.8857142857143" r="8"></circle><circle cx="364.16666666666663" cy="102.8857142857143" r="8"></circle><circle cx="390" cy="102.8857142857143" r="8"></circle><circle cx="415.8333333333333" cy="102.8857142857143" r="8"></circle><circle cx="441.6666666666667" cy="102.8857142857143" r="8"></circle><circle cx="467.5" cy="103.97142857142859" r="8"></circle><circle cx="493.3333333333333" cy="103.97142857142859" r="8"></circle><circle cx="519.1666666666667" cy="103.97142857142859" r="8"></circle><circle cx="545" cy="103.97142857142859" r="8"></circle><circle cx="570.8333333333333" cy="103.97142857142859" r="8"></circle></g><g stroke="steelblue" stroke-width="2" fill="none"><circle cx="80" cy="85.51428571428572" r="4"></circle><circle cx="105.83333333333334" cy="85.51428571428572" r="4"></circle><circle cx="131.66666666666666" cy="85.51428571428572" r="4"></circle><circle cx="157.5" cy="85.51428571428572" r="4"></circle><circle cx="183.33333333333331" cy="85.51428571428572" r="4"></circle><circle cx="209.16666666666669" cy="85.51428571428572" r="4"></circle><circle cx="235" cy="82.25714285714287" r="4"></circle><circle cx="260.83333333333337" cy="82.25714285714287" r="4"></circle><circle cx="286.66666666666663" cy="82.25714285714287" r="4"></circle><circle cx="312.5" cy="82.25714285714287" r="4"></circle><circle cx="338.33333333333337" cy="197.8857142857143" r="4"></circle><circle cx="364.16666666666663" cy="102.8857142857143" r="4"></circle><circle cx="390" cy="102.8857142857143" r="4"></circle><circle cx="415.8333333333333" cy="102.8857142857143" r="4"></circle><circle cx="441.6666666666667" cy="102.8857142857143" r="4"></circle><circle cx="467.5" cy="103.97142857142859" r="4"></circle><circle cx="493.3333333333333" cy="103.97142857142859" r="4"></circle><circle cx="519.1666666666667" cy="103.97142857142859" r="4"></circle><circle cx="545" cy="103.97142857142859" r="4"></circle><circle cx="570.8333333333333" cy="103.97142857142859" r="4"></circle></g></g></svg>