<svg xmlns="http://www.w3.org/2000/svg" width="720" height="540" viewBox="0,0,720,540"><g fill="none" stroke-linecap="round"><rect width="720" height="540" fill="#ffffff"></rect><g transform="translate(0,440)" fill="none" font-size="10" font-family="sans-serif" text-anchor="middle"><path class="domain" stroke="currentColor" d="M80.5,6V0.5H700.5V6"></path><g class="tick" opacity="1" transform="translate(80.5,0)"><line stroke="currentColor" y2="6"></line><text fill="currentColor" y="9" dy="0.71em">1996</text></g><g class="tick" opacity="1" transform="translate(132.16666666666666,0)"><line stroke="currentColor" y2="6"></line><text fill="currentColor" y="9" dy="0.71em">1998</text></g><g class="tick" opacity="1" transform="translate(183.83333333333331,0)"><line stroke="currentColor" y2="6"></line><text fill="currentColor" y="9" dy="0.71em">2000</text></g><g class="tick" opacity="1" transform="translate(235.5,0)"><line stroke="currentColor" y2="6"></line><text fill="currentColor" y="9" dy="0.71em">2002</text></g><g class="tick" opacity="1" transform="translate(287.16666666666663,0)"><line stroke="currentColor" y2="6"></line><text fill="currentColor" y="9" dy="0.71em">2004</text></g><g class="tick" opacity="1" transform="translate(338.83333333333337,0)"><line stroke="currentColor" y2="6"></line><text fill="currentColor" y="9" dy="0.71em">2006</text></g><g class="tick" opacity="1" transform="translate(390.5,0)"><line stroke="currentColor" y2="6"></line><text fill="currentColor" y="9" dy="0.71em">2008</text></g><g class="tick" opacity="1" transform="translate(442.1666666666667,0)"><line stroke="currentColor" y2="6"></line><text fill="currentColor" y="9" dy="0.71em">2010</text></g><g class="tick" opacity="1" transform="translate(493.8333333333333,0)"><line stroke="currentColor" y2="6"></line><text fill="currentColor" y="9" dy="0.71em">2012</text></g><g class="tick" opacity="1" transform="translate(545.5,0)"><line stroke="currentColor" y2="6"></line><text fill="currentColor" y="9" dy="0.71em">2014</text></g><g class="tick" opacity="1" transform="translate(597.1666666666667,0)"><line stroke="currentColor" y2="6"></line><text fill="currentColor" y="9" dy="0.71em">2016</text></g><g class="tick" opacity="1" transform="translate(648.8333333333333,0)"><line stroke="currentColor" y2="6"></line><text fill="currentColor" y="9" dy="0.71em">2018</text></g><g class="tick" opacity="1" transform="translate(700.5,0)"><line stroke="currentColor" y2="6"></line><text fill="currentColor" y="9" dy="0.71em">2020</text></g></g><g transform="translate(80,0)" fill="none" font-size="10" font-family="sans-serif" text-anchor="end"><g class="tick" opacity="1" transform="translate(0,440.5)"><line stroke="currentColor" x2="-6"></line><text fill="currentColor" x="-9" dy="0.32em">0</text></g><g class="tick" opacity="1" transform="translate(0,398.27777777777777)"><line stroke="currentColor" x2="-6"></line><text fill="currentColor" x="-9" dy="0.32em">5</text></g><g class="tick" opacity="1" transform="translate(0,356.05555555555554)"><line stroke="currentColor" x2="-6"></line><text fill="currentColor" x="-9" dy="0.32em">10</text></g><g class="tick" opacity="1" transform="translate(0,313.83333333333337)"><line stroke="currentColor" x2="-6"></line><text fill="currentColor" x="-9" dy="0.32em">15</text></g><g class="tick" opacity="1" transform="translate(0,271.61111111111114)"><line stroke="currentColor" x2="-6"></line><text fill="currentColor" x="-9" dy="0.32em">20</text></g><g class="tick" opacity="1" transform="translate(0,229.38888888888889)"><line stroke="currentColor" x2="-6"></line><text fill="currentColor" x="-9" dy="0.32em">25</text></g><g class="tick" opacity="1" transform="translate(0,187.16666666666669)"><line stroke="currentColor" x2="-6"></line><text fill="currentColor" x="-9" dy="0.32em">30</text></g><g class="tick" opacity="1" transform="translate(0,144.94444444444443)"><line stroke="currentColor" x2="-6"></line><text fill="currentColor" x="-9" dy="0.32em">35</text></g><g class="tick" opacity="1" transform="translate(0,102.72222222222224)"><line stroke="currentColor" x2="-6"></line><text fill="currentColor" x="-9" dy="0.32em">40</text></g><g class="tick" opacity="1" transform="translate(0,60.5)"><line stroke="currentColor" x2="-6"></line><text fill="currentColor" x="-9" dy="0.32em">45</text></g></g><line x1="570.8333333333333" y1="34.66666666666667" x2="80" y2="34.66666666666667" style="stroke: steelblue; stroke-width: 2;"></line><line x1="570.8333333333333" y1="34.66666666666667" x2="700" y2="440" style="stroke: green; stroke-width: 2;"></line><path fill="none" stroke="black" stroke-width="2.5" stroke-linejoin="round" stroke-linecap="round" d="M338.33333333333337,60C338.33333333333337,60,355.5555555555556,60.000000000000014,364.16666666666663,60C372.7777777777778,60.00000000000001,382.0002736867438,56.732104099497086,390,60C399.4674132917721,63.86744744420581,406.36592004156137,81.46588588912755,415.8333333333333,85.33333333333333C423.8330596465895,88.60122923383626,433.05555555555566,85.33333333333333,441.6666666666667,85.33333333333333C450.27777777777777,85.33333333333333,458.8888888888888,85.33333333333331,467.5,85.33333333333333C476.111111111111,85.33333333333331,484.7222222222222,85.33333333333333,493.3333333333333,85.33333333333333C501.9444444444443,85.33333333333331,510.55555555555566,85.33333333333333,519.1666666666667,85.33333333333333C527.7777777777777,85.33333333333331,545,85.33333333333333,545,85.33333333333333"></path><g fill="#ffffff"><circle cx="338.33333333333337" cy="60" r="8"></circle><circle cx="364.16666666666663" cy="60" r="8"></circle><circle cx="390" cy="60" r="8"></circle><circle cx="415.8333333333333" cy="85.33333333333333" r="8"></circle><circle cx="441.6666666666667" cy="85.33333333333333" r="8"></circle><circle cx="467.5" cy="85.33333333333333" r="8"></circle><circle cx="493.3333333333333" cy="85.33333333333333" r="8"></circle><circle cx="519.1666666666667" cy="85.33333333333333" r="8"></circle><circle cx="545" cy="85.33333333333333" r="8"></circle></g><g stroke="steelblue" stroke-width="2" fill="none"><circle cx="338.33333333333337" cy="60" r="4"></circle><circle cx="364.16666666666663" cy="60" r="4"></circle><circle cx="390" cy="60" r="4"></circle><circle cx="415.8333333333333" cy="85.33333333333333" r="4"></circle><circle cx="441.6666666666667" cy="85.33333333333333" r="4"></circle><circle cx="467.5" cy="85.33333333333333" r="4"></circle><circle cx="493.3333333333333" cy="85.33333333333333" r="4"></circle><circle cx="519.1666666666667" cy="85.33333333333333" r="4"></circle><circle cx="545" cy="85.33333333333333" r="4"></circle></g><path transform="translate(700,440)" d="M0,-14.71415478191356L8.495221224235612,0L0,14.71415478191356L-8.495221224235612,0Z" fill="#ffffff"></path><path transform="translate(700,440)" d="M0,-11.397535284773888L6.5803700647624614,0L0,11.397535284773888L-6.5803700647624614,0Z" fill="#33cc33"></path></g></svg>