<svg xmlns="http://www.w3.org/2000/svg" width="720" height="540" viewBox="0,0,720,540"><g fill="none" stroke-linecap="round"><rect width="720" height="540" fill="#ffffff"></rect><g transform="translate(0,440)" fill="none" font-size="10" font-family="sans-serif" text-anchor="middle"><path class="domain" stroke="currentColor" d="M80.5,6V0.5H700.5V6"></path><g class="tick" opacity="1" transform="translate(80.5,0)"><line stroke="currentColor" y2="6"></line><text fill="currentColor" y="9" dy="0.71em">1996</text></g><g class="tick" opacity="1" transform="translate(132.16666666666666,0)"><line stroke="currentColor" y2="6"></line><text fill="currentColor" y="9" dy="0.71em">1998</text></g><g class="tick" opacity="1" transform="translate(183.83333333333331,0)"><line stroke="currentColor" y2="6"></line><text fill="currentColor" y="9" dy="0.71em">2000</text></g><g class="tick" opacity="1" transform="translate(235.5,0)"><line stroke="currentColor" y2="6"></line><text fill="currentColor" y="9" dy="0.71em">2002</text></g><g class="tick" opacity="1" transform="translate(287.16666666666663,0)"><line stroke="currentColor" y2="6"></line><text fill="currentColor" y="9" dy="0.71em">2004</text></g><g class="tick" opacity="1" transform="translate(338.83333333333337,0)"><line stroke="currentColor" y2="6"></line><text fill="currentColor" y="9" dy="0.71em">2006</text></g><g class="tick" opacity="1" transform="translate(390.5,0)"><line stroke="currentColor" y2="6"></line><text fill="currentColor" y="9" dy="0.71em">2008</text></g><g class="tick" opacity="1" transform="translate(442.1666666666667,0)"><line stroke="currentColor" y2="6"></line><text fill="currentColor" y="9" dy="0.71em">2010</text></g><g class="tick" opacity="1" transform="translate(493.8333333333333,0)"><line stroke="currentColor" y2="6"></line><text fill="currentColor" y="9" dy="0.71em">2012</text></g><g class="tick" opacity="1" transform="translate(545.5,0)"><line stroke="currentColor" y2="6"></line><text fill="currentColor" y="9" dy="0.71em">2014</text></g><g class="tick" opacity="1" transform="translate(597.1666666666667,0)"><line stroke="currentColor" y2="6"></line><text fill="currentColor" y="9" dy="0.71em">2016</text></g><g class="tick" opacity="1" transform="translate(648.8333333333333,0)"><line stroke="currentColor" y2="6"></line><text fill="currentColor" y="9" dy="0.71em">2018</text></g><g class="tick" opacity="1" transform="translate(700.5,0)"><line stroke="currentColor" y2="6"></line><text fill="currentColor" y="9" dy="0.71em">2020</text></g></g><g transform="translate(80,0)" fill="none" font-size="10" font-family="sans-serif" text-anchor="end"><g class="tick" opacity="1" transform="translate(0,440.5)"><line stroke="currentColor" x2="-6"></line><text fill="currentColor" x="-9" dy="0.32em">0.0k</text></g><g class="tick" opacity="1" transform="translate(0,386.2142857142857)"><line stroke="currentColor" x2="-6"></line><text fill="currentColor" x="-9" dy="0.32em">0.5k</text></g><g class="tick" opacity="1" transform="translate(0,331.92857142857144)"><line stroke="currentColor" x2="-6"></line><text fill="currentColor" x="-9" dy="0.32em">1.0k</text></g><g class="tick" opacity="1" transform="translate(0,277.6428571428571)"><line stroke="currentColor" x2="-6"></line><text fill="currentColor" x="-9" dy="0.32em">1.5k</text></g><g class="tick" opacity="1" transform="translate(0,223.35714285714286)"><line stroke="currentColor" x2="-6"></line><text fill="currentColor" x="-9" dy="0.32em">2.0k</text></g><g class="tick" opacity="1" transform="translate(0,169.07142857142856)"><line stroke="currentColor" x2="-6"></line><text fill="currentColor" x="-9" dy="0.32em">2.5k</text></g><g class="tick" opacity="1" transform="translate(0,114.7857142857143)"><line stroke="currentColor" x2="-6"></line><text fill="currentColor" x="-9" dy="0.32em">3.0k</text></g><g class="tick" opacity="1" transform="translate(0,60.5)"><line stroke="currentColor" x2="-6"></line><text fill="currentColor" x="-9" dy="0.32em">3.5k</text></g></g><line x1="570.8333333333333" y1="284.09142857142854" x2="80" y2="284.09142857142854" style="stroke: steelblue; stroke-width: 2;"></line><line x1="570.8333333333333" y1="284.09142857142854" x2="700" y2="408.84000000000003" style="stroke: green; stroke-width: 2;"></line><path fill="none" stroke="black" stroke-width="2.5" stroke-linejoin="round" stroke-linecap="round" d="M80,95.28571428571429C80,95.28571428571429,81.13984722870703,372.7180644754859,105.83333333333334,395.3771428571428C113.06509665940969,402.0131071494609,123.05555555555554,395.3771428571428,131.66666666666666,395.3771428571428C140.27777777777774,395.3771428571428,148.88888888888889,395.3771428571428,157.5,395.3771428571428C166.11111111111111,395.3771428571428,174.91460038859537,397.19835496068066,183.33333333333331,395.3771428571428C192.1557124576133,393.4686105698487,200.3442875423866,385.5599608587225,209.16666666666669,383.65142857142854C217.58539961140454,381.83021646789064,226.38888888888894,383.6514285714285,235,383.65142857142854C243.61111111111114,383.65142857142854,253.11170402808557,387.6381536929577,260.83333333333337,383.65142857142854C270.98050931433437,378.4123786511558,276.51949068566563,352.51904992027266,286.66666666666663,347.28C294.38829597191443,343.29327487847075,303.88888888888886,347.28000000000003,312.5,347.28C321.1111111111112,347.2799999999999,330.9439950970815,352.10251848210834,338.33333333333337,347.28C349.9791897628301,339.67954159958487,352.52081023716994,296.1433155432722,364.16666666666663,288.54285714285714C371.55600490291846,283.7203386607487,381.3888888888889,288.54285714285714,390,288.54285714285714C398.6111111111111,288.54285714285714,408.2153716107798,284.3013320184924,415.8333333333333,288.54285714285714C426.3300032944843,294.38718807859493,431.1699967055156,324.3899547785477,441.6666666666667,330.23428571428565C449.2846283892202,334.4758108386504,459.99190160768984,325.72058816012054,467.5,330.23428571428565C478.4626456555212,336.82477831267556,484.11665011215155,378.14848730860376,493.3333333333333,378.87428571428575C501.47222186962495,379.515209589166,509.6927712313264,346.2892418077233,519.1666666666667,344.5657142857143C527.1631120208344,343.11097016908224,537.834276129134,363.99940825144273,545,360.96000000000004C559.6645018796844,354.7399154949823,561.1027775888865,235.98562067268017,570.8333333333333,235.45142857142858C578.7107788616883,235.0189692864912,583.6084573229061,305.6889993199467,596.6666666666667,315.35999999999996C603.9096093458053,320.7241737340506,622.5,315.7942857142857,622.5,315.7942857142857"></path><g fill="#ffffff"><circle cx="80" cy="95.28571428571429" r="8"></circle><circle cx="105.83333333333334" cy="395.3771428571428" r="8"></circle><circle cx="131.66666666666666" cy="395.3771428571428" r="8"></circle><circle cx="157.5" cy="395.3771428571428" r="8"></circle><circle cx="183.33333333333331" cy="395.3771428571428" r="8"></circle><circle cx="209.16666666666669" cy="383.65142857142854" r="8"></circle><circle cx="235" cy="383.65142857142854" r="8"></circle><circle cx="260.83333333333337" cy="383.65142857142854" r="8"></circle><circle cx="286.66666666666663" cy="347.28" r="8"></circle><circle cx="312.5" cy="347.28" r="8"></circle><circle cx="338.33333333333337" cy="347.28" r="8"></circle><circle cx="364.16666666666663" cy="288.54285714285714" r="8"></circle><circle cx="390" cy="288.54285714285714" r="8"></circle><circle cx="415.8333333333333" cy="288.54285714285714" r="8"></circle><circle cx="441.6666666666667" cy="330.23428571428565" r="8"></circle><circle cx="467.5" cy="330.23428571428565" r="8"></circle><circle cx="493.3333333333333" cy="378.87428571428575" r="8"></circle><circle cx="519.1666666666667" cy="344.5657142857143" r="8"></circle><circle cx="545" cy="360.96000000000004" r="8"></circle><circle cx="570.8333333333333" cy="235.45142857142858" r="8"></circle><circle cx="596.6666666666667" cy="315.35999999999996" r="8"></circle><circle cx="622.5" cy="315.7942857142857" r="8"></circle></g><g stroke="steelblue" stroke-width="2" fill="none"><circle cx="80" cy="95.28571428571429" r="4"></circle><circle cx="105.83333333333334" cy="395.3771428571428" r="4"></circle><circle cx="131.66666666666666" cy="395.3771428571428" r="4"></circle><circle cx="157.5" cy="395.3771428571428" r="4"></circle><circle cx="183.33333333333331" cy="395.3771428571428" r="4"></circle><circle cx="209.16666666666669" cy="383.65142857142854" r="4"></circle><circle cx="235" cy="383.65142857142854" r="4"></circle><circle cx="260.83333333333337" cy="383.65142857142854" r="4"></circle><circle cx="286.66666666666663" cy="347.28" r="4"></circle><circle cx="312.5" cy="347.28" r="4"></circle><circle cx="338.33333333333337" cy="347.28" r="4"></circle><circle cx="364.16666666666663" cy="288.54285714285714" r="4"></circle><circle cx="390" cy="288.54285714285714" r="4"></circle><circle cx="415.8333333333333" cy="288.54285714285714" r="4"></circle><circle cx="441.6666666666667" cy="330.23428571428565" r="4"></circle><circle cx="467.5" cy="330.23428571428565" r="4"></circle><circle cx="493.3333333333333" cy="378.87428571428575" r="4"></circle><circle cx="519.1666666666667" cy="344.5657142857143" r="4"></circle><circle cx="545" cy="360.96000000000004" r="4"></circle><circle cx="570.8333333333333" cy="235.45142857142858" r="4"></circle><circle cx="596.6666666666667" cy="315.35999999999996" r="4"></circle><circle cx="622.5" cy="315.7942857142857" r="4"></circle></g><path transform="translate(700,408.84000000000003)" d="M0,-14.71415478191356L8.495221224235612,0L0,14.71415478191356L-8.495221224235612,0Z" fill="#ffffff"></path><path transform="translate(700,408.84000000000003)" d="M0,-11.397535284773888L6.5803700647624614,0L0,11.397535284773888L-6.5803700647624614,0Z" fill="#33cc33"></path></g></svg>