<svg xmlns="http://www.w3.org/2000/svg" width="720" height="540" viewBox="0,0,720,540"><g fill="none" stroke-linecap="round"><rect width="720" height="540" fill="#ffffff"></rect><g transform="translate(0,440)" fill="none" font-size="10" font-family="sans-serif" text-anchor="middle"><path class="domain" stroke="currentColor" d="M80.5,6V0.5H700.5V6"></path><g class="tick" opacity="1" transform="translate(80.5,0)"><line stroke="currentColor" y2="6"></line><text fill="currentColor" y="9" dy="0.71em">1996</text></g><g class="tick" opacity="1" transform="translate(132.16666666666666,0)"><line stroke="currentColor" y2="6"></line><text fill="currentColor" y="9" dy="0.71em">1998</text></g><g class="tick" opacity="1" transform="translate(183.83333333333331,0)"><line stroke="currentColor" y2="6"></line><text fill="currentColor" y="9" dy="0.71em">2000</text></g><g class="tick" opacity="1" transform="translate(235.5,0)"><line stroke="currentColor" y2="6"></line><text fill="currentColor" y="9" dy="0.71em">2002</text></g><g class="tick" opacity="1" transform="translate(287.16666666666663,0)"><line stroke="currentColor" y2="6"></line><text fill="currentColor" y="9" dy="0.71em">2004</text></g><g class="tick" opacity="1" transform="translate(338.83333333333337,0)"><line stroke="currentColor" y2="6"></line><text fill="currentColor" y="9" dy="0.71em">2006</text></g><g class="tick" opacity="1" transform="translate(390.5,0)"><line stroke="currentColor" y2="6"></line><text fill="currentColor" y="9" dy="0.71em">2008</text></g><g class="tick" opacity="1" transform="translate(442.1666666666667,0)"><line stroke="currentColor" y2="6"></line><text fill="currentColor" y="9" dy="0.71em">2010</text></g><g class="tick" opacity="1" transform="translate(493.8333333333333,0)"><line stroke="currentColor" y2="6"></line><text fill="currentColor" y="9" dy="0.71em">2012</text></g><g class="tick" opacity="1" transform="translate(545.5,0)"><line stroke="currentColor" y2="6"></line><text fill="currentColor" y="9" dy="0.71em">2014</text></g><g class="tick" opacity="1" transform="translate(597.1666666666667,0)"><line stroke="currentColor" y2="6"></line><text fill="currentColor" y="9" dy="0.71em">2016</text></g><g class="tick" opacity="1" transform="translate(648.8333333333333,0)"><line stroke="currentColor" y2="6"></line><text fill="currentColor" y="9" dy="0.71em">2018</text></g><g class="tick" opacity="1" transform="translate(700.5,0)"><line stroke="currentColor" y2="6"></line><text fill="currentColor" y="9" dy="0.71em">2020</text></g></g><g transform="translate(80,0)" fill="none" font-size="10" font-family="sans-serif" text-anchor="end"><g class="tick" opacity="1" transform="translate(0,440.5)"><line stroke="currentColor" x2="-6"></line><text fill="currentColor" x="-9" dy="0.32em">0</text></g><g class="tick" opacity="1" transform="translate(0,393)"><line stroke="currentColor" x2="-6"></line><text fill="currentColor" x="-9" dy="0.32em">50</text></g><g class="tick" opacity="1" transform="translate(0,345.5)"><line stroke="currentColor" x2="-6"></line><text fill="currentColor" x="-9" dy="0.32em">100</text></g><g class="tick" opacity="1" transform="translate(0,298)"><line stroke="currentColor" x2="-6"></line><text fill="currentColor" x="-9" dy="0.32em">150</text></g><g class="tick" opacity="1" transform="translate(0,250.5)"><line stroke="currentColor" x2="-6"></line><text fill="currentColor" x="-9" dy="0.32em">200</text></g><g class="tick" opacity="1" transform="translate(0,203)"><line stroke="currentColor" x2="-6"></line><text fill="currentColor" x="-9" dy="0.32em">250</text></g><g class="tick" opacity="1" transform="translate(0,155.5)"><line stroke="currentColor" x2="-6"></line><text fill="currentColor" x="-9" dy="0.32em">300</text></g><g class="tick" opacity="1" transform="translate(0,108)"><line stroke="currentColor" x2="-6"></line><text fill="currentColor" x="-9" dy="0.32em">350</text></g><g class="tick" opacity="1" transform="translate(0,60.5)"><line stroke="currentColor" x2="-6"></line><text fill="currentColor" x="-9" dy="0.32em">400</text></g></g><line x1="570.8333333333333" y1="33.39999999999998" x2="80" y2="33.39999999999998" style="stroke: steelblue; stroke-width: 2;"></line><line x1="570.8333333333333" y1="33.39999999999998" x2="700" y2="358.3" style="stroke: green; stroke-width: 2;"></line><path fill="none" stroke="black" stroke-width="2.5" stroke-linejoin="round" stroke-linecap="round" d="M209.16666666666669,297.5C209.16666666666669,297.5,227.54646751933674,284.0424202306945,235,287.04999999999995C246.24668580933513,291.58815755142194,252.94017873423996,345.5773075620614,260.83333333333337,345C270.52739451299027,344.2909736207697,275.4275915876945,275.14527430700707,286.66666666666663,252.85000000000005C294.12155697952664,238.06152111842064,305.0807989117096,218.09611424453925,312.5,219.60000000000002C323.94989323119523,221.9209144929524,329.06259498246516,316.1147155420002,338.33333333333337,316.5C346.44006071279387,316.836909094652,354.95908318862837,266.4242965266058,364.16666666666663,244.3C372.3110965070974,224.73028539902856,379.82340667867743,203.63681224933887,390,190.15C397.7120604783132,179.9293781826157,407.26122976442446,167.26299577984094,415.8333333333333,167.35C424.48417184763707,167.4378033556884,433.7375128469795,181.21315197075796,441.6666666666667,191.1C451.28025505830567,203.08716655084015,460.0232203840011,236.86529450148888,467.5,235.75C478.6204103809563,234.09119324238995,481.76848871342486,126.68811268799276,493.3333333333333,124.60000000000001C500.7346540061707,123.26364035896776,511.5232018514518,164.6376052066086,519.1666666666667,163.54999999999998C529.5705621533435,162.069607118777,535.6082743560964,81.44722707469231,545,80.90000000000002C553.0391504601569,80.43158333663864,562.0317327657086,138.6747044063772,570.8333333333333,138.85000000000002C579.2694467019548,139.0180164294505,596.6666666666667,86.59999999999998,596.6666666666667,86.59999999999998"></path><g fill="#ffffff"><circle cx="209.16666666666669" cy="297.5" r="8"></circle><circle cx="235" cy="287.04999999999995" r="8"></circle><circle cx="260.83333333333337" cy="345" r="8"></circle><circle cx="286.66666666666663" cy="252.85000000000005" r="8"></circle><circle cx="312.5" cy="219.60000000000002" r="8"></circle><circle cx="338.33333333333337" cy="316.5" r="8"></circle><circle cx="364.16666666666663" cy="244.3" r="8"></circle><circle cx="390" cy="190.15" r="8"></circle><circle cx="415.8333333333333" cy="167.35" r="8"></circle><circle cx="441.6666666666667" cy="191.1" r="8"></circle><circle cx="467.5" cy="235.75" r="8"></circle><circle cx="493.3333333333333" cy="124.60000000000001" r="8"></circle><circle cx="519.1666666666667" cy="163.54999999999998" r="8"></circle><circle cx="545" cy="80.90000000000002" r="8"></circle><circle cx="570.8333333333333" cy="138.85000000000002" r="8"></circle><circle cx="596.6666666666667" cy="86.59999999999998" r="8"></circle></g><g stroke="steelblue" stroke-width="2" fill="none"><circle cx="209.16666666666669" cy="297.5" r="4"></circle><circle cx="235" cy="287.04999999999995" r="4"></circle><circle cx="260.83333333333337" cy="345" r="4"></circle><circle cx="286.66666666666663" cy="252.85000000000005" r="4"></circle><circle cx="312.5" cy="219.60000000000002" r="4"></circle><circle cx="338.33333333333337" cy="316.5" r="4"></circle><circle cx="364.16666666666663" cy="244.3" r="4"></circle><circle cx="390" cy="190.15" r="4"></circle><circle cx="415.8333333333333" cy="167.35" r="4"></circle><circle cx="441.6666666666667" cy="191.1" r="4"></circle><circle cx="467.5" cy="235.75" r="4"></circle><circle cx="493.3333333333333" cy="124.60000000000001" r="4"></circle><circle cx="519.1666666666667" cy="163.54999999999998" r="4"></circle><circle cx="545" cy="80.90000000000002" r="4"></circle><circle cx="570.8333333333333" cy="138.85000000000002" r="4"></circle><circle cx="596.6666666666667" cy="86.59999999999998" r="4"></circle></g><path transform="translate(700,358.3)" d="M0,-14.71415478191356L8.495221224235612,0L0,14.71415478191356L-8.495221224235612,0Z" fill="#ffffff"></path><path transform="translate(700,358.3)" d="M0,-11.397535284773888L6.5803700647624614,0L0,11.397535284773888L-6.5803700647624614,0Z" fill="#33cc33"></path></g></svg>