<svg xmlns="http://www.w3.org/2000/svg" width="720" height="540" viewBox="0,0,720,540"><g fill="none" stroke-linecap="round"><rect width="720" height="540" fill="#ffffff"></rect><g transform="translate(0,440)" fill="none" font-size="10" font-family="sans-serif" text-anchor="middle"><path class="domain" stroke="currentColor" d="M80.5,6V0.5H700.5V6"></path><g class="tick" opacity="1" transform="translate(80.5,0)"><line stroke="currentColor" y2="6"></line><text fill="currentColor" y="9" dy="0.71em">1996</text></g><g class="tick" opacity="1" transform="translate(132.16666666666666,0)"><line stroke="currentColor" y2="6"></line><text fill="currentColor" y="9" dy="0.71em">1998</text></g><g class="tick" opacity="1" transform="translate(183.83333333333331,0)"><line stroke="currentColor" y2="6"></line><text fill="currentColor" y="9" dy="0.71em">2000</text></g><g class="tick" opacity="1" transform="translate(235.5,0)"><line stroke="currentColor" y2="6"></line><text fill="currentColor" y="9" dy="0.71em">2002</text></g><g class="tick" opacity="1" transform="translate(287.16666666666663,0)"><line stroke="currentColor" y2="6"></line><text fill="currentColor" y="9" dy="0.71em">2004</text></g><g class="tick" opacity="1" transform="translate(338.83333333333337,0)"><line stroke="currentColor" y2="6"></line><text fill="currentColor" y="9" dy="0.71em">2006</text></g><g class="tick" opacity="1" transform="translate(390.5,0)"><line stroke="currentColor" y2="6"></line><text fill="currentColor" y="9" dy="0.71em">2008</text></g><g class="tick" opacity="1" transform="translate(442.1666666666667,0)"><line stroke="currentColor" y2="6"></line><text fill="currentColor" y="9" dy="0.71em">2010</text></g><g class="tick" opacity="1" transform="translate(493.8333333333333,0)"><line stroke="currentColor" y2="6"></line><text fill="currentColor" y="9" dy="0.71em">2012</text></g><g class="tick" opacity="1" transform="translate(545.5,0)"><line stroke="currentColor" y2="6"></line><text fill="currentColor" y="9" dy="0.71em">2014</text></g><g class="tick" opacity="1" transform="translate(597.1666666666667,0)"><line stroke="currentColor" y2="6"></line><text fill="currentColor" y="9" dy="0.71em">2016</text></g><g class="tick" opacity="1" transform="translate(648.8333333333333,0)"><line stroke="currentColor" y2="6"></line><text fill="currentColor" y="9" dy="0.71em">2018</text></g><g class="tick" opacity="1" transform="translate(700.5,0)"><line stroke="currentColor" y2="6"></line><text fill="currentColor" y="9" dy="0.71em">2020</text></g></g><g transform="translate(80,0)" fill="none" font-size="10" font-family="sans-serif" text-anchor="end"><g class="tick" opacity="1" transform="translate(0,440.5)"><line stroke="currentColor" x2="-6"></line><text fill="currentColor" x="-9" dy="0.32em">0k</text></g><g class="tick" opacity="1" transform="translate(0,398.27777777777777)"><line stroke="currentColor" x2="-6"></line><text fill="currentColor" x="-9" dy="0.32em">1k</text></g><g class="tick" opacity="1" transform="translate(0,356.05555555555554)"><line stroke="currentColor" x2="-6"></line><text fill="currentColor" x="-9" dy="0.32em">2k</text></g><g class="tick" opacity="1" transform="translate(0,313.83333333333337)"><line stroke="currentColor" x2="-6"></line><text fill="currentColor" x="-9" dy="0.32em">3k</text></g><g class="tick" opacity="1" transform="translate(0,271.61111111111114)"><line stroke="currentColor" x2="-6"></line><text fill="currentColor" x="-9" dy="0.32em">4k</text></g><g class="tick" opacity="1" transform="translate(0,229.38888888888889)"><line stroke="currentColor" x2="-6"></line><text fill="currentColor" x="-9" dy="0.32em">5k</text></g><g class="tick" opacity="1" transform="translate(0,187.16666666666669)"><line stroke="currentColor" x2="-6"></line><text fill="currentColor" x="-9" dy="0.32em">6k</text></g><g class="tick" opacity="1" transform="translate(0,144.94444444444443)"><line stroke="currentColor" x2="-6"></line><text fill="currentColor" x="-9" dy="0.32em">7k</text></g><g class="tick" opacity="1" transform="translate(0,102.72222222222224)"><line stroke="currentColor" x2="-6"></line><text fill="currentColor" x="-9" dy="0.32em">8k</text></g><g class="tick" opacity="1" transform="translate(0,60.5)"><line stroke="currentColor" x2="-6"></line><text fill="currentColor" x="-9" dy="0.32em">9k</text></g></g><path fill="none" stroke="black" stroke-width="2.5" stroke-linejoin="round" stroke-linecap="round" d="M80,180.96666666666667C80,180.96666666666667,96.87497148889186,265.0185889066308,105.83333333333334,265.2422222222222C114.14548460774796,265.4497237701027,121.15636696423934,195.79043872743597,131.66666666666666,193.8866666666667C139.2809939697073,192.5074535146637,149.81061188486328,225.49039655687497,157.5,224.20222222222222C167.74842038597123,222.48534281461988,174.5612425341432,158.46500988281866,183.33333333333331,158.33555555555554C191.7946683085006,158.21068721435475,201.27481868812112,219.436891926841,209.16666666666669,218.88222222222223C218.86373040060334,218.2006749481751,221.84661234854948,128.24088529827068,235,122.91111111111111C242.23632655200436,119.97893975809264,253.46650308380507,140.97824172535033,260.83333333333337,138.32222222222222C272.6410482790274,134.06509668506897,278.8958910464598,64.95283222559122,286.66666666666663,65.48888888888891C296.67046603765897,66.17898773785952,297.1412806745181,172.69808646991217,312.5,190.93111111111108C319.6491193021592,199.41815131522975,329.6153132041128,198.42551450481258,338.33333333333337,201.06444444444443C346.8425941527738,203.64018329428868,355.5243365815106,206.32362752923356,364.16666666666663,206.68C372.7470050666617,207.03381620066457,382.5759594167214,199.17107745869805,390,203.26C401.4199172037231,209.54972273929613,405.47166097589735,245.71900298474216,415.8333333333333,259.24666666666667C423.48886233356296,269.24132950195764,433.62794878273144,271.9475386038963,441.6666666666667,280.82222222222225C451.0592013894696,291.1915093700642,459.216663046539,305.21552931013457,467.5,318.8222222222222C476.49787309660974,333.6026539220756,483.6727597084134,365.05875123616966,493.3333333333333,366.49111111111114C501.2412364753638,367.66360496037396,510.2867813472589,341.55210224382824,519.1666666666667,340.94666666666666C527.5388584866887,340.37584591793654,536.0739681508145,359.2796885029092,545,360.32666666666665C553.3364206147561,361.3044864296943,562.9825184717187,355.3847563841399,570.8333333333333,349.09555555555556C580.6277989485811,341.2493176364654,587.5127054581958,314.59146583330113,596.6666666666667,313.6711111111111C604.8445253656453,312.84889538399585,622.5,337.2733333333333,622.5,337.2733333333333"></path><g fill="#ffffff"><circle cx="80" cy="180.96666666666667" r="8"></circle><circle cx="105.83333333333334" cy="265.2422222222222" r="8"></circle><circle cx="131.66666666666666" cy="193.8866666666667" r="8"></circle><circle cx="157.5" cy="224.20222222222222" r="8"></circle><circle cx="183.33333333333331" cy="158.33555555555554" r="8"></circle><circle cx="209.16666666666669" cy="218.88222222222223" r="8"></circle><circle cx="235" cy="122.91111111111111" r="8"></circle><circle cx="260.83333333333337" cy="138.32222222222222" r="8"></circle><circle cx="286.66666666666663" cy="65.48888888888891" r="8"></circle><circle cx="312.5" cy="190.93111111111108" r="8"></circle><circle cx="338.33333333333337" cy="201.06444444444443" r="8"></circle><circle cx="364.16666666666663" cy="206.68" r="8"></circle><circle cx="390" cy="203.26" r="8"></circle><circle cx="415.8333333333333" cy="259.24666666666667" r="8"></circle><circle cx="441.6666666666667" cy="280.82222222222225" r="8"></circle><circle cx="467.5" cy="318.8222222222222" r="8"></circle><circle cx="493.3333333333333" cy="366.49111111111114" r="8"></circle><circle cx="519.1666666666667" cy="340.94666666666666" r="8"></circle><circle cx="545" cy="360.32666666666665" r="8"></circle><circle cx="570.8333333333333" cy="349.09555555555556" r="8"></circle><circle cx="596.6666666666667" cy="313.6711111111111" r="8"></circle><circle cx="622.5" cy="337.2733333333333" r="8"></circle></g><g stroke="steelblue" stroke-width="2" fill="none"><circle cx="80" cy="180.96666666666667" r="4"></circle><circle cx="105.83333333333334" cy="265.2422222222222" r="4"></circle><circle cx="131.66666666666666" cy="193.8866666666667" r="4"></circle><circle cx="157.5" cy="224.20222222222222" r="4"></circle><circle cx="183.33333333333331" cy="158.33555555555554" r="4"></circle><circle cx="209.16666666666669" cy="218.88222222222223" r="4"></circle><circle cx="235" cy="122.91111111111111" r="4"></circle><circle cx="260.83333333333337" cy="138.32222222222222" r="4"></circle><circle cx="286.66666666666663" cy="65.48888888888891" r="4"></circle><circle cx="312.5" cy="190.93111111111108" r="4"></circle><circle cx="338.33333333333337" cy="201.06444444444443" r="4"></circle><circle cx="364.16666666666663" cy="206.68" r="4"></circle><circle cx="390" cy="203.26" r="4"></circle><circle cx="415.8333333333333" cy="259.24666666666667" r="4"></circle><circle cx="441.6666666666667" cy="280.82222222222225" r="4"></circle><circle cx="467.5" cy="318.8222222222222" r="4"></circle><circle cx="493.3333333333333" cy="366.49111111111114" r="4"></circle><circle cx="519.1666666666667" cy="340.94666666666666" r="4"></circle><circle cx="545" cy="360.32666666666665" r="4"></circle><circle cx="570.8333333333333" cy="349.09555555555556" r="4"></circle><circle cx="596.6666666666667" cy="313.6711111111111" r="4"></circle><circle cx="622.5" cy="337.2733333333333" r="4"></circle></g></g></svg>