<svg xmlns="http://www.w3.org/2000/svg" width="720" height="540" viewBox="0,0,720,540"><g fill="none" stroke-linecap="round"><rect width="720" height="540" fill="#ffffff"></rect><g transform="translate(0,440)" fill="none" font-size="10" font-family="sans-serif" text-anchor="middle"><path class="domain" stroke="currentColor" d="M80.5,6V0.5H700.5V6"></path><g class="tick" opacity="1" transform="translate(80.5,0)"><line stroke="currentColor" y2="6"></line><text fill="currentColor" y="9" dy="0.71em">1996</text></g><g class="tick" opacity="1" transform="translate(132.16666666666666,0)"><line stroke="currentColor" y2="6"></line><text fill="currentColor" y="9" dy="0.71em">1998</text></g><g class="tick" opacity="1" transform="translate(183.83333333333331,0)"><line stroke="currentColor" y2="6"></line><text fill="currentColor" y="9" dy="0.71em">2000</text></g><g class="tick" opacity="1" transform="translate(235.5,0)"><line stroke="currentColor" y2="6"></line><text fill="currentColor" y="9" dy="0.71em">2002</text></g><g class="tick" opacity="1" transform="translate(287.16666666666663,0)"><line stroke="currentColor" y2="6"></line><text fill="currentColor" y="9" dy="0.71em">2004</text></g><g class="tick" opacity="1" transform="translate(338.83333333333337,0)"><line stroke="currentColor" y2="6"></line><text fill="currentColor" y="9" dy="0.71em">2006</text></g><g class="tick" opacity="1" transform="translate(390.5,0)"><line stroke="currentColor" y2="6"></line><text fill="currentColor" y="9" dy="0.71em">2008</text></g><g class="tick" opacity="1" transform="translate(442.1666666666667,0)"><line stroke="currentColor" y2="6"></line><text fill="currentColor" y="9" dy="0.71em">2010</text></g><g class="tick" opacity="1" transform="translate(493.8333333333333,0)"><line stroke="currentColor" y2="6"></line><text fill="currentColor" y="9" dy="0.71em">2012</text></g><g class="tick" opacity="1" transform="translate(545.5,0)"><line stroke="currentColor" y2="6"></line><text fill="currentColor" y="9" dy="0.71em">2014</text></g><g class="tick" opacity="1" transform="translate(597.1666666666667,0)"><line stroke="currentColor" y2="6"></line><text fill="currentColor" y="9" dy="0.71em">2016</text></g><g class="tick" opacity="1" transform="translate(648.8333333333333,0)"><line stroke="currentColor" y2="6"></line><text fill="currentColor" y="9" dy="0.71em">2018</text></g><g class="tick" opacity="1" transform="translate(700.5,0)"><line stroke="currentColor" y2="6"></line><text fill="currentColor" y="9" dy="0.71em">2020</text></g></g><g transform="translate(80,0)" fill="none" font-size="10" font-family="sans-serif" text-anchor="end"><g class="tick" opacity="1" transform="translate(0,440.5)"><line stroke="currentColor" x2="-6"></line><text fill="currentColor" x="-9" dy="0.32em">0.0</text></g><g class="tick" opacity="1" transform="translate(0,415.1666666666667)"><line stroke="currentColor" x2="-6"></line><text fill="currentColor" x="-9" dy="0.32em">0.2</text></g><g class="tick" opacity="1" transform="translate(0,389.83333333333337)"><line stroke="currentColor" x2="-6"></line><text fill="currentColor" x="-9" dy="0.32em">0.4</text></g><g class="tick" opacity="1" transform="translate(0,364.5)"><line stroke="currentColor" x2="-6"></line><text fill="currentColor" x="-9" dy="0.32em">0.6</text></g><g class="tick" opacity="1" transform="translate(0,339.1666666666667)"><line stroke="currentColor" x2="-6"></line><text fill="currentColor" x="-9" dy="0.32em">0.8</text></g><g class="tick" opacity="1" transform="translate(0,313.83333333333337)"><line stroke="currentColor" x2="-6"></line><text fill="currentColor" x="-9" dy="0.32em">1.0</text></g><g class="tick" opacity="1" transform="translate(0,288.50000000000006)"><line stroke="currentColor" x2="-6"></line><text fill="currentColor" x="-9" dy="0.32em">1.2</text></g><g class="tick" opacity="1" transform="translate(0,263.1666666666667)"><line stroke="currentColor" x2="-6"></line><text fill="currentColor" x="-9" dy="0.32em">1.4</text></g><g class="tick" opacity="1" transform="translate(0,237.83333333333334)"><line stroke="currentColor" x2="-6"></line><text fill="currentColor" x="-9" dy="0.32em">1.6</text></g><g class="tick" opacity="1" transform="translate(0,212.5)"><line stroke="currentColor" x2="-6"></line><text fill="currentColor" x="-9" dy="0.32em">1.8</text></g><g class="tick" opacity="1" transform="translate(0,187.16666666666669)"><line stroke="currentColor" x2="-6"></line><text fill="currentColor" x="-9" dy="0.32em">2.0</text></g><g class="tick" opacity="1" transform="translate(0,161.83333333333331)"><line stroke="currentColor" x2="-6"></line><text fill="currentColor" x="-9" dy="0.32em">2.2</text></g><g class="tick" opacity="1" transform="translate(0,136.50000000000003)"><line stroke="currentColor" x2="-6"></line><text fill="currentColor" x="-9" dy="0.32em">2.4</text></g><g class="tick" opacity="1" transform="translate(0,111.16666666666666)"><line stroke="currentColor" x2="-6"></line><text fill="currentColor" x="-9" dy="0.32em">2.6</text></g><g class="tick" opacity="1" transform="translate(0,85.83333333333337)"><line stroke="currentColor" x2="-6"></line><text fill="currentColor" x="-9" dy="0.32em">2.8</text></g><g class="tick" opacity="1" transform="translate(0,60.5)"><line stroke="currentColor" x2="-6"></line><text fill="currentColor" x="-9" dy="0.32em">3.0</text></g></g><path fill="none" stroke="black" stroke-width="2.5" stroke-linejoin="round" stroke-linecap="round" d="M209.16666666666669,60C209.16666666666669,60,227.80650187541144,53.50274483891087,235,60C257.58495694716754,80.39900831924562,238.2483763861659,292.9343250140878,260.83333333333337,313.33333333333337C268.02683145792196,319.83058849442256,279.52658093770276,319.1641987847719,286.66666666666663,313.33333333333337C302.6390250364928,300.28969826620477,296.52764163017366,199.7103017337953,312.5,186.66666666666669C319.6400857289638,180.835801215228,331.19324760436956,192.49753211810534,338.33333333333337,186.66666666666669C354.30569170315977,173.6230315995381,355.5555555555555,60,364.16666666666663,60C372.77777777777766,59.99999999999999,381.38888888888886,144.44444444444443,390,186.66666666666669C398.6111111111111,228.8888888888889,407.2222222222221,313.3333333333333,415.8333333333333,313.33333333333337C424.44444444444434,313.3333333333333,433.05555555555554,228.88888888888889,441.6666666666667,186.66666666666669C450.27777777777777,144.44444444444446,459.9189150717299,59.6222795229074,467.5,60C478.1400795422425,60.53013202714724,482.6932537910909,243.59567253198944,493.3333333333333,313.33333333333337C500.91441826160354,363.02160184062495,510.5555555555556,439.99999999999994,519.1666666666667,440C527.7777777777777,439.9999999999999,529.0276416301739,326.376968400462,545,313.33333333333337C552.1400857289639,307.5024678818948,563.6932476043695,319.16419878477194,570.8333333333333,313.33333333333337C586.8056917031594,300.28969826620477,596.6666666666667,186.66666666666669,596.6666666666667,186.66666666666669"></path><g fill="#ffffff"><circle cx="209.16666666666669" cy="60" r="8"></circle><circle cx="235" cy="60" r="8"></circle><circle cx="260.83333333333337" cy="313.33333333333337" r="8"></circle><circle cx="286.66666666666663" cy="313.33333333333337" r="8"></circle><circle cx="312.5" cy="186.66666666666669" r="8"></circle><circle cx="338.33333333333337" cy="186.66666666666669" r="8"></circle><circle cx="364.16666666666663" cy="60" r="8"></circle><circle cx="390" cy="186.66666666666669" r="8"></circle><circle cx="415.8333333333333" cy="313.33333333333337" r="8"></circle><circle cx="441.6666666666667" cy="186.66666666666669" r="8"></circle><circle cx="467.5" cy="60" r="8"></circle><circle cx="493.3333333333333" cy="313.33333333333337" r="8"></circle><circle cx="519.1666666666667" cy="440" r="8"></circle><circle cx="545" cy="313.33333333333337" r="8"></circle><circle cx="570.8333333333333" cy="313.33333333333337" r="8"></circle><circle cx="596.6666666666667" cy="186.66666666666669" r="8"></circle></g><g stroke="steelblue" stroke-width="2" fill="none"><circle cx="209.16666666666669" cy="60" r="4"></circle><circle cx="235" cy="60" r="4"></circle><circle cx="260.83333333333337" cy="313.33333333333337" r="4"></circle><circle cx="286.66666666666663" cy="313.33333333333337" r="4"></circle><circle cx="312.5" cy="186.66666666666669" r="4"></circle><circle cx="338.33333333333337" cy="186.66666666666669" r="4"></circle><circle cx="364.16666666666663" cy="60" r="4"></circle><circle cx="390" cy="186.66666666666669" r="4"></circle><circle cx="415.8333333333333" cy="313.33333333333337" r="4"></circle><circle cx="441.6666666666667" cy="186.66666666666669" r="4"></circle><circle cx="467.5" cy="60" r="4"></circle><circle cx="493.3333333333333" cy="313.33333333333337" r="4"></circle><circle cx="519.1666666666667" cy="440" r="4"></circle><circle cx="545" cy="313.33333333333337" r="4"></circle><circle cx="570.8333333333333" cy="313.33333333333337" r="4"></circle><circle cx="596.6666666666667" cy="186.66666666666669" r="4"></circle></g></g></svg>