<svg xmlns="http://www.w3.org/2000/svg" width="720" height="540" viewBox="0,0,720,540"><g fill="none" stroke-linecap="round"><rect width="720" height="540" fill="#ffffff"></rect><g transform="translate(0,440)" fill="none" font-size="10" font-family="sans-serif" text-anchor="middle"><path class="domain" stroke="currentColor" d="M80.5,6V0.5H700.5V6"></path><g class="tick" opacity="1" transform="translate(80.5,0)"><line stroke="currentColor" y2="6"></line><text fill="currentColor" y="9" dy="0.71em">1996</text></g><g class="tick" opacity="1" transform="translate(132.16666666666666,0)"><line stroke="currentColor" y2="6"></line><text fill="currentColor" y="9" dy="0.71em">1998</text></g><g class="tick" opacity="1" transform="translate(183.83333333333331,0)"><line stroke="currentColor" y2="6"></line><text fill="currentColor" y="9" dy="0.71em">2000</text></g><g class="tick" opacity="1" transform="translate(235.5,0)"><line stroke="currentColor" y2="6"></line><text fill="currentColor" y="9" dy="0.71em">2002</text></g><g class="tick" opacity="1" transform="translate(287.16666666666663,0)"><line stroke="currentColor" y2="6"></line><text fill="currentColor" y="9" dy="0.71em">2004</text></g><g class="tick" opacity="1" transform="translate(338.83333333333337,0)"><line stroke="currentColor" y2="6"></line><text fill="currentColor" y="9" dy="0.71em">2006</text></g><g class="tick" opacity="1" transform="translate(390.5,0)"><line stroke="currentColor" y2="6"></line><text fill="currentColor" y="9" dy="0.71em">2008</text></g><g class="tick" opacity="1" transform="translate(442.1666666666667,0)"><line stroke="currentColor" y2="6"></line><text fill="currentColor" y="9" dy="0.71em">2010</text></g><g class="tick" opacity="1" transform="translate(493.8333333333333,0)"><line stroke="currentColor" y2="6"></line><text fill="currentColor" y="9" dy="0.71em">2012</text></g><g class="tick" opacity="1" transform="translate(545.5,0)"><line stroke="currentColor" y2="6"></line><text fill="currentColor" y="9" dy="0.71em">2014</text></g><g class="tick" opacity="1" transform="translate(597.1666666666667,0)"><line stroke="currentColor" y2="6"></line><text fill="currentColor" y="9" dy="0.71em">2016</text></g><g class="tick" opacity="1" transform="translate(648.8333333333333,0)"><line stroke="currentColor" y2="6"></line><text fill="currentColor" y="9" dy="0.71em">2018</text></g><g class="tick" opacity="1" transform="translate(700.5,0)"><line stroke="currentColor" y2="6"></line><text fill="currentColor" y="9" dy="0.71em">2020</text></g></g><g transform="translate(80,0)" fill="none" font-size="10" font-family="sans-serif" text-anchor="end"><g class="tick" opacity="1" transform="translate(0,440.5)"><line stroke="currentColor" x2="-6"></line><text fill="currentColor" x="-9" dy="0.32em">0</text></g><g class="tick" opacity="1" transform="translate(0,413.3571428571429)"><line stroke="currentColor" x2="-6"></line><text fill="currentColor" x="-9" dy="0.32em">5</text></g><g class="tick" opacity="1" transform="translate(0,386.2142857142857)"><line stroke="currentColor" x2="-6"></line><text fill="currentColor" x="-9" dy="0.32em">10</text></g><g class="tick" opacity="1" transform="translate(0,359.07142857142856)"><line stroke="currentColor" x2="-6"></line><text fill="currentColor" x="-9" dy="0.32em">15</text></g><g class="tick" opacity="1" transform="translate(0,331.92857142857144)"><line stroke="currentColor" x2="-6"></line><text fill="currentColor" x="-9" dy="0.32em">20</text></g><g class="tick" opacity="1" transform="translate(0,304.7857142857143)"><line stroke="currentColor" x2="-6"></line><text fill="currentColor" x="-9" dy="0.32em">25</text></g><g class="tick" opacity="1" transform="translate(0,277.6428571428571)"><line stroke="currentColor" x2="-6"></line><text fill="currentColor" x="-9" dy="0.32em">30</text></g><g class="tick" opacity="1" transform="translate(0,250.5)"><line stroke="currentColor" x2="-6"></line><text fill="currentColor" x="-9" dy="0.32em">35</text></g><g class="tick" opacity="1" transform="translate(0,223.35714285714286)"><line stroke="currentColor" x2="-6"></line><text fill="currentColor" x="-9" dy="0.32em">40</text></g><g class="tick" opacity="1" transform="translate(0,196.2142857142857)"><line stroke="currentColor" x2="-6"></line><text fill="currentColor" x="-9" dy="0.32em">45</text></g><g class="tick" opacity="1" transform="translate(0,169.07142857142856)"><line stroke="currentColor" x2="-6"></line><text fill="currentColor" x="-9" dy="0.32em">50</text></g><g class="tick" opacity="1" transform="translate(0,141.92857142857144)"><line stroke="currentColor" x2="-6"></line><text fill="currentColor" x="-9" dy="0.32em">55</text></g><g class="tick" opacity="1" transform="translate(0,114.7857142857143)"><line stroke="currentColor" x2="-6"></line><text fill="currentColor" x="-9" dy="0.32em">60</text></g><g class="tick" opacity="1" transform="translate(0,87.64285714285714)"><line stroke="currentColor" x2="-6"></line><text fill="currentColor" x="-9" dy="0.32em">65</text></g><g class="tick" opacity="1" transform="translate(0,60.5)"><line stroke="currentColor" x2="-6"></line><text fill="currentColor" x="-9" dy="0.32em">70</text></g></g><path fill="none" stroke="black" stroke-width="2.5" stroke-linejoin="round" stroke-linecap="round" d="M209.16666666666669,277.1428571428571C209.16666666666669,277.1428571428571,224.02269608344432,234.8987978520133,235,228.28571428571428C242.5050759445547,223.7644133569946,252.55331407072782,225.89362264584014,260.83333333333337,228.28571428571428C269.83583684917625,230.88653110934683,277.6641631508237,241.97061174779606,286.66666666666663,244.57142857142858C294.9466859292722,246.96352021130278,304.2199807373944,246.96352021130278,312.5,244.57142857142858C321.502503515843,241.97061174779603,331.07534021660433,238.02120213453117,338.33333333333337,228.28571428571428C351.19071428694184,211.03950393137399,356.26329261034556,135.63652188028013,364.16666666666663,136C373.8374456785589,136.44476150899854,379.9501195031649,276.5079588249223,390,277.1428571428571C397.7545108393291,277.6327461410246,406.0611599618921,196.59210674835444,415.8333333333333,195.7142857142857C423.69331287791243,195.0082344491959,431.7034763871366,232.22808341661752,441.6666666666667,244.57142857142858C449.4521623358217,254.21683908246817,460.12347594743466,268.4252653068567,467.5,266.28571428571433C479.2363666222388,262.88159670781795,485.22486931804315,214.10948423627778,493.3333333333333,184.85714285714286C502.6010974447845,151.42247519403793,509.8989025552155,76.62698139352557,519.1666666666667,76.28571428571428C527.2751306819566,75.98713611410642,536.622433625288,157.8578326616861,545,157.71428571428572C553.8731014155516,157.56224793085244,557.1094565961289,78.27765458355334,570.8333333333333,65.42857142857142C578.036118476019,58.684909486829774,596.6666666666667,60,596.6666666666667,60"></path><g fill="#ffffff"><circle cx="209.16666666666669" cy="277.1428571428571" r="8"></circle><circle cx="235" cy="228.28571428571428" r="8"></circle><circle cx="260.83333333333337" cy="228.28571428571428" r="8"></circle><circle cx="286.66666666666663" cy="244.57142857142858" r="8"></circle><circle cx="312.5" cy="244.57142857142858" r="8"></circle><circle cx="338.33333333333337" cy="228.28571428571428" r="8"></circle><circle cx="364.16666666666663" cy="136" r="8"></circle><circle cx="390" cy="277.1428571428571" r="8"></circle><circle cx="415.8333333333333" cy="195.7142857142857" r="8"></circle><circle cx="441.6666666666667" cy="244.57142857142858" r="8"></circle><circle cx="467.5" cy="266.28571428571433" r="8"></circle><circle cx="493.3333333333333" cy="184.85714285714286" r="8"></circle><circle cx="519.1666666666667" cy="76.28571428571428" r="8"></circle><circle cx="545" cy="157.71428571428572" r="8"></circle><circle cx="570.8333333333333" cy="65.42857142857142" r="8"></circle><circle cx="596.6666666666667" cy="60" r="8"></circle></g><g stroke="steelblue" stroke-width="2" fill="none"><circle cx="209.16666666666669" cy="277.1428571428571" r="4"></circle><circle cx="235" cy="228.28571428571428" r="4"></circle><circle cx="260.83333333333337" cy="228.28571428571428" r="4"></circle><circle cx="286.66666666666663" cy="244.57142857142858" r="4"></circle><circle cx="312.5" cy="244.57142857142858" r="4"></circle><circle cx="338.33333333333337" cy="228.28571428571428" r="4"></circle><circle cx="364.16666666666663" cy="136" r="4"></circle><circle cx="390" cy="277.1428571428571" r="4"></circle><circle cx="415.8333333333333" cy="195.7142857142857" r="4"></circle><circle cx="441.6666666666667" cy="244.57142857142858" r="4"></circle><circle cx="467.5" cy="266.28571428571433" r="4"></circle><circle cx="493.3333333333333" cy="184.85714285714286" r="4"></circle><circle cx="519.1666666666667" cy="76.28571428571428" r="4"></circle><circle cx="545" cy="157.71428571428572" r="4"></circle><circle cx="570.8333333333333" cy="65.42857142857142" r="4"></circle><circle cx="596.6666666666667" cy="60" r="4"></circle></g></g></svg>