<svg xmlns="http://www.w3.org/2000/svg" width="720" height="540" viewBox="0,0,720,540"><g fill="none" stroke-linecap="round"><rect width="720" height="540" fill="#ffffff"></rect><g transform="translate(0,440)" fill="none" font-size="10" font-family="sans-serif" text-anchor="middle"><path class="domain" stroke="currentColor" d="M80.5,6V0.5H700.5V6"></path><g class="tick" opacity="1" transform="translate(80.5,0)"><line stroke="currentColor" y2="6"></line><text fill="currentColor" y="9" dy="0.71em">1996</text></g><g class="tick" opacity="1" transform="translate(132.16666666666666,0)"><line stroke="currentColor" y2="6"></line><text fill="currentColor" y="9" dy="0.71em">1998</text></g><g class="tick" opacity="1" transform="translate(183.83333333333331,0)"><line stroke="currentColor" y2="6"></line><text fill="currentColor" y="9" dy="0.71em">2000</text></g><g class="tick" opacity="1" transform="translate(235.5,0)"><line stroke="currentColor" y2="6"></line><text fill="currentColor" y="9" dy="0.71em">2002</text></g><g class="tick" opacity="1" transform="translate(287.16666666666663,0)"><line stroke="currentColor" y2="6"></line><text fill="currentColor" y="9" dy="0.71em">2004</text></g><g class="tick" opacity="1" transform="translate(338.83333333333337,0)"><line stroke="currentColor" y2="6"></line><text fill="currentColor" y="9" dy="0.71em">2006</text></g><g class="tick" opacity="1" transform="translate(390.5,0)"><line stroke="currentColor" y2="6"></line><text fill="currentColor" y="9" dy="0.71em">2008</text></g><g class="tick" opacity="1" transform="translate(442.1666666666667,0)"><line stroke="currentColor" y2="6"></line><text fill="currentColor" y="9" dy="0.71em">2010</text></g><g class="tick" opacity="1" transform="translate(493.8333333333333,0)"><line stroke="currentColor" y2="6"></line><text fill="currentColor" y="9" dy="0.71em">2012</text></g><g class="tick" opacity="1" transform="translate(545.5,0)"><line stroke="currentColor" y2="6"></line><text fill="currentColor" y="9" dy="0.71em">2014</text></g><g class="tick" opacity="1" transform="translate(597.1666666666667,0)"><line stroke="currentColor" y2="6"></line><text fill="currentColor" y="9" dy="0.71em">2016</text></g><g class="tick" opacity="1" transform="translate(648.8333333333333,0)"><line stroke="currentColor" y2="6"></line><text fill="currentColor" y="9" dy="0.71em">2018</text></g><g class="tick" opacity="1" transform="translate(700.5,0)"><line stroke="currentColor" y2="6"></line><text fill="currentColor" y="9" dy="0.71em">2020</text></g></g><g transform="translate(80,0)" fill="none" font-size="10" font-family="sans-serif" text-anchor="end"><g class="tick" opacity="1" transform="translate(0,440.5)"><line stroke="currentColor" x2="-6"></line><text fill="currentColor" x="-9" dy="0.32em">0</text></g><g class="tick" opacity="1" transform="translate(0,411.26923076923083)"><line stroke="currentColor" x2="-6"></line><text fill="currentColor" x="-9" dy="0.32em">50</text></g><g class="tick" opacity="1" transform="translate(0,382.03846153846155)"><line stroke="currentColor" x2="-6"></line><text fill="currentColor" x="-9" dy="0.32em">100</text></g><g class="tick" opacity="1" transform="translate(0,352.8076923076923)"><line stroke="currentColor" x2="-6"></line><text fill="currentColor" x="-9" dy="0.32em">150</text></g><g class="tick" opacity="1" transform="translate(0,323.57692307692304)"><line stroke="currentColor" x2="-6"></line><text fill="currentColor" x="-9" dy="0.32em">200</text></g><g class="tick" opacity="1" transform="translate(0,294.34615384615387)"><line stroke="currentColor" x2="-6"></line><text fill="currentColor" x="-9" dy="0.32em">250</text></g><g class="tick" opacity="1" transform="translate(0,265.1153846153846)"><line stroke="currentColor" x2="-6"></line><text fill="currentColor" x="-9" dy="0.32em">300</text></g><g class="tick" opacity="1" transform="translate(0,235.88461538461542)"><line stroke="currentColor" x2="-6"></line><text fill="currentColor" x="-9" dy="0.32em">350</text></g><g class="tick" opacity="1" transform="translate(0,206.65384615384616)"><line stroke="currentColor" x2="-6"></line><text fill="currentColor" x="-9" dy="0.32em">400</text></g><g class="tick" opacity="1" transform="translate(0,177.42307692307693)"><line stroke="currentColor" x2="-6"></line><text fill="currentColor" x="-9" dy="0.32em">450</text></g><g class="tick" opacity="1" transform="translate(0,148.19230769230768)"><line stroke="currentColor" x2="-6"></line><text fill="currentColor" x="-9" dy="0.32em">500</text></g><g class="tick" opacity="1" transform="translate(0,118.96153846153845)"><line stroke="currentColor" x2="-6"></line><text fill="currentColor" x="-9" dy="0.32em">550</text></g><g class="tick" opacity="1" transform="translate(0,89.73076923076921)"><line stroke="currentColor" x2="-6"></line><text fill="currentColor" x="-9" dy="0.32em">600</text></g><g class="tick" opacity="1" transform="translate(0,60.5)"><line stroke="currentColor" x2="-6"></line><text fill="currentColor" x="-9" dy="0.32em">650</text></g></g><path fill="none" stroke="black" stroke-width="2.5" stroke-linejoin="round" stroke-linecap="round" d="M209.16666666666669,221.93846153846152C209.16666666666669,221.93846153846152,226.38888888888894,221.93846153846152,235,221.93846153846152C243.61111111111114,221.9384615384615,252.2222222222223,221.93846153846158,260.83333333333337,221.93846153846152C269.4444444444445,221.93846153846155,278.0555555555556,221.93846153846155,286.66666666666663,221.93846153846152C295.2777777777778,221.93846153846158,304.0638795487216,220.20167176809338,312.5,221.93846153846152C321.3015921748643,223.75049295035774,329.5317411584691,231.23412243425764,338.33333333333337,233.04615384615386C346.76945378461176,234.782943616522,355.5555555555556,233.04615384615394,364.16666666666663,233.04615384615386C372.7777777777778,233.04615384615389,381.3888888888889,233.04615384615383,390,233.04615384615386C398.6111111111111,233.04615384615386,407.3972128820549,234.782943616522,415.8333333333333,233.04615384615386C424.63492550819745,231.23412243425764,434.0781111474528,219.2733286521312,441.6666666666667,221.93846153846152C452.27674650649607,225.66476658243502,456.54524567939944,263.8832274316311,467.5,270.46153846153845C475.00973542382087,274.9711216000034,485.0744911230423,272.9295721653786,493.3333333333333,270.46153846153845C502.3657999757714,267.76231845772577,510.38269026162794,254.11093421547187,519.1666666666667,253.50769230769225C527.617766017649,252.92731081982785,537.1903197717943,259.0897383355988,545,265.7846153846154C554.8986145459969,274.27023904711996,561.0562469345907,301.5011521347764,570.8333333333333,303.7846153846154C578.6912817696445,305.61985911077846,589.5263238724486,299.7994509851409,596.6666666666667,289.16923076923075C615.3824706074039,261.3059862245944,622.5,86.89230769230771,622.5,86.89230769230771"></path><g fill="#ffffff"><circle cx="209.16666666666669" cy="221.93846153846152" r="8"></circle><circle cx="235" cy="221.93846153846152" r="8"></circle><circle cx="260.83333333333337" cy="221.93846153846152" r="8"></circle><circle cx="286.66666666666663" cy="221.93846153846152" r="8"></circle><circle cx="312.5" cy="221.93846153846152" r="8"></circle><circle cx="338.33333333333337" cy="233.04615384615386" r="8"></circle><circle cx="364.16666666666663" cy="233.04615384615386" r="8"></circle><circle cx="390" cy="233.04615384615386" r="8"></circle><circle cx="415.8333333333333" cy="233.04615384615386" r="8"></circle><circle cx="441.6666666666667" cy="221.93846153846152" r="8"></circle><circle cx="467.5" cy="270.46153846153845" r="8"></circle><circle cx="493.3333333333333" cy="270.46153846153845" r="8"></circle><circle cx="519.1666666666667" cy="253.50769230769225" r="8"></circle><circle cx="545" cy="265.7846153846154" r="8"></circle><circle cx="570.8333333333333" cy="303.7846153846154" r="8"></circle><circle cx="596.6666666666667" cy="289.16923076923075" r="8"></circle><circle cx="622.5" cy="86.89230769230771" r="8"></circle></g><g stroke="steelblue" stroke-width="2" fill="none"><circle cx="209.16666666666669" cy="221.93846153846152" r="4"></circle><circle cx="235" cy="221.93846153846152" r="4"></circle><circle cx="260.83333333333337" cy="221.93846153846152" r="4"></circle><circle cx="286.66666666666663" cy="221.93846153846152" r="4"></circle><circle cx="312.5" cy="221.93846153846152" r="4"></circle><circle cx="338.33333333333337" cy="233.04615384615386" r="4"></circle><circle cx="364.16666666666663" cy="233.04615384615386" r="4"></circle><circle cx="390" cy="233.04615384615386" r="4"></circle><circle cx="415.8333333333333" cy="233.04615384615386" r="4"></circle><circle cx="441.6666666666667" cy="221.93846153846152" r="4"></circle><circle cx="467.5" cy="270.46153846153845" r="4"></circle><circle cx="493.3333333333333" cy="270.46153846153845" r="4"></circle><circle cx="519.1666666666667" cy="253.50769230769225" r="4"></circle><circle cx="545" cy="265.7846153846154" r="4"></circle><circle cx="570.8333333333333" cy="303.7846153846154" r="4"></circle><circle cx="596.6666666666667" cy="289.16923076923075" r="4"></circle><circle cx="622.5" cy="86.89230769230771" r="4"></circle></g></g></svg>