<svg xmlns="http://www.w3.org/2000/svg" width="720" height="540" viewBox="0,0,720,540"><g fill="none" stroke-linecap="round"><rect width="720" height="540" fill="#ffffff"></rect><g transform="translate(0,440)" fill="none" font-size="10" font-family="sans-serif" text-anchor="middle"><path class="domain" stroke="currentColor" d="M80.5,6V0.5H700.5V6"></path><g class="tick" opacity="1" transform="translate(80.5,0)"><line stroke="currentColor" y2="6"></line><text fill="currentColor" y="9" dy="0.71em">1996</text></g><g class="tick" opacity="1" transform="translate(132.16666666666666,0)"><line stroke="currentColor" y2="6"></line><text fill="currentColor" y="9" dy="0.71em">1998</text></g><g class="tick" opacity="1" transform="translate(183.83333333333331,0)"><line stroke="currentColor" y2="6"></line><text fill="currentColor" y="9" dy="0.71em">2000</text></g><g class="tick" opacity="1" transform="translate(235.5,0)"><line stroke="currentColor" y2="6"></line><text fill="currentColor" y="9" dy="0.71em">2002</text></g><g class="tick" opacity="1" transform="translate(287.16666666666663,0)"><line stroke="currentColor" y2="6"></line><text fill="currentColor" y="9" dy="0.71em">2004</text></g><g class="tick" opacity="1" transform="translate(338.83333333333337,0)"><line stroke="currentColor" y2="6"></line><text fill="currentColor" y="9" dy="0.71em">2006</text></g><g class="tick" opacity="1" transform="translate(390.5,0)"><line stroke="currentColor" y2="6"></line><text fill="currentColor" y="9" dy="0.71em">2008</text></g><g class="tick" opacity="1" transform="translate(442.1666666666667,0)"><line stroke="currentColor" y2="6"></line><text fill="currentColor" y="9" dy="0.71em">2010</text></g><g class="tick" opacity="1" transform="translate(493.8333333333333,0)"><line stroke="currentColor" y2="6"></line><text fill="currentColor" y="9" dy="0.71em">2012</text></g><g class="tick" opacity="1" transform="translate(545.5,0)"><line stroke="currentColor" y2="6"></line><text fill="currentColor" y="9" dy="0.71em">2014</text></g><g class="tick" opacity="1" transform="translate(597.1666666666667,0)"><line stroke="currentColor" y2="6"></line><text fill="currentColor" y="9" dy="0.71em">2016</text></g><g class="tick" opacity="1" transform="translate(648.8333333333333,0)"><line stroke="currentColor" y2="6"></line><text fill="currentColor" y="9" dy="0.71em">2018</text></g><g class="tick" opacity="1" transform="translate(700.5,0)"><line stroke="currentColor" y2="6"></line><text fill="currentColor" y="9" dy="0.71em">2020</text></g></g><g transform="translate(80,0)" fill="none" font-size="10" font-family="sans-serif" text-anchor="end"><g class="tick" opacity="1" transform="translate(0,440.5)"><line stroke="currentColor" x2="-6"></line><text fill="currentColor" x="-9" dy="0.32em">0</text></g><g class="tick" opacity="1" transform="translate(0,398.27777777777777)"><line stroke="currentColor" x2="-6"></line><text fill="currentColor" x="-9" dy="0.32em">100</text></g><g class="tick" opacity="1" transform="translate(0,356.05555555555554)"><line stroke="currentColor" x2="-6"></line><text fill="currentColor" x="-9" dy="0.32em">200</text></g><g class="tick" opacity="1" transform="translate(0,313.83333333333337)"><line stroke="currentColor" x2="-6"></line><text fill="currentColor" x="-9" dy="0.32em">300</text></g><g class="tick" opacity="1" transform="translate(0,271.61111111111114)"><line stroke="currentColor" x2="-6"></line><text fill="currentColor" x="-9" dy="0.32em">400</text></g><g class="tick" opacity="1" transform="translate(0,229.38888888888889)"><line stroke="currentColor" x2="-6"></line><text fill="currentColor" x="-9" dy="0.32em">500</text></g><g class="tick" opacity="1" transform="translate(0,187.16666666666669)"><line stroke="currentColor" x2="-6"></line><text fill="currentColor" x="-9" dy="0.32em">600</text></g><g class="tick" opacity="1" transform="translate(0,144.94444444444443)"><line stroke="currentColor" x2="-6"></line><text fill="currentColor" x="-9" dy="0.32em">700</text></g><g class="tick" opacity="1" transform="translate(0,102.72222222222224)"><line stroke="currentColor" x2="-6"></line><text fill="currentColor" x="-9" dy="0.32em">800</text></g><g class="tick" opacity="1" transform="translate(0,60.5)"><line stroke="currentColor" x2="-6"></line><text fill="currentColor" x="-9" dy="0.32em">900</text></g></g><line x1="570.8333333333333" y1="328.1111111111111" x2="80" y2="328.1111111111111" style="stroke: steelblue; stroke-width: 2;"></line><line x1="570.8333333333333" y1="328.1111111111111" x2="700" y2="417.62222222222226" style="stroke: green; stroke-width: 2;"></line><path fill="none" stroke="black" stroke-width="2.5" stroke-linejoin="round" stroke-linecap="round" d="M105.83333333333334,76.04444444444447C105.83333333333334,76.04444444444447,123.05555555555554,76.04444444444448,131.66666666666666,76.04444444444447C140.27777777777774,76.04444444444447,148.88888888888889,76.04444444444447,157.5,76.04444444444447C166.11111111111111,76.04444444444447,176.06098292249573,69.28844966989912,183.33333333333331,76.04444444444447C210.15480221698004,100.9615198583998,182.34519778301996,401.5718134749336,209.16666666666669,426.4888888888889C216.43901707750422,433.24488366343417,226.38888888888894,426.4888888888889,235,426.4888888888889C243.61111111111114,426.4888888888888,252.97208066691823,430.12485782806266,260.83333333333337,426.4888888888889C270.60243506266914,421.9705058831826,276.89756493733086,400.60727189459527,286.66666666666663,396.0888888888889C294.5279193330818,392.4529199497151,303.88888888888886,396.08888888888885,312.5,396.0888888888889C321.1111111111112,396.0888888888889,331.17420230678323,401.74880404739093,338.33333333333337,396.0888888888889C353.2369288841434,384.306301580264,349.26307111585663,298.93814286418046,364.16666666666663,287.1555555555555C371.32579769321677,281.4956403970535,381.3888888888889,287.15555555555545,390,287.1555555555555C398.6111111111111,287.15555555555557,407.3821023583644,285.49557280208205,415.8333333333333,287.1555555555555C424.61715611999523,288.8808656764848,432.88284388000454,295.98580099018153,441.6666666666667,297.7111111111111C450.11789764163547,299.37109386458457,459.99659327112744,293.18560710624104,467.5,297.7111111111111C478.48544898613915,304.336727338307,484.58446889351103,346.5398303465188,493.3333333333333,346.6888888888889C501.814977521457,346.8333946734145,511.64692476921135,300.44661424960213,519.1666666666667,301.5111111111111C530.0739003271709,303.0551422969794,530.5684386895595,392.54184809655123,545,407.9111111111111C552.1731437972127,415.55033539801224,563.6466989977872,419.94415155976213,570.8333333333333,415.93333333333334C584.9082897204909,408.0781832063008,583.9941248419109,319.40151078085603,596.6666666666667,315.4444444444445C603.9399221084382,313.1733330397433,622.5,337.8222222222222,622.5,337.8222222222222"></path><g fill="#ffffff"><circle cx="105.83333333333334" cy="76.04444444444447" r="8"></circle><circle cx="131.66666666666666" cy="76.04444444444447" r="8"></circle><circle cx="157.5" cy="76.04444444444447" r="8"></circle><circle cx="183.33333333333331" cy="76.04444444444447" r="8"></circle><circle cx="209.16666666666669" cy="426.4888888888889" r="8"></circle><circle cx="235" cy="426.4888888888889" r="8"></circle><circle cx="260.83333333333337" cy="426.4888888888889" r="8"></circle><circle cx="286.66666666666663" cy="396.0888888888889" r="8"></circle><circle cx="312.5" cy="396.0888888888889" r="8"></circle><circle cx="338.33333333333337" cy="396.0888888888889" r="8"></circle><circle cx="364.16666666666663" cy="287.1555555555555" r="8"></circle><circle cx="390" cy="287.1555555555555" r="8"></circle><circle cx="415.8333333333333" cy="287.1555555555555" r="8"></circle><circle cx="441.6666666666667" cy="297.7111111111111" r="8"></circle><circle cx="467.5" cy="297.7111111111111" r="8"></circle><circle cx="493.3333333333333" cy="346.6888888888889" r="8"></circle><circle cx="519.1666666666667" cy="301.5111111111111" r="8"></circle><circle cx="545" cy="407.9111111111111" r="8"></circle><circle cx="570.8333333333333" cy="415.93333333333334" r="8"></circle><circle cx="596.6666666666667" cy="315.4444444444445" r="8"></circle><circle cx="622.5" cy="337.8222222222222" r="8"></circle></g><g stroke="steelblue" stroke-width="2" fill="none"><circle cx="105.83333333333334" cy="76.04444444444447" r="4"></circle><circle cx="131.66666666666666" cy="76.04444444444447" r="4"></circle><circle cx="157.5" cy="76.04444444444447" r="4"></circle><circle cx="183.33333333333331" cy="76.04444444444447" r="4"></circle><circle cx="209.16666666666669" cy="426.4888888888889" r="4"></circle><circle cx="235" cy="426.4888888888889" r="4"></circle><circle cx="260.83333333333337" cy="426.4888888888889" r="4"></circle><circle cx="286.66666666666663" cy="396.0888888888889" r="4"></circle><circle cx="312.5" cy="396.0888888888889" r="4"></circle><circle cx="338.33333333333337" cy="396.0888888888889" r="4"></circle><circle cx="364.16666666666663" cy="287.1555555555555" r="4"></circle><circle cx="390" cy="287.1555555555555" r="4"></circle><circle cx="415.8333333333333" cy="287.1555555555555" r="4"></circle><circle cx="441.6666666666667" cy="297.7111111111111" r="4"></circle><circle cx="467.5" cy="297.7111111111111" r="4"></circle><circle cx="493.3333333333333" cy="346.6888888888889" r="4"></circle><circle cx="519.1666666666667" cy="301.5111111111111" r="4"></circle><circle cx="545" cy="407.9111111111111" r="4"></circle><circle cx="570.8333333333333" cy="415.93333333333334" r="4"></circle><circle cx="596.6666666666667" cy="315.4444444444445" r="4"></circle><circle cx="622.5" cy="337.8222222222222" r="4"></circle></g><path transform="translate(700,417.62222222222226)" d="M0,-14.71415478191356L8.495221224235612,0L0,14.71415478191356L-8.495221224235612,0Z" fill="#ffffff"></path><path transform="translate(700,417.62222222222226)" d="M0,-11.397535284773888L6.5803700647624614,0L0,11.397535284773888L-6.5803700647624614,0Z" fill="#33cc33"></path></g></svg>