<svg xmlns="http://www.w3.org/2000/svg" width="720" height="540" viewBox="0,0,720,540"><g fill="none" stroke-linecap="round"><rect width="720" height="540" fill="#ffffff"></rect><g transform="translate(0,440)" fill="none" font-size="10" font-family="sans-serif" text-anchor="middle"><path class="domain" stroke="currentColor" d="M80.5,6V0.5H700.5V6"></path><g class="tick" opacity="1" transform="translate(80.5,0)"><line stroke="currentColor" y2="6"></line><text fill="currentColor" y="9" dy="0.71em">1996</text></g><g class="tick" opacity="1" transform="translate(132.16666666666666,0)"><line stroke="currentColor" y2="6"></line><text fill="currentColor" y="9" dy="0.71em">1998</text></g><g class="tick" opacity="1" transform="translate(183.83333333333331,0)"><line stroke="currentColor" y2="6"></line><text fill="currentColor" y="9" dy="0.71em">2000</text></g><g class="tick" opacity="1" transform="translate(235.5,0)"><line stroke="currentColor" y2="6"></line><text fill="currentColor" y="9" dy="0.71em">2002</text></g><g class="tick" opacity="1" transform="translate(287.16666666666663,0)"><line stroke="currentColor" y2="6"></line><text fill="currentColor" y="9" dy="0.71em">2004</text></g><g class="tick" opacity="1" transform="translate(338.83333333333337,0)"><line stroke="currentColor" y2="6"></line><text fill="currentColor" y="9" dy="0.71em">2006</text></g><g class="tick" opacity="1" transform="translate(390.5,0)"><line stroke="currentColor" y2="6"></line><text fill="currentColor" y="9" dy="0.71em">2008</text></g><g class="tick" opacity="1" transform="translate(442.1666666666667,0)"><line stroke="currentColor" y2="6"></line><text fill="currentColor" y="9" dy="0.71em">2010</text></g><g class="tick" opacity="1" transform="translate(493.8333333333333,0)"><line stroke="currentColor" y2="6"></line><text fill="currentColor" y="9" dy="0.71em">2012</text></g><g class="tick" opacity="1" transform="translate(545.5,0)"><line stroke="currentColor" y2="6"></line><text fill="currentColor" y="9" dy="0.71em">2014</text></g><g class="tick" opacity="1" transform="translate(597.1666666666667,0)"><line stroke="currentColor" y2="6"></line><text fill="currentColor" y="9" dy="0.71em">2016</text></g><g class="tick" opacity="1" transform="translate(648.8333333333333,0)"><line stroke="currentColor" y2="6"></line><text fill="currentColor" y="9" dy="0.71em">2018</text></g><g class="tick" opacity="1" transform="translate(700.5,0)"><line stroke="currentColor" y2="6"></line><text fill="currentColor" y="9" dy="0.71em">2020</text></g></g><g transform="translate(80,0)" fill="none" font-size="10" font-family="sans-serif" text-anchor="end"><g class="tick" opacity="1" transform="translate(0,440.5)"><line stroke="currentColor" x2="-6"></line><text fill="currentColor" x="-9" dy="0.32em">0.0k</text></g><g class="tick" opacity="1" transform="translate(0,415.1666666666667)"><line stroke="currentColor" x2="-6"></line><text fill="currentColor" x="-9" dy="0.32em">0.2k</text></g><g class="tick" opacity="1" transform="translate(0,389.83333333333337)"><line stroke="currentColor" x2="-6"></line><text fill="currentColor" x="-9" dy="0.32em">0.4k</text></g><g class="tick" opacity="1" transform="translate(0,364.5)"><line stroke="currentColor" x2="-6"></line><text fill="currentColor" x="-9" dy="0.32em">0.6k</text></g><g class="tick" opacity="1" transform="translate(0,339.1666666666667)"><line stroke="currentColor" x2="-6"></line><text fill="currentColor" x="-9" dy="0.32em">0.8k</text></g><g class="tick" opacity="1" transform="translate(0,313.83333333333337)"><line stroke="currentColor" x2="-6"></line><text fill="currentColor" x="-9" dy="0.32em">1.0k</text></g><g class="tick" opacity="1" transform="translate(0,288.5)"><line stroke="currentColor" x2="-6"></line><text fill="currentColor" x="-9" dy="0.32em">1.2k</text></g><g class="tick" opacity="1" transform="translate(0,263.16666666666663)"><line stroke="currentColor" x2="-6"></line><text fill="currentColor" x="-9" dy="0.32em">1.4k</text></g><g class="tick" opacity="1" transform="translate(0,237.83333333333334)"><line stroke="currentColor" x2="-6"></line><text fill="currentColor" x="-9" dy="0.32em">1.6k</text></g><g class="tick" opacity="1" transform="translate(0,212.5)"><line stroke="currentColor" x2="-6"></line><text fill="currentColor" x="-9" dy="0.32em">1.8k</text></g><g class="tick" opacity="1" transform="translate(0,187.16666666666669)"><line stroke="currentColor" x2="-6"></line><text fill="currentColor" x="-9" dy="0.32em">2.0k</text></g><g class="tick" opacity="1" transform="translate(0,161.83333333333337)"><line stroke="currentColor" x2="-6"></line><text fill="currentColor" x="-9" dy="0.32em">2.2k</text></g><g class="tick" opacity="1" transform="translate(0,136.5)"><line stroke="currentColor" x2="-6"></line><text fill="currentColor" x="-9" dy="0.32em">2.4k</text></g><g class="tick" opacity="1" transform="translate(0,111.16666666666666)"><line stroke="currentColor" x2="-6"></line><text fill="currentColor" x="-9" dy="0.32em">2.6k</text></g><g class="tick" opacity="1" transform="translate(0,85.83333333333333)"><line stroke="currentColor" x2="-6"></line><text fill="currentColor" x="-9" dy="0.32em">2.8k</text></g><g class="tick" opacity="1" transform="translate(0,60.5)"><line stroke="currentColor" x2="-6"></line><text fill="currentColor" x="-9" dy="0.32em">3.0k</text></g></g><path fill="none" stroke="black" stroke-width="2.5" stroke-linejoin="round" stroke-linecap="round" d="M80,440C80,440,78.20482877209103,95.39522303581336,105.83333333333334,69.62666666666667C113.12120672320867,62.829412191965524,123.05555555555554,69.62666666666667,131.66666666666666,69.62666666666667C140.27777777777774,69.62666666666667,148.88888888888889,69.62666666666667,157.5,69.62666666666667C166.11111111111111,69.62666666666667,176.07200663963494,62.90134863318395,183.33333333333331,69.62666666666667C209.58098930976,93.9368019244711,182.91901069023984,381.8698647421955,209.16666666666669,406.18C216.4279933603651,412.9053180334828,226.38888888888894,406.18000000000006,235,406.18C243.61111111111114,406.17999999999995,253.56537492393946,411.3633115628801,260.83333333333337,406.18C273.56810337286225,397.0979060915934,273.93189662713775,340.2754272417399,286.66666666666663,331.1933333333333C293.9346250760605,326.01002177045325,303.88888888888886,331.1933333333333,312.5,331.1933333333333C321.1111111111112,331.1933333333333,330.99183266838423,326.2369806095922,338.33333333333337,331.1933333333333C350.3406277231176,339.299630529178,352.15937227688244,387.18036947082203,364.16666666666663,395.28666666666663C371.5081673316159,400.2430193904078,381.3888888888889,395.2866666666666,390,395.28666666666663C398.6111111111111,395.2866666666667,408.1220079792858,391.2745167059764,415.8333333333333,395.28666666666663C426.0122081527124,400.58266577595157,431.48779184728767,426.8506675573817,441.6666666666667,432.1466666666667C449.3779920207141,436.1588166273568,459.389795274576,435.0967930178828,467.5,432.1466666666667C476.7647893589508,428.7765545484576,484.35800493885466,411.5594840151595,493.3333333333333,410.4866666666667C501.63299962121056,409.4946109346655,510.4430707052619,422.7539968737899,519.1666666666667,423.28C527.6708793842611,423.79277506376957,537.5833690746509,421.1013056690055,545,414.15999999999997C556.4660036548498,403.42884228548746,562.6485913205944,353.64983481155036,570.8333333333333,353.99333333333334C579.9765166684396,354.37705586913364,584.651692934316,427.20465648957264,596.6666666666667,431.5133333333333C604.0072427098684,434.14572943521136,622.5,415.3,622.5,415.3"></path><g fill="#ffffff"><circle cx="80" cy="440" r="8"></circle><circle cx="105.83333333333334" cy="69.62666666666667" r="8"></circle><circle cx="131.66666666666666" cy="69.62666666666667" r="8"></circle><circle cx="157.5" cy="69.62666666666667" r="8"></circle><circle cx="183.33333333333331" cy="69.62666666666667" r="8"></circle><circle cx="209.16666666666669" cy="406.18" r="8"></circle><circle cx="235" cy="406.18" r="8"></circle><circle cx="260.83333333333337" cy="406.18" r="8"></circle><circle cx="286.66666666666663" cy="331.1933333333333" r="8"></circle><circle cx="312.5" cy="331.1933333333333" r="8"></circle><circle cx="338.33333333333337" cy="331.1933333333333" r="8"></circle><circle cx="364.16666666666663" cy="395.28666666666663" r="8"></circle><circle cx="390" cy="395.28666666666663" r="8"></circle><circle cx="415.8333333333333" cy="395.28666666666663" r="8"></circle><circle cx="441.6666666666667" cy="432.1466666666667" r="8"></circle><circle cx="467.5" cy="432.1466666666667" r="8"></circle><circle cx="493.3333333333333" cy="410.4866666666667" r="8"></circle><circle cx="519.1666666666667" cy="423.28" r="8"></circle><circle cx="545" cy="414.15999999999997" r="8"></circle><circle cx="570.8333333333333" cy="353.99333333333334" r="8"></circle><circle cx="596.6666666666667" cy="431.5133333333333" r="8"></circle><circle cx="622.5" cy="415.3" r="8"></circle></g><g stroke="steelblue" stroke-width="2" fill="none"><circle cx="80" cy="440" r="4"></circle><circle cx="105.83333333333334" cy="69.62666666666667" r="4"></circle><circle cx="131.66666666666666" cy="69.62666666666667" r="4"></circle><circle cx="157.5" cy="69.62666666666667" r="4"></circle><circle cx="183.33333333333331" cy="69.62666666666667" r="4"></circle><circle cx="209.16666666666669" cy="406.18" r="4"></circle><circle cx="235" cy="406.18" r="4"></circle><circle cx="260.83333333333337" cy="406.18" r="4"></circle><circle cx="286.66666666666663" cy="331.1933333333333" r="4"></circle><circle cx="312.5" cy="331.1933333333333" r="4"></circle><circle cx="338.33333333333337" cy="331.1933333333333" r="4"></circle><circle cx="364.16666666666663" cy="395.28666666666663" r="4"></circle><circle cx="390" cy="395.28666666666663" r="4"></circle><circle cx="415.8333333333333" cy="395.28666666666663" r="4"></circle><circle cx="441.6666666666667" cy="432.1466666666667" r="4"></circle><circle cx="467.5" cy="432.1466666666667" r="4"></circle><circle cx="493.3333333333333" cy="410.4866666666667" r="4"></circle><circle cx="519.1666666666667" cy="423.28" r="4"></circle><circle cx="545" cy="414.15999999999997" r="4"></circle><circle cx="570.8333333333333" cy="353.99333333333334" r="4"></circle><circle cx="596.6666666666667" cy="431.5133333333333" r="4"></circle><circle cx="622.5" cy="415.3" r="4"></circle></g></g></svg>