<svg xmlns="http://www.w3.org/2000/svg" width="720" height="540" viewBox="0,0,720,540"><g fill="none" stroke-linecap="round"><rect width="720" height="540" fill="#ffffff"></rect><g transform="translate(0,440)" fill="none" font-size="10" font-family="sans-serif" text-anchor="middle"><path class="domain" stroke="currentColor" d="M80.5,6V0.5H700.5V6"></path><g class="tick" opacity="1" transform="translate(80.5,0)"><line stroke="currentColor" y2="6"></line><text fill="currentColor" y="9" dy="0.71em">1996</text></g><g class="tick" opacity="1" transform="translate(132.16666666666666,0)"><line stroke="currentColor" y2="6"></line><text fill="currentColor" y="9" dy="0.71em">1998</text></g><g class="tick" opacity="1" transform="translate(183.83333333333331,0)"><line stroke="currentColor" y2="6"></line><text fill="currentColor" y="9" dy="0.71em">2000</text></g><g class="tick" opacity="1" transform="translate(235.5,0)"><line stroke="currentColor" y2="6"></line><text fill="currentColor" y="9" dy="0.71em">2002</text></g><g class="tick" opacity="1" transform="translate(287.16666666666663,0)"><line stroke="currentColor" y2="6"></line><text fill="currentColor" y="9" dy="0.71em">2004</text></g><g class="tick" opacity="1" transform="translate(338.83333333333337,0)"><line stroke="currentColor" y2="6"></line><text fill="currentColor" y="9" dy="0.71em">2006</text></g><g class="tick" opacity="1" transform="translate(390.5,0)"><line stroke="currentColor" y2="6"></line><text fill="currentColor" y="9" dy="0.71em">2008</text></g><g class="tick" opacity="1" transform="translate(442.1666666666667,0)"><line stroke="currentColor" y2="6"></line><text fill="currentColor" y="9" dy="0.71em">2010</text></g><g class="tick" opacity="1" transform="translate(493.8333333333333,0)"><line stroke="currentColor" y2="6"></line><text fill="currentColor" y="9" dy="0.71em">2012</text></g><g class="tick" opacity="1" transform="translate(545.5,0)"><line stroke="currentColor" y2="6"></line><text fill="currentColor" y="9" dy="0.71em">2014</text></g><g class="tick" opacity="1" transform="translate(597.1666666666667,0)"><line stroke="currentColor" y2="6"></line><text fill="currentColor" y="9" dy="0.71em">2016</text></g><g class="tick" opacity="1" transform="translate(648.8333333333333,0)"><line stroke="currentColor" y2="6"></line><text fill="currentColor" y="9" dy="0.71em">2018</text></g><g class="tick" opacity="1" transform="translate(700.5,0)"><line stroke="currentColor" y2="6"></line><text fill="currentColor" y="9" dy="0.71em">2020</text></g></g><g transform="translate(80,0)" fill="none" font-size="10" font-family="sans-serif" text-anchor="end"><g class="tick" opacity="1" transform="translate(0,440.5)"><line stroke="currentColor" x2="-6"></line><text fill="currentColor" x="-9" dy="0.32em">0</text></g><g class="tick" opacity="1" transform="translate(0,402.5)"><line stroke="currentColor" x2="-6"></line><text fill="currentColor" x="-9" dy="0.32em">10</text></g><g class="tick" opacity="1" transform="translate(0,364.5)"><line stroke="currentColor" x2="-6"></line><text fill="currentColor" x="-9" dy="0.32em">20</text></g><g class="tick" opacity="1" transform="translate(0,326.5)"><line stroke="currentColor" x2="-6"></line><text fill="currentColor" x="-9" dy="0.32em">30</text></g><g class="tick" opacity="1" transform="translate(0,288.5)"><line stroke="currentColor" x2="-6"></line><text fill="currentColor" x="-9" dy="0.32em">40</text></g><g class="tick" opacity="1" transform="translate(0,250.5)"><line stroke="currentColor" x2="-6"></line><text fill="currentColor" x="-9" dy="0.32em">50</text></g><g class="tick" opacity="1" transform="translate(0,212.5)"><line stroke="currentColor" x2="-6"></line><text fill="currentColor" x="-9" dy="0.32em">60</text></g><g class="tick" opacity="1" transform="translate(0,174.50000000000003)"><line stroke="currentColor" x2="-6"></line><text fill="currentColor" x="-9" dy="0.32em">70</text></g><g class="tick" opacity="1" transform="translate(0,136.5)"><line stroke="currentColor" x2="-6"></line><text fill="currentColor" x="-9" dy="0.32em">80</text></g><g class="tick" opacity="1" transform="translate(0,98.5)"><line stroke="currentColor" x2="-6"></line><text fill="currentColor" x="-9" dy="0.32em">90</text></g><g class="tick" opacity="1" transform="translate(0,60.5)"><line stroke="currentColor" x2="-6"></line><text fill="currentColor" x="-9" dy="0.32em">100</text></g></g><line x1="570.8333333333333" y1="322.2" x2="80" y2="322.2" style="stroke: steelblue; stroke-width: 2;"></line><line x1="570.8333333333333" y1="322.2" x2="700" y2="417.2" style="stroke: green; stroke-width: 2;"></line><path fill="none" stroke="black" stroke-width="2.5" stroke-linejoin="round" stroke-linecap="round" d="M80,440C80,440,96.37753543270199,391.77542214589386,105.83333333333334,371.6C113.83897572352471,354.51871120041733,124.19660362345279,324.899289224397,131.66666666666666,326C142.82270537039557,327.6438378020641,142.28662892125467,427.8483802488191,157.5,440C164.65198007391479,445.7126156902631,175.36987285762243,443.3669856222058,183.33333333333331,440C192.874051129809,435.9661431428918,200.55555555555563,413.4,209.16666666666669,413.4C217.7777777777778,413.4000000000001,227.65394993758179,441.89637876350315,235,440C246.96993618842782,436.90996758865685,251.8488068087619,375.1854250660689,260.83333333333337,345C269.12630180586865,317.1380110884671,276.98049946957,266.01923055184545,286.66666666666663,265.20000000000005C294.5632687678313,264.532126158324,301.85102133764633,304.63408678156117,312.5,314.59999999999997C320.0788927815031,321.69275416424006,330.4487857435245,328.0480873822638,338.33333333333337,326C348.04728230538285,323.4767079410715,357.0317277432306,309.7178644614414,364.16666666666663,291.79999999999995C380.8107483311679,250.0019688535646,379.3088207689789,60.59856024553452,390,60C397.56864375279406,59.57625916045907,405.78249798154843,141.6951059785979,415.8333333333333,174.00000000000003C423.5875119665886,198.92309446954022,429.8312257224394,227.8311001675366,441.6666666666667,238.6C449.0298234916456,245.2996319505605,460.2870652445896,238.91390288833387,467.5,246.2C481.032763230332,259.87002897280104,480.43235289719973,320.6910045344291,493.3333333333333,337.4C500.58792829192043,346.795952103615,511.0881676245877,353.96425504871354,519.1666666666667,352.6C528.4866730257073,351.0260856301234,536.049575879322,322.84249752756085,545,322.2C553.3180511710113,321.6028967522162,562.5152821623218,336.5245841428927,570.8333333333333,345C579.7837574540114,354.1197523266746,587.892238852265,375.1085348048724,596.6666666666667,375.4C605.1259807412966,375.6809978815211,622.5,348.79999999999995,622.5,348.79999999999995"></path><g fill="#ffffff"><circle cx="80" cy="440" r="8"></circle><circle cx="105.83333333333334" cy="371.6" r="8"></circle><circle cx="131.66666666666666" cy="326" r="8"></circle><circle cx="157.5" cy="440" r="8"></circle><circle cx="183.33333333333331" cy="440" r="8"></circle><circle cx="209.16666666666669" cy="413.4" r="8"></circle><circle cx="235" cy="440" r="8"></circle><circle cx="260.83333333333337" cy="345" r="8"></circle><circle cx="286.66666666666663" cy="265.20000000000005" r="8"></circle><circle cx="312.5" cy="314.59999999999997" r="8"></circle><circle cx="338.33333333333337" cy="326" r="8"></circle><circle cx="364.16666666666663" cy="291.79999999999995" r="8"></circle><circle cx="390" cy="60" r="8"></circle><circle cx="415.8333333333333" cy="174.00000000000003" r="8"></circle><circle cx="441.6666666666667" cy="238.6" r="8"></circle><circle cx="467.5" cy="246.2" r="8"></circle><circle cx="493.3333333333333" cy="337.4" r="8"></circle><circle cx="519.1666666666667" cy="352.6" r="8"></circle><circle cx="545" cy="322.2" r="8"></circle><circle cx="570.8333333333333" cy="345" r="8"></circle><circle cx="596.6666666666667" cy="375.4" r="8"></circle><circle cx="622.5" cy="348.79999999999995" r="8"></circle></g><g stroke="steelblue" stroke-width="2" fill="none"><circle cx="80" cy="440" r="4"></circle><circle cx="105.83333333333334" cy="371.6" r="4"></circle><circle cx="131.66666666666666" cy="326" r="4"></circle><circle cx="157.5" cy="440" r="4"></circle><circle cx="183.33333333333331" cy="440" r="4"></circle><circle cx="209.16666666666669" cy="413.4" r="4"></circle><circle cx="235" cy="440" r="4"></circle><circle cx="260.83333333333337" cy="345" r="4"></circle><circle cx="286.66666666666663" cy="265.20000000000005" r="4"></circle><circle cx="312.5" cy="314.59999999999997" r="4"></circle><circle cx="338.33333333333337" cy="326" r="4"></circle><circle cx="364.16666666666663" cy="291.79999999999995" r="4"></circle><circle cx="390" cy="60" r="4"></circle><circle cx="415.8333333333333" cy="174.00000000000003" r="4"></circle><circle cx="441.6666666666667" cy="238.6" r="4"></circle><circle cx="467.5" cy="246.2" r="4"></circle><circle cx="493.3333333333333" cy="337.4" r="4"></circle><circle cx="519.1666666666667" cy="352.6" r="4"></circle><circle cx="545" cy="322.2" r="4"></circle><circle cx="570.8333333333333" cy="345" r="4"></circle><circle cx="596.6666666666667" cy="375.4" r="4"></circle><circle cx="622.5" cy="348.79999999999995" r="4"></circle></g><path transform="translate(700,417.2)" d="M0,-14.71415478191356L8.495221224235612,0L0,14.71415478191356L-8.495221224235612,0Z" fill="#ffffff"></path><path transform="translate(700,417.2)" d="M0,-11.397535284773888L6.5803700647624614,0L0,11.397535284773888L-6.5803700647624614,0Z" fill="#33cc33"></path></g></svg>