<svg xmlns="http://www.w3.org/2000/svg" width="720" height="540" viewBox="0,0,720,540"><g fill="none" stroke-linecap="round"><rect width="720" height="540" fill="#ffffff"></rect><g transform="translate(0,510)" fill="none" font-size="10" font-family="sans-serif" text-anchor="middle"><path class="domain" stroke="currentColor" d="M40.5,6V0.5H700.5V6"></path><g class="tick" opacity="1" transform="translate(40.5,0)"><line stroke="currentColor" y2="6"></line><text fill="currentColor" y="9" dy="0.71em">1996</text></g><g class="tick" opacity="1" transform="translate(95.5,0)"><line stroke="currentColor" y2="6"></line><text fill="currentColor" y="9" dy="0.71em">1998</text></g><g class="tick" opacity="1" transform="translate(150.5,0)"><line stroke="currentColor" y2="6"></line><text fill="currentColor" y="9" dy="0.71em">2000</text></g><g class="tick" opacity="1" transform="translate(205.5,0)"><line stroke="currentColor" y2="6"></line><text fill="currentColor" y="9" dy="0.71em">2002</text></g><g class="tick" opacity="1" transform="translate(260.5,0)"><line stroke="currentColor" y2="6"></line><text fill="currentColor" y="9" dy="0.71em">2004</text></g><g class="tick" opacity="1" transform="translate(315.5,0)"><line stroke="currentColor" y2="6"></line><text fill="currentColor" y="9" dy="0.71em">2006</text></g><g class="tick" opacity="1" transform="translate(370.5,0)"><line stroke="currentColor" y2="6"></line><text fill="currentColor" y="9" dy="0.71em">2008</text></g><g class="tick" opacity="1" transform="translate(425.50000000000006,0)"><line stroke="currentColor" y2="6"></line><text fill="currentColor" y="9" dy="0.71em">2010</text></g><g class="tick" opacity="1" transform="translate(480.49999999999994,0)"><line stroke="currentColor" y2="6"></line><text fill="currentColor" y="9" dy="0.71em">2012</text></g><g class="tick" opacity="1" transform="translate(535.5,0)"><line stroke="currentColor" y2="6"></line><text fill="currentColor" y="9" dy="0.71em">2014</text></g><g class="tick" opacity="1" transform="translate(590.5,0)"><line stroke="currentColor" y2="6"></line><text fill="currentColor" y="9" dy="0.71em">2016</text></g><g class="tick" opacity="1" transform="translate(645.5,0)"><line stroke="currentColor" y2="6"></line><text fill="currentColor" y="9" dy="0.71em">2018</text></g><g class="tick" opacity="1" transform="translate(700.5,0)"><line stroke="currentColor" y2="6"></line><text fill="currentColor" y="9" dy="0.71em">2020</text></g></g><g transform="translate(40,0)" fill="none" font-size="10" font-family="sans-serif" text-anchor="end"><path class="domain" stroke="currentColor" d="M-6,510.5H0.5V20.5H-6"></path><g class="tick" opacity="1" transform="translate(0,510.5)"><line stroke="currentColor" x2="-6"></line><text fill="currentColor" x="-9" dy="0.32em">0</text></g><g class="tick" opacity="1" transform="translate(0,473.2659574468085)"><line stroke="currentColor" x2="-6"></line><text fill="currentColor" x="-9" dy="0.32em">50</text></g><g class="tick" opacity="1" transform="translate(0,436.03191489361706)"><line stroke="currentColor" x2="-6"></line><text fill="currentColor" x="-9" dy="0.32em">100</text></g><g class="tick" opacity="1" transform="translate(0,398.7978723404255)"><line stroke="currentColor" x2="-6"></line><text fill="currentColor" x="-9" dy="0.32em">150</text></g><g class="tick" opacity="1" transform="translate(0,361.5638297872341)"><line stroke="currentColor" x2="-6"></line><text fill="currentColor" x="-9" dy="0.32em">200</text></g><g class="tick" opacity="1" transform="translate(0,324.32978723404256)"><line stroke="currentColor" x2="-6"></line><text fill="currentColor" x="-9" dy="0.32em">250</text></g><g class="tick" opacity="1" transform="translate(0,287.09574468085106)"><line stroke="currentColor" x2="-6"></line><text fill="currentColor" x="-9" dy="0.32em">300</text></g><g class="tick" opacity="1" transform="translate(0,249.86170212765958)"><line stroke="currentColor" x2="-6"></line><text fill="currentColor" x="-9" dy="0.32em">350</text></g><g class="tick" opacity="1" transform="translate(0,212.62765957446808)"><line stroke="currentColor" x2="-6"></line><text fill="currentColor" x="-9" dy="0.32em">400</text></g><g class="tick" opacity="1" transform="translate(0,175.3936170212766)"><line stroke="currentColor" x2="-6"></line><text fill="currentColor" x="-9" dy="0.32em">450</text></g><g class="tick" opacity="1" transform="translate(0,138.15957446808508)"><line stroke="currentColor" x2="-6"></line><text fill="currentColor" x="-9" dy="0.32em">500</text></g><g class="tick" opacity="1" transform="translate(0,100.9255319148936)"><line stroke="currentColor" x2="-6"></line><text fill="currentColor" x="-9" dy="0.32em">550</text></g><g class="tick" opacity="1" transform="translate(0,63.691489361702125)"><line stroke="currentColor" x2="-6"></line><text fill="currentColor" x="-9" dy="0.32em">600</text></g><g class="tick" opacity="1" transform="translate(0,26.45744680851064)"><line stroke="currentColor" x2="-6"></line><text fill="currentColor" x="-9" dy="0.32em">650</text></g></g><g stroke="steelblue" stroke-width="1.5" fill="none"><circle cx="40" cy="241.17021276595744" r="3"></circle><circle cx="67.5" cy="241.17021276595744" r="3"></circle><circle cx="95" cy="241.17021276595744" r="3"></circle><circle cx="122.5" cy="241.17021276595744" r="3"></circle><circle cx="150" cy="241.17021276595744" r="3"></circle><circle cx="177.5" cy="241.17021276595744" r="3"></circle><circle cx="205" cy="177.12765957446805" r="3"></circle><circle cx="232.5" cy="177.12765957446805" r="3"></circle><circle cx="260" cy="177.12765957446805" r="3"></circle><circle cx="287.5" cy="177.12765957446805" r="3"></circle><circle cx="315" cy="280.6382978723404" r="3"></circle><circle cx="342.5" cy="20" r="3"></circle><circle cx="370" cy="20" r="3"></circle><circle cx="397.49999999999994" cy="20" r="3"></circle><circle cx="425.00000000000006" cy="20" r="3"></circle><circle cx="452.5" cy="83.29787234042553" r="3"></circle><circle cx="479.99999999999994" cy="83.29787234042553" r="3"></circle><circle cx="507.50000000000006" cy="83.29787234042553" r="3"></circle><circle cx="535" cy="83.29787234042553" r="3"></circle><circle cx="562.5" cy="83.29787234042553" r="3"></circle><circle cx="590" r="3"></circle><circle cx="617.5" r="3"></circle></g></g></svg>