<svg xmlns="http://www.w3.org/2000/svg" width="720" height="540" viewBox="0,0,720,540"><g fill="none" stroke-linecap="round"><rect width="720" height="540" fill="#ffffff"></rect><g transform="translate(0,440)" fill="none" font-size="10" font-family="sans-serif" text-anchor="middle"><path class="domain" stroke="currentColor" d="M80.5,6V0.5H700.5V6"></path><g class="tick" opacity="1" transform="translate(80.5,0)"><line stroke="currentColor" y2="6"></line><text fill="currentColor" y="9" dy="0.71em">1996</text></g><g class="tick" opacity="1" transform="translate(132.16666666666666,0)"><line stroke="currentColor" y2="6"></line><text fill="currentColor" y="9" dy="0.71em">1998</text></g><g class="tick" opacity="1" transform="translate(183.83333333333331,0)"><line stroke="currentColor" y2="6"></line><text fill="currentColor" y="9" dy="0.71em">2000</text></g><g class="tick" opacity="1" transform="translate(235.5,0)"><line stroke="currentColor" y2="6"></line><text fill="currentColor" y="9" dy="0.71em">2002</text></g><g class="tick" opacity="1" transform="translate(287.16666666666663,0)"><line stroke="currentColor" y2="6"></line><text fill="currentColor" y="9" dy="0.71em">2004</text></g><g class="tick" opacity="1" transform="translate(338.83333333333337,0)"><line stroke="currentColor" y2="6"></line><text fill="currentColor" y="9" dy="0.71em">2006</text></g><g class="tick" opacity="1" transform="translate(390.5,0)"><line stroke="currentColor" y2="6"></line><text fill="currentColor" y="9" dy="0.71em">2008</text></g><g class="tick" opacity="1" transform="translate(442.1666666666667,0)"><line stroke="currentColor" y2="6"></line><text fill="currentColor" y="9" dy="0.71em">2010</text></g><g class="tick" opacity="1" transform="translate(493.8333333333333,0)"><line stroke="currentColor" y2="6"></line><text fill="currentColor" y="9" dy="0.71em">2012</text></g><g class="tick" opacity="1" transform="translate(545.5,0)"><line stroke="currentColor" y2="6"></line><text fill="currentColor" y="9" dy="0.71em">2014</text></g><g class="tick" opacity="1" transform="translate(597.1666666666667,0)"><line stroke="currentColor" y2="6"></line><text fill="currentColor" y="9" dy="0.71em">2016</text></g><g class="tick" opacity="1" transform="translate(648.8333333333333,0)"><line stroke="currentColor" y2="6"></line><text fill="currentColor" y="9" dy="0.71em">2018</text></g><g class="tick" opacity="1" transform="translate(700.5,0)"><line stroke="currentColor" y2="6"></line><text fill="currentColor" y="9" dy="0.71em">2020</text></g></g><g transform="translate(80,0)" fill="none" font-size="10" font-family="sans-serif" text-anchor="end"><g class="tick" opacity="1" transform="translate(0,440.5)"><line stroke="currentColor" x2="-6"></line><text fill="currentColor" x="-9" dy="0.32em">0.0k</text></g><g class="tick" opacity="1" transform="translate(0,405.95454545454544)"><line stroke="currentColor" x2="-6"></line><text fill="currentColor" x="-9" dy="0.32em">0.2k</text></g><g class="tick" opacity="1" transform="translate(0,371.40909090909093)"><line stroke="currentColor" x2="-6"></line><text fill="currentColor" x="-9" dy="0.32em">0.4k</text></g><g class="tick" opacity="1" transform="translate(0,336.8636363636364)"><line stroke="currentColor" x2="-6"></line><text fill="currentColor" x="-9" dy="0.32em">0.6k</text></g><g class="tick" opacity="1" transform="translate(0,302.3181818181818)"><line stroke="currentColor" x2="-6"></line><text fill="currentColor" x="-9" dy="0.32em">0.8k</text></g><g class="tick" opacity="1" transform="translate(0,267.77272727272725)"><line stroke="currentColor" x2="-6"></line><text fill="currentColor" x="-9" dy="0.32em">1.0k</text></g><g class="tick" opacity="1" transform="translate(0,233.22727272727275)"><line stroke="currentColor" x2="-6"></line><text fill="currentColor" x="-9" dy="0.32em">1.2k</text></g><g class="tick" opacity="1" transform="translate(0,198.6818181818182)"><line stroke="currentColor" x2="-6"></line><text fill="currentColor" x="-9" dy="0.32em">1.4k</text></g><g class="tick" opacity="1" transform="translate(0,164.13636363636363)"><line stroke="currentColor" x2="-6"></line><text fill="currentColor" x="-9" dy="0.32em">1.6k</text></g><g class="tick" opacity="1" transform="translate(0,129.59090909090907)"><line stroke="currentColor" x2="-6"></line><text fill="currentColor" x="-9" dy="0.32em">1.8k</text></g><g class="tick" opacity="1" transform="translate(0,95.04545454545456)"><line stroke="currentColor" x2="-6"></line><text fill="currentColor" x="-9" dy="0.32em">2.0k</text></g><g class="tick" opacity="1" transform="translate(0,60.5)"><line stroke="currentColor" x2="-6"></line><text fill="currentColor" x="-9" dy="0.32em">2.2k</text></g></g><path fill="none" stroke="black" stroke-width="2.5" stroke-linejoin="round" stroke-linecap="round" d="M80,423.9363636363637C80,423.9363636363637,78.63806077158809,89.62994780451638,105.83333333333334,64.31818181818181C113.11287412535927,57.54281184910391,123.05555555555554,64.31818181818181,131.66666666666666,64.31818181818181C140.27777777777774,64.31818181818181,148.88888888888889,64.31818181818181,157.5,64.31818181818181C166.11111111111111,64.31818181818181,176.1711496620825,57.97412818839488,183.33333333333331,64.31818181818181C203.94825937124205,82.57828269824552,188.55174062875798,258.5126263926636,209.16666666666669,276.77272727272725C216.32885033791743,283.1167809025141,226.38888888888894,276.77272727272725,235,276.77272727272725C243.61111111111114,276.77272727272725,253.32859939425367,272.2505654068926,260.83333333333337,276.77272727272725C271.81230319597114,283.3883753745781,275.68769680402886,319.0388973526947,286.66666666666663,325.6545454545455C294.17140060574644,330.1767073203802,303.88888888888886,325.6545454545455,312.5,325.6545454545455C321.1111111111112,325.6545454545455,329.7670261563379,324.7761002501636,338.33333333333337,325.6545454545455C346.9902006907522,326.54227729254416,355.50979930924785,330.12135907109223,364.16666666666663,331.00909090909084C372.73297384366214,331.88753611347283,381.3888888888889,331.0090909090909,390,331.00909090909084C398.6111111111111,331.00909090909084,408.495909988229,335.97724439000183,415.8333333333333,331.00909090909084C427.87471668531384,322.85589627912015,429.62528331468616,274.5622855390617,441.6666666666667,266.40909090909093C449.0040900117709,261.44093742817995,458.8912429264645,266.2077410535837,467.5,266.40909090909093C476.1134677256177,266.61055094184076,485.8029420694129,262.915976105422,493.3333333333333,267.6181818181818C504.1912990999174,274.39822642239824,511.06132994787436,297.4897551617261,519.1666666666667,314.77272727272725C528.4397913844825,334.5457683492639,535.6301816446379,379.5582452188451,545,380.23636363636365C553.0509577088898,380.8190326374053,563.2719021780279,353.8079863110713,570.8333333333333,335.1545454545455C581.5548133584379,308.705518883379,582.2430877259192,244.91091721111601,596.6666666666667,233.93636363636364C603.8400833071801,228.4782838103554,622.5,234.45454545454544,622.5,234.45454545454544"></path><g fill="#ffffff"><circle cx="80" cy="423.9363636363637" r="8"></circle><circle cx="105.83333333333334" cy="64.31818181818181" r="8"></circle><circle cx="131.66666666666666" cy="64.31818181818181" r="8"></circle><circle cx="157.5" cy="64.31818181818181" r="8"></circle><circle cx="183.33333333333331" cy="64.31818181818181" r="8"></circle><circle cx="209.16666666666669" cy="276.77272727272725" r="8"></circle><circle cx="235" cy="276.77272727272725" r="8"></circle><circle cx="260.83333333333337" cy="276.77272727272725" r="8"></circle><circle cx="286.66666666666663" cy="325.6545454545455" r="8"></circle><circle cx="312.5" cy="325.6545454545455" r="8"></circle><circle cx="338.33333333333337" cy="325.6545454545455" r="8"></circle><circle cx="364.16666666666663" cy="331.00909090909084" r="8"></circle><circle cx="390" cy="331.00909090909084" r="8"></circle><circle cx="415.8333333333333" cy="331.00909090909084" r="8"></circle><circle cx="441.6666666666667" cy="266.40909090909093" r="8"></circle><circle cx="467.5" cy="266.40909090909093" r="8"></circle><circle cx="493.3333333333333" cy="267.6181818181818" r="8"></circle><circle cx="519.1666666666667" cy="314.77272727272725" r="8"></circle><circle cx="545" cy="380.23636363636365" r="8"></circle><circle cx="570.8333333333333" cy="335.1545454545455" r="8"></circle><circle cx="596.6666666666667" cy="233.93636363636364" r="8"></circle><circle cx="622.5" cy="234.45454545454544" r="8"></circle></g><g stroke="steelblue" stroke-width="2" fill="none"><circle cx="80" cy="423.9363636363637" r="4"></circle><circle cx="105.83333333333334" cy="64.31818181818181" r="4"></circle><circle cx="131.66666666666666" cy="64.31818181818181" r="4"></circle><circle cx="157.5" cy="64.31818181818181" r="4"></circle><circle cx="183.33333333333331" cy="64.31818181818181" r="4"></circle><circle cx="209.16666666666669" cy="276.77272727272725" r="4"></circle><circle cx="235" cy="276.77272727272725" r="4"></circle><circle cx="260.83333333333337" cy="276.77272727272725" r="4"></circle><circle cx="286.66666666666663" cy="325.6545454545455" r="4"></circle><circle cx="312.5" cy="325.6545454545455" r="4"></circle><circle cx="338.33333333333337" cy="325.6545454545455" r="4"></circle><circle cx="364.16666666666663" cy="331.00909090909084" r="4"></circle><circle cx="390" cy="331.00909090909084" r="4"></circle><circle cx="415.8333333333333" cy="331.00909090909084" r="4"></circle><circle cx="441.6666666666667" cy="266.40909090909093" r="4"></circle><circle cx="467.5" cy="266.40909090909093" r="4"></circle><circle cx="493.3333333333333" cy="267.6181818181818" r="4"></circle><circle cx="519.1666666666667" cy="314.77272727272725" r="4"></circle><circle cx="545" cy="380.23636363636365" r="4"></circle><circle cx="570.8333333333333" cy="335.1545454545455" r="4"></circle><circle cx="596.6666666666667" cy="233.93636363636364" r="4"></circle><circle cx="622.5" cy="234.45454545454544" r="4"></circle></g></g></svg>