<svg xmlns="http://www.w3.org/2000/svg" width="720" height="540" viewBox="0,0,720,540"><g fill="none" stroke-linecap="round"><rect width="720" height="540" fill="#ffffff"></rect><g transform="translate(0,510)" fill="none" font-size="10" font-family="sans-serif" text-anchor="middle"><path class="domain" stroke="currentColor" d="M40.5,6V0.5H700.5V6"></path><g class="tick" opacity="1" transform="translate(40.5,0)"><line stroke="currentColor" y2="6"></line><text fill="currentColor" y="9" dy="0.71em">1996</text></g><g class="tick" opacity="1" transform="translate(95.5,0)"><line stroke="currentColor" y2="6"></line><text fill="currentColor" y="9" dy="0.71em">1998</text></g><g class="tick" opacity="1" transform="translate(150.5,0)"><line stroke="currentColor" y2="6"></line><text fill="currentColor" y="9" dy="0.71em">2000</text></g><g class="tick" opacity="1" transform="translate(205.5,0)"><line stroke="currentColor" y2="6"></line><text fill="currentColor" y="9" dy="0.71em">2002</text></g><g class="tick" opacity="1" transform="translate(260.5,0)"><line stroke="currentColor" y2="6"></line><text fill="currentColor" y="9" dy="0.71em">2004</text></g><g class="tick" opacity="1" transform="translate(315.5,0)"><line stroke="currentColor" y2="6"></line><text fill="currentColor" y="9" dy="0.71em">2006</text></g><g class="tick" opacity="1" transform="translate(370.5,0)"><line stroke="currentColor" y2="6"></line><text fill="currentColor" y="9" dy="0.71em">2008</text></g><g class="tick" opacity="1" transform="translate(425.50000000000006,0)"><line stroke="currentColor" y2="6"></line><text fill="currentColor" y="9" dy="0.71em">2010</text></g><g class="tick" opacity="1" transform="translate(480.49999999999994,0)"><line stroke="currentColor" y2="6"></line><text fill="currentColor" y="9" dy="0.71em">2012</text></g><g class="tick" opacity="1" transform="translate(535.5,0)"><line stroke="currentColor" y2="6"></line><text fill="currentColor" y="9" dy="0.71em">2014</text></g><g class="tick" opacity="1" transform="translate(590.5,0)"><line stroke="currentColor" y2="6"></line><text fill="currentColor" y="9" dy="0.71em">2016</text></g><g class="tick" opacity="1" transform="translate(645.5,0)"><line stroke="currentColor" y2="6"></line><text fill="currentColor" y="9" dy="0.71em">2018</text></g><g class="tick" opacity="1" transform="translate(700.5,0)"><line stroke="currentColor" y2="6"></line><text fill="currentColor" y="9" dy="0.71em">2020</text></g></g><g transform="translate(40,0)" fill="none" font-size="10" font-family="sans-serif" text-anchor="end"><path class="domain" stroke="currentColor" d="M-6,510.5H0.5V20.5H-6"></path><g class="tick" opacity="1" transform="translate(0,510.5)"><line stroke="currentColor" x2="-6"></line><text fill="currentColor" x="-9" dy="0.32em">0.0k</text></g><g class="tick" opacity="1" transform="translate(0,465.0454545454546)"><line stroke="currentColor" x2="-6"></line><text fill="currentColor" x="-9" dy="0.32em">0.1k</text></g><g class="tick" opacity="1" transform="translate(0,419.59090909090907)"><line stroke="currentColor" x2="-6"></line><text fill="currentColor" x="-9" dy="0.32em">0.2k</text></g><g class="tick" opacity="1" transform="translate(0,374.1363636363637)"><line stroke="currentColor" x2="-6"></line><text fill="currentColor" x="-9" dy="0.32em">0.3k</text></g><g class="tick" opacity="1" transform="translate(0,328.68181818181813)"><line stroke="currentColor" x2="-6"></line><text fill="currentColor" x="-9" dy="0.32em">0.4k</text></g><g class="tick" opacity="1" transform="translate(0,283.22727272727275)"><line stroke="currentColor" x2="-6"></line><text fill="currentColor" x="-9" dy="0.32em">0.5k</text></g><g class="tick" opacity="1" transform="translate(0,237.77272727272725)"><line stroke="currentColor" x2="-6"></line><text fill="currentColor" x="-9" dy="0.32em">0.6k</text></g><g class="tick" opacity="1" transform="translate(0,192.3181818181818)"><line stroke="currentColor" x2="-6"></line><text fill="currentColor" x="-9" dy="0.32em">0.7k</text></g><g class="tick" opacity="1" transform="translate(0,146.8636363636364)"><line stroke="currentColor" x2="-6"></line><text fill="currentColor" x="-9" dy="0.32em">0.8k</text></g><g class="tick" opacity="1" transform="translate(0,101.4090909090909)"><line stroke="currentColor" x2="-6"></line><text fill="currentColor" x="-9" dy="0.32em">0.9k</text></g><g class="tick" opacity="1" transform="translate(0,55.954545454545475)"><line stroke="currentColor" x2="-6"></line><text fill="currentColor" x="-9" dy="0.32em">1.0k</text></g></g><g stroke="steelblue" stroke-width="1.5" fill="none"><circle cx="40" cy="313.1818181818182" r="3"></circle><circle cx="67.5" cy="347.2727272727273" r="3"></circle><circle cx="95" cy="266.3636363636364" r="3"></circle><circle cx="122.5" cy="309.5454545454545" r="3"></circle><circle cx="150" cy="261.3636363636364" r="3"></circle><circle cx="177.5" cy="319.5454545454545" r="3"></circle><circle cx="205" cy="108.63636363636363" r="3"></circle><circle cx="232.5" cy="20" r="3"></circle><circle cx="260" cy="179.0909090909091" r="3"></circle><circle cx="287.5" cy="240.9090909090909" r="3"></circle><circle cx="315" cy="329.0909090909091" r="3"></circle><circle cx="342.5" cy="426.3636363636364" r="3"></circle><circle cx="370" cy="394.54545454545456" r="3"></circle><circle cx="397.49999999999994" cy="434.0909090909091" r="3"></circle><circle cx="425.00000000000006" cy="392.27272727272725" r="3"></circle><circle cx="452.5" cy="386.8181818181818" r="3"></circle><circle cx="479.99999999999994" cy="371.3636363636364" r="3"></circle><circle cx="507.50000000000006" cy="409.54545454545456" r="3"></circle><circle cx="535" cy="369.54545454545456" r="3"></circle><circle cx="562.5" cy="390" r="3"></circle><circle cx="590" cy="340.9090909090909" r="3"></circle><circle cx="617.5" cy="393.1818181818182" r="3"></circle></g></g></svg>