<svg xmlns="http://www.w3.org/2000/svg" width="720" height="540" viewBox="0,0,720,540"><g fill="none" stroke-linecap="round"><rect width="720" height="540" fill="#ffffff"></rect><g transform="translate(0,510)" fill="none" font-size="10" font-family="sans-serif" text-anchor="middle"><path class="domain" stroke="currentColor" d="M40.5,6V0.5H700.5V6"></path><g class="tick" opacity="1" transform="translate(40.5,0)"><line stroke="currentColor" y2="6"></line><text fill="currentColor" y="9" dy="0.71em">1996</text></g><g class="tick" opacity="1" transform="translate(95.5,0)"><line stroke="currentColor" y2="6"></line><text fill="currentColor" y="9" dy="0.71em">1998</text></g><g class="tick" opacity="1" transform="translate(150.5,0)"><line stroke="currentColor" y2="6"></line><text fill="currentColor" y="9" dy="0.71em">2000</text></g><g class="tick" opacity="1" transform="translate(205.5,0)"><line stroke="currentColor" y2="6"></line><text fill="currentColor" y="9" dy="0.71em">2002</text></g><g class="tick" opacity="1" transform="translate(260.5,0)"><line stroke="currentColor" y2="6"></line><text fill="currentColor" y="9" dy="0.71em">2004</text></g><g class="tick" opacity="1" transform="translate(315.5,0)"><line stroke="currentColor" y2="6"></line><text fill="currentColor" y="9" dy="0.71em">2006</text></g><g class="tick" opacity="1" transform="translate(370.5,0)"><line stroke="currentColor" y2="6"></line><text fill="currentColor" y="9" dy="0.71em">2008</text></g><g class="tick" opacity="1" transform="translate(425.50000000000006,0)"><line stroke="currentColor" y2="6"></line><text fill="currentColor" y="9" dy="0.71em">2010</text></g><g class="tick" opacity="1" transform="translate(480.49999999999994,0)"><line stroke="currentColor" y2="6"></line><text fill="currentColor" y="9" dy="0.71em">2012</text></g><g class="tick" opacity="1" transform="translate(535.5,0)"><line stroke="currentColor" y2="6"></line><text fill="currentColor" y="9" dy="0.71em">2014</text></g><g class="tick" opacity="1" transform="translate(590.5,0)"><line stroke="currentColor" y2="6"></line><text fill="currentColor" y="9" dy="0.71em">2016</text></g><g class="tick" opacity="1" transform="translate(645.5,0)"><line stroke="currentColor" y2="6"></line><text fill="currentColor" y="9" dy="0.71em">2018</text></g><g class="tick" opacity="1" transform="translate(700.5,0)"><line stroke="currentColor" y2="6"></line><text fill="currentColor" y="9" dy="0.71em">2020</text></g></g><g transform="translate(40,0)" fill="none" font-size="10" font-family="sans-serif" text-anchor="end"><path class="domain" stroke="currentColor" d="M-6,510.5H0.5V20.5H-6"></path><g class="tick" opacity="1" transform="translate(0,510.5)"><line stroke="currentColor" x2="-6"></line><text fill="currentColor" x="-9" dy="0.32em">0.0k</text></g><g class="tick" opacity="1" transform="translate(0,477.5809539805173)"><line stroke="currentColor" x2="-6"></line><text fill="currentColor" x="-9" dy="0.32em">0.2k</text></g><g class="tick" opacity="1" transform="translate(0,444.66190796103456)"><line stroke="currentColor" x2="-6"></line><text fill="currentColor" x="-9" dy="0.32em">0.4k</text></g><g class="tick" opacity="1" transform="translate(0,411.74286194155195)"><line stroke="currentColor" x2="-6"></line><text fill="currentColor" x="-9" dy="0.32em">0.6k</text></g><g class="tick" opacity="1" transform="translate(0,378.82381592206923)"><line stroke="currentColor" x2="-6"></line><text fill="currentColor" x="-9" dy="0.32em">0.8k</text></g><g class="tick" opacity="1" transform="translate(0,345.9047699025865)"><line stroke="currentColor" x2="-6"></line><text fill="currentColor" x="-9" dy="0.32em">1.0k</text></g><g class="tick" opacity="1" transform="translate(0,312.9857238831038)"><line stroke="currentColor" x2="-6"></line><text fill="currentColor" x="-9" dy="0.32em">1.2k</text></g><g class="tick" opacity="1" transform="translate(0,280.0666778636211)"><line stroke="currentColor" x2="-6"></line><text fill="currentColor" x="-9" dy="0.32em">1.4k</text></g><g class="tick" opacity="1" transform="translate(0,247.1476318441384)"><line stroke="currentColor" x2="-6"></line><text fill="currentColor" x="-9" dy="0.32em">1.6k</text></g><g class="tick" opacity="1" transform="translate(0,214.22858582465568)"><line stroke="currentColor" x2="-6"></line><text fill="currentColor" x="-9" dy="0.32em">1.8k</text></g><g class="tick" opacity="1" transform="translate(0,181.309539805173)"><line stroke="currentColor" x2="-6"></line><text fill="currentColor" x="-9" dy="0.32em">2.0k</text></g><g class="tick" opacity="1" transform="translate(0,148.39049378569027)"><line stroke="currentColor" x2="-6"></line><text fill="currentColor" x="-9" dy="0.32em">2.2k</text></g><g class="tick" opacity="1" transform="translate(0,115.4714477662076)"><line stroke="currentColor" x2="-6"></line><text fill="currentColor" x="-9" dy="0.32em">2.4k</text></g><g class="tick" opacity="1" transform="translate(0,82.55240174672488)"><line stroke="currentColor" x2="-6"></line><text fill="currentColor" x="-9" dy="0.32em">2.6k</text></g><g class="tick" opacity="1" transform="translate(0,49.633355727242204)"><line stroke="currentColor" x2="-6"></line><text fill="currentColor" x="-9" dy="0.32em">2.8k</text></g></g><g stroke="steelblue" stroke-width="1.5" fill="none"><circle cx="40" cy="358.40779308028215" r="3"></circle><circle cx="67.5" cy="443.503527040645" r="3"></circle><circle cx="95" cy="443.503527040645" r="3"></circle><circle cx="122.5" cy="443.503527040645" r="3"></circle><circle cx="150" cy="443.503527040645" r="3"></circle><circle cx="177.5" cy="433.95700369499497" r="3"></circle><circle cx="205" cy="433.95700369499497" r="3"></circle><circle cx="232.5" cy="433.95700369499497" r="3"></circle><circle cx="260" cy="379.6405777628485" r="3"></circle><circle cx="287.5" cy="379.6405777628485" r="3"></circle><circle cx="315" cy="379.6405777628485" r="3"></circle><circle cx="342.5" cy="340.9606986899563" r="3"></circle><circle cx="370" cy="340.9606986899563" r="3"></circle><circle cx="397.49999999999994" cy="340.9606986899563" r="3"></circle><circle cx="425.00000000000006" cy="333.3893181054753" r="3"></circle><circle cx="452.5" cy="333.3893181054753" r="3"></circle><circle cx="479.99999999999994" cy="344.2526032919046" r="3"></circle><circle cx="507.50000000000006" cy="20" r="3"></circle><circle cx="535" cy="448.27678871346995" r="3"></circle><circle cx="562.5" cy="431.3234800134364" r="3"></circle><circle cx="590" cy="300.1410816257977" r="3"></circle><circle cx="617.5" cy="236.60732280819616" r="3"></circle></g></g></svg>