<svg xmlns="http://www.w3.org/2000/svg" width="720" height="540" viewBox="0,0,720,540"><g fill="none" stroke-linecap="round"><rect width="720" height="540" fill="#ffffff"></rect><g transform="translate(0,440)" fill="none" font-size="10" font-family="sans-serif" text-anchor="middle"><path class="domain" stroke="currentColor" d="M80.5,6V0.5H700.5V6"></path><g class="tick" opacity="1" transform="translate(80.5,0)"><line stroke="currentColor" y2="6"></line><text fill="currentColor" y="9" dy="0.71em">1996</text></g><g class="tick" opacity="1" transform="translate(132.16666666666666,0)"><line stroke="currentColor" y2="6"></line><text fill="currentColor" y="9" dy="0.71em">1998</text></g><g class="tick" opacity="1" transform="translate(183.83333333333331,0)"><line stroke="currentColor" y2="6"></line><text fill="currentColor" y="9" dy="0.71em">2000</text></g><g class="tick" opacity="1" transform="translate(235.5,0)"><line stroke="currentColor" y2="6"></line><text fill="currentColor" y="9" dy="0.71em">2002</text></g><g class="tick" opacity="1" transform="translate(287.16666666666663,0)"><line stroke="currentColor" y2="6"></line><text fill="currentColor" y="9" dy="0.71em">2004</text></g><g class="tick" opacity="1" transform="translate(338.83333333333337,0)"><line stroke="currentColor" y2="6"></line><text fill="currentColor" y="9" dy="0.71em">2006</text></g><g class="tick" opacity="1" transform="translate(390.5,0)"><line stroke="currentColor" y2="6"></line><text fill="currentColor" y="9" dy="0.71em">2008</text></g><g class="tick" opacity="1" transform="translate(442.1666666666667,0)"><line stroke="currentColor" y2="6"></line><text fill="currentColor" y="9" dy="0.71em">2010</text></g><g class="tick" opacity="1" transform="translate(493.8333333333333,0)"><line stroke="currentColor" y2="6"></line><text fill="currentColor" y="9" dy="0.71em">2012</text></g><g class="tick" opacity="1" transform="translate(545.5,0)"><line stroke="currentColor" y2="6"></line><text fill="currentColor" y="9" dy="0.71em">2014</text></g><g class="tick" opacity="1" transform="translate(597.1666666666667,0)"><line stroke="currentColor" y2="6"></line><text fill="currentColor" y="9" dy="0.71em">2016</text></g><g class="tick" opacity="1" transform="translate(648.8333333333333,0)"><line stroke="currentColor" y2="6"></line><text fill="currentColor" y="9" dy="0.71em">2018</text></g><g class="tick" opacity="1" transform="translate(700.5,0)"><line stroke="currentColor" y2="6"></line><text fill="currentColor" y="9" dy="0.71em">2020</text></g></g><g transform="translate(80,0)" fill="none" font-size="10" font-family="sans-serif" text-anchor="end"><g class="tick" opacity="1" transform="translate(0,440.5)"><line stroke="currentColor" x2="-6"></line><text fill="currentColor" x="-9" dy="0.32em">0k</text></g><g class="tick" opacity="1" transform="translate(0,408.8333333333333)"><line stroke="currentColor" x2="-6"></line><text fill="currentColor" x="-9" dy="0.32em">1k</text></g><g class="tick" opacity="1" transform="translate(0,377.1666666666667)"><line stroke="currentColor" x2="-6"></line><text fill="currentColor" x="-9" dy="0.32em">2k</text></g><g class="tick" opacity="1" transform="translate(0,345.5)"><line stroke="currentColor" x2="-6"></line><text fill="currentColor" x="-9" dy="0.32em">3k</text></g><g class="tick" opacity="1" transform="translate(0,313.83333333333337)"><line stroke="currentColor" x2="-6"></line><text fill="currentColor" x="-9" dy="0.32em">4k</text></g><g class="tick" opacity="1" transform="translate(0,282.16666666666663)"><line stroke="currentColor" x2="-6"></line><text fill="currentColor" x="-9" dy="0.32em">5k</text></g><g class="tick" opacity="1" transform="translate(0,250.5)"><line stroke="currentColor" x2="-6"></line><text fill="currentColor" x="-9" dy="0.32em">6k</text></g><g class="tick" opacity="1" transform="translate(0,218.83333333333331)"><line stroke="currentColor" x2="-6"></line><text fill="currentColor" x="-9" dy="0.32em">7k</text></g><g class="tick" opacity="1" transform="translate(0,187.16666666666669)"><line stroke="currentColor" x2="-6"></line><text fill="currentColor" x="-9" dy="0.32em">8k</text></g><g class="tick" opacity="1" transform="translate(0,155.5)"><line stroke="currentColor" x2="-6"></line><text fill="currentColor" x="-9" dy="0.32em">9k</text></g><g class="tick" opacity="1" transform="translate(0,123.83333333333331)"><line stroke="currentColor" x2="-6"></line><text fill="currentColor" x="-9" dy="0.32em">10k</text></g><g class="tick" opacity="1" transform="translate(0,92.16666666666669)"><line stroke="currentColor" x2="-6"></line><text fill="currentColor" x="-9" dy="0.32em">11k</text></g><g class="tick" opacity="1" transform="translate(0,60.5)"><line stroke="currentColor" x2="-6"></line><text fill="currentColor" x="-9" dy="0.32em">12k</text></g></g><path fill="none" stroke="black" stroke-width="2.5" stroke-linejoin="round" stroke-linecap="round" d="M80,232.805C80,232.805,97.126686699053,272.9599053179385,105.83333333333334,273.08500000000004C114.35296888314423,273.20740775871036,121.95943197009895,244.46010040022486,131.66666666666666,235.2433333333333C139.5541075621255,227.7544131866902,149.00379351970122,219.15569193190652,157.5,219.50499999999997C166.23249587942337,219.8640227323628,175.47660210949815,239.8773198212718,183.33333333333331,238.31499999999997C193.11337148893023,236.3702284368682,198.7332308539883,203.59604255910077,209.16666666666669,196.07166666666666C216.80186373599852,190.56532208431406,227.74439411136586,196.7420969932419,235,190.0866666666667C247.88790960795873,178.26483045236313,250.90095553746403,132.7880061382869,260.83333333333337,110.50833333333334C268.6302474036421,93.01879578804787,279.37259710202704,64.59340446321053,286.66666666666663,65.88999999999999C299.1118955687449,68.10226684305074,302.5758983398433,170.90732052388432,312.5,213.74166666666665C320.3000184821034,247.40805814710637,328.47556788116464,277.38518588749025,338.33333333333337,302.78833333333336C346.15882479664845,322.9543754696926,353.78174517836175,352.5738334342996,364.16666666666663,355.1966666666666C371.81551647202286,357.1284730343377,382.5716594264114,334.53629140626015,390,336.83C401.39366740465886,340.3481145211891,403.5556338140417,396.10142344850425,415.8333333333333,406.78166666666664C423.14433055485586,413.1414271715136,433.1052528494467,412.79584386102033,441.6666666666667,412.41833333333335C450.3286494952064,412.0363882739975,458.98660679014614,403.8241173794301,467.5,404.3433333333333C476.2134761459599,404.87475197187354,484.7352122250233,416.08486447684226,493.3333333333333,416.02833333333336C501.95751330579566,415.97163085734724,510.33863499124135,405.5364665339413,519.1666666666667,403.9316666666667C527.5807243776418,402.40212087500373,536.726201414802,408.0463280777254,545,405.9583333333333C554.0112316938068,403.6842382821401,561.837980022455,391.2955255383884,570.8333333333333,389.3016666666667C579.1184808493282,387.4652279735569,588.0437758721865,392.6395866988848,596.6666666666667,392.84833333333336C605.2660622004443,393.0565111844455,622.5,390.5683333333333,622.5,390.5683333333333"></path><g fill="#ffffff"><circle cx="80" cy="232.805" r="8"></circle><circle cx="105.83333333333334" cy="273.08500000000004" r="8"></circle><circle cx="131.66666666666666" cy="235.2433333333333" r="8"></circle><circle cx="157.5" cy="219.50499999999997" r="8"></circle><circle cx="183.33333333333331" cy="238.31499999999997" r="8"></circle><circle cx="209.16666666666669" cy="196.07166666666666" r="8"></circle><circle cx="235" cy="190.0866666666667" r="8"></circle><circle cx="260.83333333333337" cy="110.50833333333334" r="8"></circle><circle cx="286.66666666666663" cy="65.88999999999999" r="8"></circle><circle cx="312.5" cy="213.74166666666665" r="8"></circle><circle cx="338.33333333333337" cy="302.78833333333336" r="8"></circle><circle cx="364.16666666666663" cy="355.1966666666666" r="8"></circle><circle cx="390" cy="336.83" r="8"></circle><circle cx="415.8333333333333" cy="406.78166666666664" r="8"></circle><circle cx="441.6666666666667" cy="412.41833333333335" r="8"></circle><circle cx="467.5" cy="404.3433333333333" r="8"></circle><circle cx="493.3333333333333" cy="416.02833333333336" r="8"></circle><circle cx="519.1666666666667" cy="403.9316666666667" r="8"></circle><circle cx="545" cy="405.9583333333333" r="8"></circle><circle cx="570.8333333333333" cy="389.3016666666667" r="8"></circle><circle cx="596.6666666666667" cy="392.84833333333336" r="8"></circle><circle cx="622.5" cy="390.5683333333333" r="8"></circle></g><g stroke="steelblue" stroke-width="2" fill="none"><circle cx="80" cy="232.805" r="4"></circle><circle cx="105.83333333333334" cy="273.08500000000004" r="4"></circle><circle cx="131.66666666666666" cy="235.2433333333333" r="4"></circle><circle cx="157.5" cy="219.50499999999997" r="4"></circle><circle cx="183.33333333333331" cy="238.31499999999997" r="4"></circle><circle cx="209.16666666666669" cy="196.07166666666666" r="4"></circle><circle cx="235" cy="190.0866666666667" r="4"></circle><circle cx="260.83333333333337" cy="110.50833333333334" r="4"></circle><circle cx="286.66666666666663" cy="65.88999999999999" r="4"></circle><circle cx="312.5" cy="213.74166666666665" r="4"></circle><circle cx="338.33333333333337" cy="302.78833333333336" r="4"></circle><circle cx="364.16666666666663" cy="355.1966666666666" r="4"></circle><circle cx="390" cy="336.83" r="4"></circle><circle cx="415.8333333333333" cy="406.78166666666664" r="4"></circle><circle cx="441.6666666666667" cy="412.41833333333335" r="4"></circle><circle cx="467.5" cy="404.3433333333333" r="4"></circle><circle cx="493.3333333333333" cy="416.02833333333336" r="4"></circle><circle cx="519.1666666666667" cy="403.9316666666667" r="4"></circle><circle cx="545" cy="405.9583333333333" r="4"></circle><circle cx="570.8333333333333" cy="389.3016666666667" r="4"></circle><circle cx="596.6666666666667" cy="392.84833333333336" r="4"></circle><circle cx="622.5" cy="390.5683333333333" r="4"></circle></g></g></svg>