<svg xmlns="http://www.w3.org/2000/svg" width="720" height="540" viewBox="0,0,720,540"><g fill="none" stroke-linecap="round"><rect width="720" height="540" fill="#ffffff"></rect><g transform="translate(0,440)" fill="none" font-size="10" font-family="sans-serif" text-anchor="middle"><path class="domain" stroke="currentColor" d="M80.5,6V0.5H700.5V6"></path><g class="tick" opacity="1" transform="translate(80.5,0)"><line stroke="currentColor" y2="6"></line><text fill="currentColor" y="9" dy="0.71em">1996</text></g><g class="tick" opacity="1" transform="translate(132.16666666666666,0)"><line stroke="currentColor" y2="6"></line><text fill="currentColor" y="9" dy="0.71em">1998</text></g><g class="tick" opacity="1" transform="translate(183.83333333333331,0)"><line stroke="currentColor" y2="6"></line><text fill="currentColor" y="9" dy="0.71em">2000</text></g><g class="tick" opacity="1" transform="translate(235.5,0)"><line stroke="currentColor" y2="6"></line><text fill="currentColor" y="9" dy="0.71em">2002</text></g><g class="tick" opacity="1" transform="translate(287.16666666666663,0)"><line stroke="currentColor" y2="6"></line><text fill="currentColor" y="9" dy="0.71em">2004</text></g><g class="tick" opacity="1" transform="translate(338.83333333333337,0)"><line stroke="currentColor" y2="6"></line><text fill="currentColor" y="9" dy="0.71em">2006</text></g><g class="tick" opacity="1" transform="translate(390.5,0)"><line stroke="currentColor" y2="6"></line><text fill="currentColor" y="9" dy="0.71em">2008</text></g><g class="tick" opacity="1" transform="translate(442.1666666666667,0)"><line stroke="currentColor" y2="6"></line><text fill="currentColor" y="9" dy="0.71em">2010</text></g><g class="tick" opacity="1" transform="translate(493.8333333333333,0)"><line stroke="currentColor" y2="6"></line><text fill="currentColor" y="9" dy="0.71em">2012</text></g><g class="tick" opacity="1" transform="translate(545.5,0)"><line stroke="currentColor" y2="6"></line><text fill="currentColor" y="9" dy="0.71em">2014</text></g><g class="tick" opacity="1" transform="translate(597.1666666666667,0)"><line stroke="currentColor" y2="6"></line><text fill="currentColor" y="9" dy="0.71em">2016</text></g><g class="tick" opacity="1" transform="translate(648.8333333333333,0)"><line stroke="currentColor" y2="6"></line><text fill="currentColor" y="9" dy="0.71em">2018</text></g><g class="tick" opacity="1" transform="translate(700.5,0)"><line stroke="currentColor" y2="6"></line><text fill="currentColor" y="9" dy="0.71em">2020</text></g></g><g transform="translate(80,0)" fill="none" font-size="10" font-family="sans-serif" text-anchor="end"><g class="tick" opacity="1" transform="translate(0,440.5)"><line stroke="currentColor" x2="-6"></line><text fill="currentColor" x="-9" dy="0.32em">0</text></g><g class="tick" opacity="1" transform="translate(0,393)"><line stroke="currentColor" x2="-6"></line><text fill="currentColor" x="-9" dy="0.32em">20</text></g><g class="tick" opacity="1" transform="translate(0,345.5)"><line stroke="currentColor" x2="-6"></line><text fill="currentColor" x="-9" dy="0.32em">40</text></g><g class="tick" opacity="1" transform="translate(0,298)"><line stroke="currentColor" x2="-6"></line><text fill="currentColor" x="-9" dy="0.32em">60</text></g><g class="tick" opacity="1" transform="translate(0,250.5)"><line stroke="currentColor" x2="-6"></line><text fill="currentColor" x="-9" dy="0.32em">80</text></g><g class="tick" opacity="1" transform="translate(0,203)"><line stroke="currentColor" x2="-6"></line><text fill="currentColor" x="-9" dy="0.32em">100</text></g><g class="tick" opacity="1" transform="translate(0,155.5)"><line stroke="currentColor" x2="-6"></line><text fill="currentColor" x="-9" dy="0.32em">120</text></g><g class="tick" opacity="1" transform="translate(0,108)"><line stroke="currentColor" x2="-6"></line><text fill="currentColor" x="-9" dy="0.32em">140</text></g><g class="tick" opacity="1" transform="translate(0,60.5)"><line stroke="currentColor" x2="-6"></line><text fill="currentColor" x="-9" dy="0.32em">160</text></g></g><line x1="570.8333333333333" y1="88.49999999999997" x2="80" y2="88.49999999999997" style="stroke: steelblue; stroke-width: 2;"></line><line x1="570.8333333333333" y1="88.49999999999997" x2="700" y2="366.375" style="stroke: green; stroke-width: 2;"></line><path fill="none" stroke="black" stroke-width="2.5" stroke-linejoin="round" stroke-linecap="round" d="M286.66666666666663,74.24999999999999C286.66666666666663,74.24999999999999,303.88888888888886,74.24999999999999,312.5,74.24999999999999C321.1111111111112,74.24999999999999,329.7222222222223,74.25000000000001,338.33333333333337,74.24999999999999C346.94444444444446,74.24999999999999,355.5555555555556,74.24999999999999,364.16666666666663,74.24999999999999C372.7777777777778,74.25000000000001,381.3888888888889,74.24999999999999,390,74.24999999999999C398.6111111111111,74.24999999999999,407.22222222222223,74.24999999999999,415.8333333333333,74.24999999999999C424.44444444444446,74.24999999999999,433.05555555555566,74.24999999999999,441.6666666666667,74.24999999999999C450.27777777777777,74.24999999999999,458.8888888888888,74.24999999999997,467.5,74.24999999999999C476.111111111111,74.24999999999997,484.7222222222222,74.24999999999999,493.3333333333333,74.24999999999999C501.9444444444443,74.24999999999997,510.55555555555566,74.24999999999999,519.1666666666667,74.24999999999999C527.7777777777777,74.24999999999997,545,74.24999999999999,545,74.24999999999999"></path><g fill="#ffffff"><circle cx="286.66666666666663" cy="74.24999999999999" r="8"></circle><circle cx="312.5" cy="74.24999999999999" r="8"></circle><circle cx="338.33333333333337" cy="74.24999999999999" r="8"></circle><circle cx="364.16666666666663" cy="74.24999999999999" r="8"></circle><circle cx="390" cy="74.24999999999999" r="8"></circle><circle cx="415.8333333333333" cy="74.24999999999999" r="8"></circle><circle cx="441.6666666666667" cy="74.24999999999999" r="8"></circle><circle cx="467.5" cy="74.24999999999999" r="8"></circle><circle cx="493.3333333333333" cy="74.24999999999999" r="8"></circle><circle cx="519.1666666666667" cy="74.24999999999999" r="8"></circle><circle cx="545" cy="74.24999999999999" r="8"></circle></g><g stroke="steelblue" stroke-width="2" fill="none"><circle cx="286.66666666666663" cy="74.24999999999999" r="4"></circle><circle cx="312.5" cy="74.24999999999999" r="4"></circle><circle cx="338.33333333333337" cy="74.24999999999999" r="4"></circle><circle cx="364.16666666666663" cy="74.24999999999999" r="4"></circle><circle cx="390" cy="74.24999999999999" r="4"></circle><circle cx="415.8333333333333" cy="74.24999999999999" r="4"></circle><circle cx="441.6666666666667" cy="74.24999999999999" r="4"></circle><circle cx="467.5" cy="74.24999999999999" r="4"></circle><circle cx="493.3333333333333" cy="74.24999999999999" r="4"></circle><circle cx="519.1666666666667" cy="74.24999999999999" r="4"></circle><circle cx="545" cy="74.24999999999999" r="4"></circle></g><path transform="translate(700,366.375)" d="M0,-14.71415478191356L8.495221224235612,0L0,14.71415478191356L-8.495221224235612,0Z" fill="#ffffff"></path><path transform="translate(700,366.375)" d="M0,-11.397535284773888L6.5803700647624614,0L0,11.397535284773888L-6.5803700647624614,0Z" fill="#33cc33"></path></g></svg>