<svg xmlns="http://www.w3.org/2000/svg" width="720" height="540" viewBox="0,0,720,540"><g fill="none" stroke-linecap="round"><rect width="720" height="540" fill="#ffffff"></rect><g transform="translate(0,440)" fill="none" font-size="10" font-family="sans-serif" text-anchor="middle"><path class="domain" stroke="currentColor" d="M80.5,6V0.5H700.5V6"></path><g class="tick" opacity="1" transform="translate(80.5,0)"><line stroke="currentColor" y2="6"></line><text fill="currentColor" y="9" dy="0.71em">1996</text></g><g class="tick" opacity="1" transform="translate(132.16666666666666,0)"><line stroke="currentColor" y2="6"></line><text fill="currentColor" y="9" dy="0.71em">1998</text></g><g class="tick" opacity="1" transform="translate(183.83333333333331,0)"><line stroke="currentColor" y2="6"></line><text fill="currentColor" y="9" dy="0.71em">2000</text></g><g class="tick" opacity="1" transform="translate(235.5,0)"><line stroke="currentColor" y2="6"></line><text fill="currentColor" y="9" dy="0.71em">2002</text></g><g class="tick" opacity="1" transform="translate(287.16666666666663,0)"><line stroke="currentColor" y2="6"></line><text fill="currentColor" y="9" dy="0.71em">2004</text></g><g class="tick" opacity="1" transform="translate(338.83333333333337,0)"><line stroke="currentColor" y2="6"></line><text fill="currentColor" y="9" dy="0.71em">2006</text></g><g class="tick" opacity="1" transform="translate(390.5,0)"><line stroke="currentColor" y2="6"></line><text fill="currentColor" y="9" dy="0.71em">2008</text></g><g class="tick" opacity="1" transform="translate(442.1666666666667,0)"><line stroke="currentColor" y2="6"></line><text fill="currentColor" y="9" dy="0.71em">2010</text></g><g class="tick" opacity="1" transform="translate(493.8333333333333,0)"><line stroke="currentColor" y2="6"></line><text fill="currentColor" y="9" dy="0.71em">2012</text></g><g class="tick" opacity="1" transform="translate(545.5,0)"><line stroke="currentColor" y2="6"></line><text fill="currentColor" y="9" dy="0.71em">2014</text></g><g class="tick" opacity="1" transform="translate(597.1666666666667,0)"><line stroke="currentColor" y2="6"></line><text fill="currentColor" y="9" dy="0.71em">2016</text></g><g class="tick" opacity="1" transform="translate(648.8333333333333,0)"><line stroke="currentColor" y2="6"></line><text fill="currentColor" y="9" dy="0.71em">2018</text></g><g class="tick" opacity="1" transform="translate(700.5,0)"><line stroke="currentColor" y2="6"></line><text fill="currentColor" y="9" dy="0.71em">2020</text></g></g><g transform="translate(80,0)" fill="none" font-size="10" font-family="sans-serif" text-anchor="end"><g class="tick" opacity="1" transform="translate(0,440.5)"><line stroke="currentColor" x2="-6"></line><text fill="currentColor" x="-9" dy="0.32em">0k</text></g><g class="tick" opacity="1" transform="translate(0,408.8333333333333)"><line stroke="currentColor" x2="-6"></line><text fill="currentColor" x="-9" dy="0.32em">1k</text></g><g class="tick" opacity="1" transform="translate(0,377.1666666666667)"><line stroke="currentColor" x2="-6"></line><text fill="currentColor" x="-9" dy="0.32em">2k</text></g><g class="tick" opacity="1" transform="translate(0,345.5)"><line stroke="currentColor" x2="-6"></line><text fill="currentColor" x="-9" dy="0.32em">3k</text></g><g class="tick" opacity="1" transform="translate(0,313.83333333333337)"><line stroke="currentColor" x2="-6"></line><text fill="currentColor" x="-9" dy="0.32em">4k</text></g><g class="tick" opacity="1" transform="translate(0,282.16666666666663)"><line stroke="currentColor" x2="-6"></line><text fill="currentColor" x="-9" dy="0.32em">5k</text></g><g class="tick" opacity="1" transform="translate(0,250.5)"><line stroke="currentColor" x2="-6"></line><text fill="currentColor" x="-9" dy="0.32em">6k</text></g><g class="tick" opacity="1" transform="translate(0,218.83333333333331)"><line stroke="currentColor" x2="-6"></line><text fill="currentColor" x="-9" dy="0.32em">7k</text></g><g class="tick" opacity="1" transform="translate(0,187.16666666666669)"><line stroke="currentColor" x2="-6"></line><text fill="currentColor" x="-9" dy="0.32em">8k</text></g><g class="tick" opacity="1" transform="translate(0,155.5)"><line stroke="currentColor" x2="-6"></line><text fill="currentColor" x="-9" dy="0.32em">9k</text></g><g class="tick" opacity="1" transform="translate(0,123.83333333333331)"><line stroke="currentColor" x2="-6"></line><text fill="currentColor" x="-9" dy="0.32em">10k</text></g><g class="tick" opacity="1" transform="translate(0,92.16666666666669)"><line stroke="currentColor" x2="-6"></line><text fill="currentColor" x="-9" dy="0.32em">11k</text></g><g class="tick" opacity="1" transform="translate(0,60.5)"><line stroke="currentColor" x2="-6"></line><text fill="currentColor" x="-9" dy="0.32em">12k</text></g></g><g stroke="steelblue" stroke-width="1.5" fill="none"><circle cx="80" cy="232.805" r="3"></circle><circle cx="105.83333333333334" cy="273.08500000000004" r="3"></circle><circle cx="131.66666666666666" cy="235.2433333333333" r="3"></circle><circle cx="157.5" cy="219.50499999999997" r="3"></circle><circle cx="183.33333333333331" cy="238.31499999999997" r="3"></circle><circle cx="209.16666666666669" cy="196.07166666666666" r="3"></circle><circle cx="235" cy="190.0866666666667" r="3"></circle><circle cx="260.83333333333337" cy="110.50833333333334" r="3"></circle><circle cx="286.66666666666663" cy="65.88999999999999" r="3"></circle><circle cx="312.5" cy="213.74166666666665" r="3"></circle><circle cx="338.33333333333337" cy="302.78833333333336" r="3"></circle><circle cx="364.16666666666663" cy="355.1966666666666" r="3"></circle><circle cx="390" cy="336.83" r="3"></circle><circle cx="415.8333333333333" cy="406.78166666666664" r="3"></circle><circle cx="441.6666666666667" cy="412.41833333333335" r="3"></circle><circle cx="467.5" cy="404.3433333333333" r="3"></circle><circle cx="493.3333333333333" cy="416.02833333333336" r="3"></circle><circle cx="519.1666666666667" cy="403.9316666666667" r="3"></circle><circle cx="545" cy="405.9583333333333" r="3"></circle><circle cx="570.8333333333333" cy="389.3016666666667" r="3"></circle><circle cx="596.6666666666667" cy="392.84833333333336" r="3"></circle><circle cx="622.5" cy="390.5683333333333" r="3"></circle></g></g></svg>