<svg xmlns="http://www.w3.org/2000/svg" width="720" height="540" viewBox="0,0,720,540"><g fill="none" stroke-linecap="round"><rect width="720" height="540" fill="#ffffff"></rect><g transform="translate(0,440)" fill="none" font-size="10" font-family="sans-serif" text-anchor="middle"><path class="domain" stroke="currentColor" d="M80.5,6V0.5H700.5V6"></path><g class="tick" opacity="1" transform="translate(80.5,0)"><line stroke="currentColor" y2="6"></line><text fill="currentColor" y="9" dy="0.71em">1996</text></g><g class="tick" opacity="1" transform="translate(132.16666666666666,0)"><line stroke="currentColor" y2="6"></line><text fill="currentColor" y="9" dy="0.71em">1998</text></g><g class="tick" opacity="1" transform="translate(183.83333333333331,0)"><line stroke="currentColor" y2="6"></line><text fill="currentColor" y="9" dy="0.71em">2000</text></g><g class="tick" opacity="1" transform="translate(235.5,0)"><line stroke="currentColor" y2="6"></line><text fill="currentColor" y="9" dy="0.71em">2002</text></g><g class="tick" opacity="1" transform="translate(287.16666666666663,0)"><line stroke="currentColor" y2="6"></line><text fill="currentColor" y="9" dy="0.71em">2004</text></g><g class="tick" opacity="1" transform="translate(338.83333333333337,0)"><line stroke="currentColor" y2="6"></line><text fill="currentColor" y="9" dy="0.71em">2006</text></g><g class="tick" opacity="1" transform="translate(390.5,0)"><line stroke="currentColor" y2="6"></line><text fill="currentColor" y="9" dy="0.71em">2008</text></g><g class="tick" opacity="1" transform="translate(442.1666666666667,0)"><line stroke="currentColor" y2="6"></line><text fill="currentColor" y="9" dy="0.71em">2010</text></g><g class="tick" opacity="1" transform="translate(493.8333333333333,0)"><line stroke="currentColor" y2="6"></line><text fill="currentColor" y="9" dy="0.71em">2012</text></g><g class="tick" opacity="1" transform="translate(545.5,0)"><line stroke="currentColor" y2="6"></line><text fill="currentColor" y="9" dy="0.71em">2014</text></g><g class="tick" opacity="1" transform="translate(597.1666666666667,0)"><line stroke="currentColor" y2="6"></line><text fill="currentColor" y="9" dy="0.71em">2016</text></g><g class="tick" opacity="1" transform="translate(648.8333333333333,0)"><line stroke="currentColor" y2="6"></line><text fill="currentColor" y="9" dy="0.71em">2018</text></g><g class="tick" opacity="1" transform="translate(700.5,0)"><line stroke="currentColor" y2="6"></line><text fill="currentColor" y="9" dy="0.71em">2020</text></g></g><g transform="translate(80,0)" fill="none" font-size="10" font-family="sans-serif" text-anchor="end"><g class="tick" opacity="1" transform="translate(0,440.5)"><line stroke="currentColor" x2="-6"></line><text fill="currentColor" x="-9" dy="0.32em">0</text></g><g class="tick" opacity="1" transform="translate(0,402.5)"><line stroke="currentColor" x2="-6"></line><text fill="currentColor" x="-9" dy="0.32em">20</text></g><g class="tick" opacity="1" transform="translate(0,364.5)"><line stroke="currentColor" x2="-6"></line><text fill="currentColor" x="-9" dy="0.32em">40</text></g><g class="tick" opacity="1" transform="translate(0,326.5)"><line stroke="currentColor" x2="-6"></line><text fill="currentColor" x="-9" dy="0.32em">60</text></g><g class="tick" opacity="1" transform="translate(0,288.5)"><line stroke="currentColor" x2="-6"></line><text fill="currentColor" x="-9" dy="0.32em">80</text></g><g class="tick" opacity="1" transform="translate(0,250.5)"><line stroke="currentColor" x2="-6"></line><text fill="currentColor" x="-9" dy="0.32em">100</text></g><g class="tick" opacity="1" transform="translate(0,212.5)"><line stroke="currentColor" x2="-6"></line><text fill="currentColor" x="-9" dy="0.32em">120</text></g><g class="tick" opacity="1" transform="translate(0,174.50000000000003)"><line stroke="currentColor" x2="-6"></line><text fill="currentColor" x="-9" dy="0.32em">140</text></g><g class="tick" opacity="1" transform="translate(0,136.5)"><line stroke="currentColor" x2="-6"></line><text fill="currentColor" x="-9" dy="0.32em">160</text></g><g class="tick" opacity="1" transform="translate(0,98.5)"><line stroke="currentColor" x2="-6"></line><text fill="currentColor" x="-9" dy="0.32em">180</text></g><g class="tick" opacity="1" transform="translate(0,60.5)"><line stroke="currentColor" x2="-6"></line><text fill="currentColor" x="-9" dy="0.32em">200</text></g></g><line x1="570.8333333333333" y1="88.49999999999997" x2="80" y2="88.49999999999997" style="stroke: steelblue; stroke-width: 2;"></line><line x1="570.8333333333333" y1="88.49999999999997" x2="700" y2="369.7" style="stroke: green; stroke-width: 2;"></line><path fill="none" stroke="black" stroke-width="2.5" stroke-linejoin="round" stroke-linecap="round" d="M80,225.30000000000004C80,225.30000000000004,97.22222222222221,225.3000000000001,105.83333333333334,225.30000000000004C114.44444444444446,225.30000000000004,123.05555555555554,225.30000000000004,131.66666666666666,225.30000000000004C140.27777777777774,225.30000000000004,148.88888888888889,225.3000000000001,157.5,225.30000000000004C166.11111111111111,225.30000000000004,174.7222222222222,225.29999999999998,183.33333333333331,225.30000000000004C191.94444444444443,225.30000000000004,202.03295434139437,231.31082982765292,209.16666666666669,225.30000000000004C226.48814921722368,210.70500664637,217.67851744944304,89.79499335363012,235,75.20000000000002C242.1337123252722,69.18917017234705,252.2222222222223,75.20000000000002,260.83333333333337,75.20000000000002C269.4444444444445,75.20000000000002,278.0555555555556,75.20000000000003,286.66666666666663,75.20000000000002C295.2777777777778,75.20000000000003,305.2806315389281,68.60542150906443,312.5,75.20000000000002C336.5281222096239,97.14864256556183,328.8195894475844,360.01742031070336,338.33333333333337,360.20000000000005C346.30992755547453,360.353080018993,344.2047286215788,178.24372162452678,364.16666666666663,160.70000000000002C371.32012472700234,154.41312161275138,381.3888888888889,160.7,390,160.70000000000002C398.6111111111111,160.7,407.22222222222223,160.7,415.8333333333333,160.70000000000002C424.44444444444446,160.7,433.061354617198,160.38397338859053,441.6666666666667,160.70000000000002C450.2835925028876,161.01645312303998,458.88307416377904,162.28354687696006,467.5,162.60000000000002C476.10531204946864,162.9160266114095,484.7222222222222,162.60000000000002,493.3333333333333,162.60000000000002C501.9444444444443,162.6,510.55555555555566,162.60000000000002,519.1666666666667,162.60000000000002C527.7777777777777,162.59999999999997,536.3888888888889,162.60000000000002,545,162.60000000000002C553.6111111111111,162.60000000000002,570.8333333333333,162.60000000000002,570.8333333333333,162.60000000000002"></path><g fill="#ffffff"><circle cx="80" cy="225.30000000000004" r="8"></circle><circle cx="105.83333333333334" cy="225.30000000000004" r="8"></circle><circle cx="131.66666666666666" cy="225.30000000000004" r="8"></circle><circle cx="157.5" cy="225.30000000000004" r="8"></circle><circle cx="183.33333333333331" cy="225.30000000000004" r="8"></circle><circle cx="209.16666666666669" cy="225.30000000000004" r="8"></circle><circle cx="235" cy="75.20000000000002" r="8"></circle><circle cx="260.83333333333337" cy="75.20000000000002" r="8"></circle><circle cx="286.66666666666663" cy="75.20000000000002" r="8"></circle><circle cx="312.5" cy="75.20000000000002" r="8"></circle><circle cx="338.33333333333337" cy="360.20000000000005" r="8"></circle><circle cx="364.16666666666663" cy="160.70000000000002" r="8"></circle><circle cx="390" cy="160.70000000000002" r="8"></circle><circle cx="415.8333333333333" cy="160.70000000000002" r="8"></circle><circle cx="441.6666666666667" cy="160.70000000000002" r="8"></circle><circle cx="467.5" cy="162.60000000000002" r="8"></circle><circle cx="493.3333333333333" cy="162.60000000000002" r="8"></circle><circle cx="519.1666666666667" cy="162.60000000000002" r="8"></circle><circle cx="545" cy="162.60000000000002" r="8"></circle><circle cx="570.8333333333333" cy="162.60000000000002" r="8"></circle></g><g stroke="steelblue" stroke-width="2" fill="none"><circle cx="80" cy="225.30000000000004" r="4"></circle><circle cx="105.83333333333334" cy="225.30000000000004" r="4"></circle><circle cx="131.66666666666666" cy="225.30000000000004" r="4"></circle><circle cx="157.5" cy="225.30000000000004" r="4"></circle><circle cx="183.33333333333331" cy="225.30000000000004" r="4"></circle><circle cx="209.16666666666669" cy="225.30000000000004" r="4"></circle><circle cx="235" cy="75.20000000000002" r="4"></circle><circle cx="260.83333333333337" cy="75.20000000000002" r="4"></circle><circle cx="286.66666666666663" cy="75.20000000000002" r="4"></circle><circle cx="312.5" cy="75.20000000000002" r="4"></circle><circle cx="338.33333333333337" cy="360.20000000000005" r="4"></circle><circle cx="364.16666666666663" cy="160.70000000000002" r="4"></circle><circle cx="390" cy="160.70000000000002" r="4"></circle><circle cx="415.8333333333333" cy="160.70000000000002" r="4"></circle><circle cx="441.6666666666667" cy="160.70000000000002" r="4"></circle><circle cx="467.5" cy="162.60000000000002" r="4"></circle><circle cx="493.3333333333333" cy="162.60000000000002" r="4"></circle><circle cx="519.1666666666667" cy="162.60000000000002" r="4"></circle><circle cx="545" cy="162.60000000000002" r="4"></circle><circle cx="570.8333333333333" cy="162.60000000000002" r="4"></circle></g><path transform="translate(700,369.7)" d="M0,-14.71415478191356L8.495221224235612,0L0,14.71415478191356L-8.495221224235612,0Z" fill="#ffffff"></path><path transform="translate(700,369.7)" d="M0,-11.397535284773888L6.5803700647624614,0L0,11.397535284773888L-6.5803700647624614,0Z" fill="#33cc33"></path></g></svg>