<svg xmlns="http://www.w3.org/2000/svg" width="720" height="540" viewBox="0,0,720,540"><g fill="none" stroke-linecap="round"><rect width="720" height="540" fill="#ffffff"></rect><g transform="translate(0,440)" fill="none" font-size="10" font-family="sans-serif" text-anchor="middle"><path class="domain" stroke="currentColor" d="M80.5,6V0.5H700.5V6"></path><g class="tick" opacity="1" transform="translate(80.5,0)"><line stroke="currentColor" y2="6"></line><text fill="currentColor" y="9" dy="0.71em">1996</text></g><g class="tick" opacity="1" transform="translate(132.16666666666666,0)"><line stroke="currentColor" y2="6"></line><text fill="currentColor" y="9" dy="0.71em">1998</text></g><g class="tick" opacity="1" transform="translate(183.83333333333331,0)"><line stroke="currentColor" y2="6"></line><text fill="currentColor" y="9" dy="0.71em">2000</text></g><g class="tick" opacity="1" transform="translate(235.5,0)"><line stroke="currentColor" y2="6"></line><text fill="currentColor" y="9" dy="0.71em">2002</text></g><g class="tick" opacity="1" transform="translate(287.16666666666663,0)"><line stroke="currentColor" y2="6"></line><text fill="currentColor" y="9" dy="0.71em">2004</text></g><g class="tick" opacity="1" transform="translate(338.83333333333337,0)"><line stroke="currentColor" y2="6"></line><text fill="currentColor" y="9" dy="0.71em">2006</text></g><g class="tick" opacity="1" transform="translate(390.5,0)"><line stroke="currentColor" y2="6"></line><text fill="currentColor" y="9" dy="0.71em">2008</text></g><g class="tick" opacity="1" transform="translate(442.1666666666667,0)"><line stroke="currentColor" y2="6"></line><text fill="currentColor" y="9" dy="0.71em">2010</text></g><g class="tick" opacity="1" transform="translate(493.8333333333333,0)"><line stroke="currentColor" y2="6"></line><text fill="currentColor" y="9" dy="0.71em">2012</text></g><g class="tick" opacity="1" transform="translate(545.5,0)"><line stroke="currentColor" y2="6"></line><text fill="currentColor" y="9" dy="0.71em">2014</text></g><g class="tick" opacity="1" transform="translate(597.1666666666667,0)"><line stroke="currentColor" y2="6"></line><text fill="currentColor" y="9" dy="0.71em">2016</text></g><g class="tick" opacity="1" transform="translate(648.8333333333333,0)"><line stroke="currentColor" y2="6"></line><text fill="currentColor" y="9" dy="0.71em">2018</text></g><g class="tick" opacity="1" transform="translate(700.5,0)"><line stroke="currentColor" y2="6"></line><text fill="currentColor" y="9" dy="0.71em">2020</text></g></g><g transform="translate(80,0)" fill="none" font-size="10" font-family="sans-serif" text-anchor="end"><g class="tick" opacity="1" transform="translate(0,440.5)"><line stroke="currentColor" x2="-6"></line><text fill="currentColor" x="-9" dy="0.32em">0</text></g><g class="tick" opacity="1" transform="translate(0,408.8333333333333)"><line stroke="currentColor" x2="-6"></line><text fill="currentColor" x="-9" dy="0.32em">50</text></g><g class="tick" opacity="1" transform="translate(0,377.1666666666667)"><line stroke="currentColor" x2="-6"></line><text fill="currentColor" x="-9" dy="0.32em">100</text></g><g class="tick" opacity="1" transform="translate(0,345.5)"><line stroke="currentColor" x2="-6"></line><text fill="currentColor" x="-9" dy="0.32em">150</text></g><g class="tick" opacity="1" transform="translate(0,313.83333333333337)"><line stroke="currentColor" x2="-6"></line><text fill="currentColor" x="-9" dy="0.32em">200</text></g><g class="tick" opacity="1" transform="translate(0,282.16666666666663)"><line stroke="currentColor" x2="-6"></line><text fill="currentColor" x="-9" dy="0.32em">250</text></g><g class="tick" opacity="1" transform="translate(0,250.5)"><line stroke="currentColor" x2="-6"></line><text fill="currentColor" x="-9" dy="0.32em">300</text></g><g class="tick" opacity="1" transform="translate(0,218.83333333333331)"><line stroke="currentColor" x2="-6"></line><text fill="currentColor" x="-9" dy="0.32em">350</text></g><g class="tick" opacity="1" transform="translate(0,187.16666666666669)"><line stroke="currentColor" x2="-6"></line><text fill="currentColor" x="-9" dy="0.32em">400</text></g><g class="tick" opacity="1" transform="translate(0,155.5)"><line stroke="currentColor" x2="-6"></line><text fill="currentColor" x="-9" dy="0.32em">450</text></g><g class="tick" opacity="1" transform="translate(0,123.83333333333331)"><line stroke="currentColor" x2="-6"></line><text fill="currentColor" x="-9" dy="0.32em">500</text></g><g class="tick" opacity="1" transform="translate(0,92.16666666666669)"><line stroke="currentColor" x2="-6"></line><text fill="currentColor" x="-9" dy="0.32em">550</text></g><g class="tick" opacity="1" transform="translate(0,60.5)"><line stroke="currentColor" x2="-6"></line><text fill="currentColor" x="-9" dy="0.32em">600</text></g></g><path fill="none" stroke="black" stroke-width="2.5" stroke-linejoin="round" stroke-linecap="round" d="M286.66666666666663,243.03333333333333C286.66666666666663,243.03333333333333,302.3663375463161,354.907590154559,312.5,355.76666666666665C320.22608175360546,356.4216416468855,329.2798207063187,313.02499860514797,338.33333333333337,293.70000000000005C346.57759651066704,276.10236900680394,356.89501947344155,266.44458656223446,364.16666666666663,244.3C376.8578974994371,205.65097698091984,382.2573695223356,76.22299097926617,390,76.46666666666667C400.084377410974,76.78404169892657,402.82015799876444,362.03718541900236,415.8333333333333,363.3666666666667C423.0795194631337,364.1069678098521,432.7206385580735,278.0788390823424,441.6666666666667,277.8666666666666C449.98800160122346,277.6693100617823,455.3316723797747,337.8557311614762,467.5,350.70000000000005C474.8228392689543,358.42961734490245,485.3235283199969,363.3019362315638,493.3333333333333,361.46666666666664C502.78101417701487,359.3019396748857,510.6323910609459,342.26593197862746,519.1666666666667,332.3333333333333C527.8574573894249,322.2185748995258,536.7123699509337,300.803692109147,545,301.29999999999995C553.9919065300948,301.8384837569096,561.7481680106425,340.51344051341516,570.8333333333333,341.20000000000005C579.0561153786687,341.82138979521335,588.5722337026242,311.26339687971284,596.6666666666667,312.06666666666666C605.9586471707743,312.98877785506863,622.5,356.4,622.5,356.4"></path><g fill="#ffffff"><circle cx="286.66666666666663" cy="243.03333333333333" r="8"></circle><circle cx="312.5" cy="355.76666666666665" r="8"></circle><circle cx="338.33333333333337" cy="293.70000000000005" r="8"></circle><circle cx="364.16666666666663" cy="244.3" r="8"></circle><circle cx="390" cy="76.46666666666667" r="8"></circle><circle cx="415.8333333333333" cy="363.3666666666667" r="8"></circle><circle cx="441.6666666666667" cy="277.8666666666666" r="8"></circle><circle cx="467.5" cy="350.70000000000005" r="8"></circle><circle cx="493.3333333333333" cy="361.46666666666664" r="8"></circle><circle cx="519.1666666666667" cy="332.3333333333333" r="8"></circle><circle cx="545" cy="301.29999999999995" r="8"></circle><circle cx="570.8333333333333" cy="341.20000000000005" r="8"></circle><circle cx="596.6666666666667" cy="312.06666666666666" r="8"></circle><circle cx="622.5" cy="356.4" r="8"></circle></g><g stroke="steelblue" stroke-width="2" fill="none"><circle cx="286.66666666666663" cy="243.03333333333333" r="4"></circle><circle cx="312.5" cy="355.76666666666665" r="4"></circle><circle cx="338.33333333333337" cy="293.70000000000005" r="4"></circle><circle cx="364.16666666666663" cy="244.3" r="4"></circle><circle cx="390" cy="76.46666666666667" r="4"></circle><circle cx="415.8333333333333" cy="363.3666666666667" r="4"></circle><circle cx="441.6666666666667" cy="277.8666666666666" r="4"></circle><circle cx="467.5" cy="350.70000000000005" r="4"></circle><circle cx="493.3333333333333" cy="361.46666666666664" r="4"></circle><circle cx="519.1666666666667" cy="332.3333333333333" r="4"></circle><circle cx="545" cy="301.29999999999995" r="4"></circle><circle cx="570.8333333333333" cy="341.20000000000005" r="4"></circle><circle cx="596.6666666666667" cy="312.06666666666666" r="4"></circle><circle cx="622.5" cy="356.4" r="4"></circle></g></g></svg>