<svg xmlns="http://www.w3.org/2000/svg" width="720" height="540" viewBox="0,0,720,540"><g fill="none" stroke-linecap="round"><rect width="720" height="540" fill="#ffffff"></rect><g transform="translate(0,440)" fill="none" font-size="10" font-family="sans-serif" text-anchor="middle"><path class="domain" stroke="currentColor" d="M80.5,6V0.5H700.5V6"></path><g class="tick" opacity="1" transform="translate(80.5,0)"><line stroke="currentColor" y2="6"></line><text fill="currentColor" y="9" dy="0.71em">1996</text></g><g class="tick" opacity="1" transform="translate(132.16666666666666,0)"><line stroke="currentColor" y2="6"></line><text fill="currentColor" y="9" dy="0.71em">1998</text></g><g class="tick" opacity="1" transform="translate(183.83333333333331,0)"><line stroke="currentColor" y2="6"></line><text fill="currentColor" y="9" dy="0.71em">2000</text></g><g class="tick" opacity="1" transform="translate(235.5,0)"><line stroke="currentColor" y2="6"></line><text fill="currentColor" y="9" dy="0.71em">2002</text></g><g class="tick" opacity="1" transform="translate(287.16666666666663,0)"><line stroke="currentColor" y2="6"></line><text fill="currentColor" y="9" dy="0.71em">2004</text></g><g class="tick" opacity="1" transform="translate(338.83333333333337,0)"><line stroke="currentColor" y2="6"></line><text fill="currentColor" y="9" dy="0.71em">2006</text></g><g class="tick" opacity="1" transform="translate(390.5,0)"><line stroke="currentColor" y2="6"></line><text fill="currentColor" y="9" dy="0.71em">2008</text></g><g class="tick" opacity="1" transform="translate(442.1666666666667,0)"><line stroke="currentColor" y2="6"></line><text fill="currentColor" y="9" dy="0.71em">2010</text></g><g class="tick" opacity="1" transform="translate(493.8333333333333,0)"><line stroke="currentColor" y2="6"></line><text fill="currentColor" y="9" dy="0.71em">2012</text></g><g class="tick" opacity="1" transform="translate(545.5,0)"><line stroke="currentColor" y2="6"></line><text fill="currentColor" y="9" dy="0.71em">2014</text></g><g class="tick" opacity="1" transform="translate(597.1666666666667,0)"><line stroke="currentColor" y2="6"></line><text fill="currentColor" y="9" dy="0.71em">2016</text></g><g class="tick" opacity="1" transform="translate(648.8333333333333,0)"><line stroke="currentColor" y2="6"></line><text fill="currentColor" y="9" dy="0.71em">2018</text></g><g class="tick" opacity="1" transform="translate(700.5,0)"><line stroke="currentColor" y2="6"></line><text fill="currentColor" y="9" dy="0.71em">2020</text></g></g><g transform="translate(80,0)" fill="none" font-size="10" font-family="sans-serif" text-anchor="end"><g class="tick" opacity="1" transform="translate(0,440.5)"><line stroke="currentColor" x2="-6"></line><text fill="currentColor" x="-9" dy="0.32em">0</text></g><g class="tick" opacity="1" transform="translate(0,393)"><line stroke="currentColor" x2="-6"></line><text fill="currentColor" x="-9" dy="0.32em">50</text></g><g class="tick" opacity="1" transform="translate(0,345.5)"><line stroke="currentColor" x2="-6"></line><text fill="currentColor" x="-9" dy="0.32em">100</text></g><g class="tick" opacity="1" transform="translate(0,298)"><line stroke="currentColor" x2="-6"></line><text fill="currentColor" x="-9" dy="0.32em">150</text></g><g class="tick" opacity="1" transform="translate(0,250.5)"><line stroke="currentColor" x2="-6"></line><text fill="currentColor" x="-9" dy="0.32em">200</text></g><g class="tick" opacity="1" transform="translate(0,203)"><line stroke="currentColor" x2="-6"></line><text fill="currentColor" x="-9" dy="0.32em">250</text></g><g class="tick" opacity="1" transform="translate(0,155.5)"><line stroke="currentColor" x2="-6"></line><text fill="currentColor" x="-9" dy="0.32em">300</text></g><g class="tick" opacity="1" transform="translate(0,108)"><line stroke="currentColor" x2="-6"></line><text fill="currentColor" x="-9" dy="0.32em">350</text></g><g class="tick" opacity="1" transform="translate(0,60.5)"><line stroke="currentColor" x2="-6"></line><text fill="currentColor" x="-9" dy="0.32em">400</text></g></g><line x1="570.8333333333333" y1="118.9" x2="80" y2="118.9" style="stroke: steelblue; stroke-width: 2;"></line><line x1="570.8333333333333" y1="118.9" x2="700" y2="375.4" style="stroke: green; stroke-width: 2;"></line><path fill="none" stroke="black" stroke-width="2.5" stroke-linejoin="round" stroke-linecap="round" d="M209.16666666666669,275.65C209.16666666666669,275.65,226.94745897515753,235.0993474052318,235,235.75C244.36690632135827,236.50685449898862,252.77299681991184,295.09533503754005,260.83333333333337,294.65C270.18598939506165,294.1332640757102,278.33196797107263,240.66379595271857,286.66666666666663,212C295.594964560294,181.29476176945536,304.8626098214403,115.57960748238045,312.5,116.04999999999998C322.92555099302155,116.692117407193,329.964859848276,299.46643629694364,338.33333333333337,299.4C347.21793449579945,299.3294662279675,355.31841638173574,92.36088665502037,364.16666666666663,92.29999999999998C372.56418319230994,92.24221493795267,381.6024834743567,278.5577850620473,390,278.5C398.8482502849309,278.43911334497966,401.61544407890995,74.15314771944465,415.8333333333333,71.4C423.0142316200655,70.0094930556918,433.9107765564935,99.6072627780081,441.6666666666667,117.94999999999999C451.7125886779072,141.70867953094213,456.97820338677207,201.9017008771488,467.5,203.44999999999996C475.111283364788,204.57001246466376,485.40392039432726,163.70409883988194,493.3333333333333,164.5C502.9463577671418,165.46489076277953,509.3909646406437,226.99321512269728,519.1666666666667,228.14999999999998C527.0251867711221,229.07991963038702,536.4618975112164,191.94725729758565,545,192.05C553.6866828397739,192.1545306344293,561.0367459003165,221.12439728247068,570.8333333333333,230.05C578.6832826933227,237.2020342996024,596.6666666666667,244.3,596.6666666666667,244.3"></path><g fill="#ffffff"><circle cx="209.16666666666669" cy="275.65" r="8"></circle><circle cx="235" cy="235.75" r="8"></circle><circle cx="260.83333333333337" cy="294.65" r="8"></circle><circle cx="286.66666666666663" cy="212" r="8"></circle><circle cx="312.5" cy="116.04999999999998" r="8"></circle><circle cx="338.33333333333337" cy="299.4" r="8"></circle><circle cx="364.16666666666663" cy="92.29999999999998" r="8"></circle><circle cx="390" cy="278.5" r="8"></circle><circle cx="415.8333333333333" cy="71.4" r="8"></circle><circle cx="441.6666666666667" cy="117.94999999999999" r="8"></circle><circle cx="467.5" cy="203.44999999999996" r="8"></circle><circle cx="493.3333333333333" cy="164.5" r="8"></circle><circle cx="519.1666666666667" cy="228.14999999999998" r="8"></circle><circle cx="545" cy="192.05" r="8"></circle><circle cx="570.8333333333333" cy="230.05" r="8"></circle><circle cx="596.6666666666667" cy="244.3" r="8"></circle></g><g stroke="steelblue" stroke-width="2" fill="none"><circle cx="209.16666666666669" cy="275.65" r="4"></circle><circle cx="235" cy="235.75" r="4"></circle><circle cx="260.83333333333337" cy="294.65" r="4"></circle><circle cx="286.66666666666663" cy="212" r="4"></circle><circle cx="312.5" cy="116.04999999999998" r="4"></circle><circle cx="338.33333333333337" cy="299.4" r="4"></circle><circle cx="364.16666666666663" cy="92.29999999999998" r="4"></circle><circle cx="390" cy="278.5" r="4"></circle><circle cx="415.8333333333333" cy="71.4" r="4"></circle><circle cx="441.6666666666667" cy="117.94999999999999" r="4"></circle><circle cx="467.5" cy="203.44999999999996" r="4"></circle><circle cx="493.3333333333333" cy="164.5" r="4"></circle><circle cx="519.1666666666667" cy="228.14999999999998" r="4"></circle><circle cx="545" cy="192.05" r="4"></circle><circle cx="570.8333333333333" cy="230.05" r="4"></circle><circle cx="596.6666666666667" cy="244.3" r="4"></circle></g><path transform="translate(700,375.4)" d="M0,-14.71415478191356L8.495221224235612,0L0,14.71415478191356L-8.495221224235612,0Z" fill="#ffffff"></path><path transform="translate(700,375.4)" d="M0,-11.397535284773888L6.5803700647624614,0L0,11.397535284773888L-6.5803700647624614,0Z" fill="#33cc33"></path></g></svg>