<svg xmlns="http://www.w3.org/2000/svg" width="720" height="540" viewBox="0,0,720,540"><g fill="none" stroke-linecap="round"><rect width="720" height="540" fill="#ffffff"></rect><g transform="translate(0,440)" fill="none" font-size="10" font-family="sans-serif" text-anchor="middle"><path class="domain" stroke="currentColor" d="M80.5,6V0.5H700.5V6"></path><g class="tick" opacity="1" transform="translate(80.5,0)"><line stroke="currentColor" y2="6"></line><text fill="currentColor" y="9" dy="0.71em">1996</text></g><g class="tick" opacity="1" transform="translate(132.16666666666666,0)"><line stroke="currentColor" y2="6"></line><text fill="currentColor" y="9" dy="0.71em">1998</text></g><g class="tick" opacity="1" transform="translate(183.83333333333331,0)"><line stroke="currentColor" y2="6"></line><text fill="currentColor" y="9" dy="0.71em">2000</text></g><g class="tick" opacity="1" transform="translate(235.5,0)"><line stroke="currentColor" y2="6"></line><text fill="currentColor" y="9" dy="0.71em">2002</text></g><g class="tick" opacity="1" transform="translate(287.16666666666663,0)"><line stroke="currentColor" y2="6"></line><text fill="currentColor" y="9" dy="0.71em">2004</text></g><g class="tick" opacity="1" transform="translate(338.83333333333337,0)"><line stroke="currentColor" y2="6"></line><text fill="currentColor" y="9" dy="0.71em">2006</text></g><g class="tick" opacity="1" transform="translate(390.5,0)"><line stroke="currentColor" y2="6"></line><text fill="currentColor" y="9" dy="0.71em">2008</text></g><g class="tick" opacity="1" transform="translate(442.1666666666667,0)"><line stroke="currentColor" y2="6"></line><text fill="currentColor" y="9" dy="0.71em">2010</text></g><g class="tick" opacity="1" transform="translate(493.8333333333333,0)"><line stroke="currentColor" y2="6"></line><text fill="currentColor" y="9" dy="0.71em">2012</text></g><g class="tick" opacity="1" transform="translate(545.5,0)"><line stroke="currentColor" y2="6"></line><text fill="currentColor" y="9" dy="0.71em">2014</text></g><g class="tick" opacity="1" transform="translate(597.1666666666667,0)"><line stroke="currentColor" y2="6"></line><text fill="currentColor" y="9" dy="0.71em">2016</text></g><g class="tick" opacity="1" transform="translate(648.8333333333333,0)"><line stroke="currentColor" y2="6"></line><text fill="currentColor" y="9" dy="0.71em">2018</text></g><g class="tick" opacity="1" transform="translate(700.5,0)"><line stroke="currentColor" y2="6"></line><text fill="currentColor" y="9" dy="0.71em">2020</text></g></g><g transform="translate(80,0)" fill="none" font-size="10" font-family="sans-serif" text-anchor="end"><g class="tick" opacity="1" transform="translate(0,440.5)"><line stroke="currentColor" x2="-6"></line><text fill="currentColor" x="-9" dy="0.32em">0.0k</text></g><g class="tick" opacity="1" transform="translate(0,405.95454545454544)"><line stroke="currentColor" x2="-6"></line><text fill="currentColor" x="-9" dy="0.32em">0.1k</text></g><g class="tick" opacity="1" transform="translate(0,371.40909090909093)"><line stroke="currentColor" x2="-6"></line><text fill="currentColor" x="-9" dy="0.32em">0.2k</text></g><g class="tick" opacity="1" transform="translate(0,336.8636363636364)"><line stroke="currentColor" x2="-6"></line><text fill="currentColor" x="-9" dy="0.32em">0.3k</text></g><g class="tick" opacity="1" transform="translate(0,302.3181818181818)"><line stroke="currentColor" x2="-6"></line><text fill="currentColor" x="-9" dy="0.32em">0.4k</text></g><g class="tick" opacity="1" transform="translate(0,267.77272727272725)"><line stroke="currentColor" x2="-6"></line><text fill="currentColor" x="-9" dy="0.32em">0.5k</text></g><g class="tick" opacity="1" transform="translate(0,233.22727272727275)"><line stroke="currentColor" x2="-6"></line><text fill="currentColor" x="-9" dy="0.32em">0.6k</text></g><g class="tick" opacity="1" transform="translate(0,198.6818181818182)"><line stroke="currentColor" x2="-6"></line><text fill="currentColor" x="-9" dy="0.32em">0.7k</text></g><g class="tick" opacity="1" transform="translate(0,164.13636363636363)"><line stroke="currentColor" x2="-6"></line><text fill="currentColor" x="-9" dy="0.32em">0.8k</text></g><g class="tick" opacity="1" transform="translate(0,129.59090909090907)"><line stroke="currentColor" x2="-6"></line><text fill="currentColor" x="-9" dy="0.32em">0.9k</text></g><g class="tick" opacity="1" transform="translate(0,95.04545454545456)"><line stroke="currentColor" x2="-6"></line><text fill="currentColor" x="-9" dy="0.32em">1.0k</text></g><g class="tick" opacity="1" transform="translate(0,60.5)"><line stroke="currentColor" x2="-6"></line><text fill="currentColor" x="-9" dy="0.32em">1.1k</text></g></g><line x1="570.8333333333333" y1="290.41818181818184" x2="80" y2="290.41818181818184" style="stroke: steelblue; stroke-width: 2;"></line><line x1="570.8333333333333" y1="290.41818181818184" x2="700" y2="406.49090909090916" style="stroke: green; stroke-width: 2;"></line><path fill="none" stroke="black" stroke-width="2.5" stroke-linejoin="round" stroke-linecap="round" d="M80,290.41818181818184C80,290.41818181818184,98.17249289597795,317.8252746550756,105.83333333333334,316.3272727272727C116.17673821222601,314.3047217323357,121.78794916427888,256.1738202912579,131.66666666666666,254.83636363636361C139.48399754973568,253.77799333571028,149.03524506479351,287.87667992660386,157.5,287.6545454545455C166.2681466258014,287.4244492926883,174.99087135577972,250.6788610400092,183.33333333333331,251.03636363636363C192.25144775040914,251.4185348787702,201.91316761678186,296.6080141515229,209.16666666666669,295.2545454545455C222.0819145297936,292.8446211440538,223.80479673624728,176.54618498778328,235,134.96363636363637C242.46282412179053,107.24433197882323,253.10271385684428,66.9969541171223,260.83333333333337,67.60000000000001C270.95333534107374,68.3894355121271,275.36321160362746,158.16769003030765,286.66666666666663,188.5090909090909C294.11023975921034,208.48956890558335,304.4317544873307,218.1429034800239,312.5,235.49090909090907C321.83834466595414,255.56982902548063,329.9004444589972,279.5530860536572,338.33333333333337,302.5090909090909C347.13876111203126,326.47922093856675,353.04439276552284,373.7014194846393,364.16666666666663,376.4363636363637C371.6430918298865,378.27480112295086,381.61934375477995,351.79988884182643,390,352.25454545454545C398.8692185623922,352.73570692341514,407.2918817900852,382.42651658869386,415.8333333333333,382.3090909090909C424.5164335942454,382.18971787933884,431.8535445027176,356.1941504527129,441.6666666666667,350.5272727272727C449.50991150108484,345.99795894672866,459.0567957715414,348.92823955267005,467.5,346.3818181818182C476.2932281555683,343.7298316269217,485.298981216916,332.9378761526246,493.3333333333333,334.6363636363636C502.73405958234815,336.62370693930166,510.6118182873468,363.75307366637804,519.1666666666667,363.6545454545454C527.8355504617563,363.55470386986235,535.6965529950862,334.7784544925344,545,333.2545454545455C553.0878747614488,331.9297477273606,562.9372147260538,350.4973155553602,570.8333333333333,348.79999999999995C580.5206051609189,346.7176658837411,588.146770921328,311.3671336293256,596.6666666666667,311.49090909090916C605.3730295292839,311.6173935121092,622.5,351.2181818181818,622.5,351.2181818181818"></path><g fill="#ffffff"><circle cx="80" cy="290.41818181818184" r="8"></circle><circle cx="105.83333333333334" cy="316.3272727272727" r="8"></circle><circle cx="131.66666666666666" cy="254.83636363636361" r="8"></circle><circle cx="157.5" cy="287.6545454545455" r="8"></circle><circle cx="183.33333333333331" cy="251.03636363636363" r="8"></circle><circle cx="209.16666666666669" cy="295.2545454545455" r="8"></circle><circle cx="235" cy="134.96363636363637" r="8"></circle><circle cx="260.83333333333337" cy="67.60000000000001" r="8"></circle><circle cx="286.66666666666663" cy="188.5090909090909" r="8"></circle><circle cx="312.5" cy="235.49090909090907" r="8"></circle><circle cx="338.33333333333337" cy="302.5090909090909" r="8"></circle><circle cx="364.16666666666663" cy="376.4363636363637" r="8"></circle><circle cx="390" cy="352.25454545454545" r="8"></circle><circle cx="415.8333333333333" cy="382.3090909090909" r="8"></circle><circle cx="441.6666666666667" cy="350.5272727272727" r="8"></circle><circle cx="467.5" cy="346.3818181818182" r="8"></circle><circle cx="493.3333333333333" cy="334.6363636363636" r="8"></circle><circle cx="519.1666666666667" cy="363.6545454545454" r="8"></circle><circle cx="545" cy="333.2545454545455" r="8"></circle><circle cx="570.8333333333333" cy="348.79999999999995" r="8"></circle><circle cx="596.6666666666667" cy="311.49090909090916" r="8"></circle><circle cx="622.5" cy="351.2181818181818" r="8"></circle></g><g stroke="steelblue" stroke-width="2" fill="none"><circle cx="80" cy="290.41818181818184" r="4"></circle><circle cx="105.83333333333334" cy="316.3272727272727" r="4"></circle><circle cx="131.66666666666666" cy="254.83636363636361" r="4"></circle><circle cx="157.5" cy="287.6545454545455" r="4"></circle><circle cx="183.33333333333331" cy="251.03636363636363" r="4"></circle><circle cx="209.16666666666669" cy="295.2545454545455" r="4"></circle><circle cx="235" cy="134.96363636363637" r="4"></circle><circle cx="260.83333333333337" cy="67.60000000000001" r="4"></circle><circle cx="286.66666666666663" cy="188.5090909090909" r="4"></circle><circle cx="312.5" cy="235.49090909090907" r="4"></circle><circle cx="338.33333333333337" cy="302.5090909090909" r="4"></circle><circle cx="364.16666666666663" cy="376.4363636363637" r="4"></circle><circle cx="390" cy="352.25454545454545" r="4"></circle><circle cx="415.8333333333333" cy="382.3090909090909" r="4"></circle><circle cx="441.6666666666667" cy="350.5272727272727" r="4"></circle><circle cx="467.5" cy="346.3818181818182" r="4"></circle><circle cx="493.3333333333333" cy="334.6363636363636" r="4"></circle><circle cx="519.1666666666667" cy="363.6545454545454" r="4"></circle><circle cx="545" cy="333.2545454545455" r="4"></circle><circle cx="570.8333333333333" cy="348.79999999999995" r="4"></circle><circle cx="596.6666666666667" cy="311.49090909090916" r="4"></circle><circle cx="622.5" cy="351.2181818181818" r="4"></circle></g><path transform="translate(700,406.49090909090916)" d="M0,-14.71415478191356L8.495221224235612,0L0,14.71415478191356L-8.495221224235612,0Z" fill="#ffffff"></path><path transform="translate(700,406.49090909090916)" d="M0,-11.397535284773888L6.5803700647624614,0L0,11.397535284773888L-6.5803700647624614,0Z" fill="#33cc33"></path></g></svg>