<svg xmlns="http://www.w3.org/2000/svg" width="720" height="540" viewBox="0,0,720,540"><g fill="none" stroke-linecap="round"><rect width="720" height="540" fill="#ffffff"></rect><g transform="translate(0,440)" fill="none" font-size="10" font-family="sans-serif" text-anchor="middle"><path class="domain" stroke="currentColor" d="M80.5,6V0.5H700.5V6"></path><g class="tick" opacity="1" transform="translate(80.5,0)"><line stroke="currentColor" y2="6"></line><text fill="currentColor" y="9" dy="0.71em">1996</text></g><g class="tick" opacity="1" transform="translate(132.16666666666666,0)"><line stroke="currentColor" y2="6"></line><text fill="currentColor" y="9" dy="0.71em">1998</text></g><g class="tick" opacity="1" transform="translate(183.83333333333331,0)"><line stroke="currentColor" y2="6"></line><text fill="currentColor" y="9" dy="0.71em">2000</text></g><g class="tick" opacity="1" transform="translate(235.5,0)"><line stroke="currentColor" y2="6"></line><text fill="currentColor" y="9" dy="0.71em">2002</text></g><g class="tick" opacity="1" transform="translate(287.16666666666663,0)"><line stroke="currentColor" y2="6"></line><text fill="currentColor" y="9" dy="0.71em">2004</text></g><g class="tick" opacity="1" transform="translate(338.83333333333337,0)"><line stroke="currentColor" y2="6"></line><text fill="currentColor" y="9" dy="0.71em">2006</text></g><g class="tick" opacity="1" transform="translate(390.5,0)"><line stroke="currentColor" y2="6"></line><text fill="currentColor" y="9" dy="0.71em">2008</text></g><g class="tick" opacity="1" transform="translate(442.1666666666667,0)"><line stroke="currentColor" y2="6"></line><text fill="currentColor" y="9" dy="0.71em">2010</text></g><g class="tick" opacity="1" transform="translate(493.8333333333333,0)"><line stroke="currentColor" y2="6"></line><text fill="currentColor" y="9" dy="0.71em">2012</text></g><g class="tick" opacity="1" transform="translate(545.5,0)"><line stroke="currentColor" y2="6"></line><text fill="currentColor" y="9" dy="0.71em">2014</text></g><g class="tick" opacity="1" transform="translate(597.1666666666667,0)"><line stroke="currentColor" y2="6"></line><text fill="currentColor" y="9" dy="0.71em">2016</text></g><g class="tick" opacity="1" transform="translate(648.8333333333333,0)"><line stroke="currentColor" y2="6"></line><text fill="currentColor" y="9" dy="0.71em">2018</text></g><g class="tick" opacity="1" transform="translate(700.5,0)"><line stroke="currentColor" y2="6"></line><text fill="currentColor" y="9" dy="0.71em">2020</text></g></g><g transform="translate(80,0)" fill="none" font-size="10" font-family="sans-serif" text-anchor="end"><g class="tick" opacity="1" transform="translate(0,440.5)"><line stroke="currentColor" x2="-6"></line><text fill="currentColor" x="-9" dy="0.32em">0.0k</text></g><g class="tick" opacity="1" transform="translate(0,393)"><line stroke="currentColor" x2="-6"></line><text fill="currentColor" x="-9" dy="0.32em">0.5k</text></g><g class="tick" opacity="1" transform="translate(0,345.5)"><line stroke="currentColor" x2="-6"></line><text fill="currentColor" x="-9" dy="0.32em">1.0k</text></g><g class="tick" opacity="1" transform="translate(0,298)"><line stroke="currentColor" x2="-6"></line><text fill="currentColor" x="-9" dy="0.32em">1.5k</text></g><g class="tick" opacity="1" transform="translate(0,250.5)"><line stroke="currentColor" x2="-6"></line><text fill="currentColor" x="-9" dy="0.32em">2.0k</text></g><g class="tick" opacity="1" transform="translate(0,203)"><line stroke="currentColor" x2="-6"></line><text fill="currentColor" x="-9" dy="0.32em">2.5k</text></g><g class="tick" opacity="1" transform="translate(0,155.5)"><line stroke="currentColor" x2="-6"></line><text fill="currentColor" x="-9" dy="0.32em">3.0k</text></g><g class="tick" opacity="1" transform="translate(0,108)"><line stroke="currentColor" x2="-6"></line><text fill="currentColor" x="-9" dy="0.32em">3.5k</text></g><g class="tick" opacity="1" transform="translate(0,60.5)"><line stroke="currentColor" x2="-6"></line><text fill="currentColor" x="-9" dy="0.32em">4.0k</text></g></g><line x1="570.8333333333333" y1="260.64000000000004" x2="80" y2="260.64000000000004" style="stroke: steelblue; stroke-width: 2;"></line><line x1="570.8333333333333" y1="260.64000000000004" x2="700" y2="397.63" style="stroke: green; stroke-width: 2;"></line><path fill="none" stroke="black" stroke-width="2.5" stroke-linejoin="round" stroke-linecap="round" d="M80,208.96C80,208.96,95.36848915357902,246.7585963472469,105.83333333333334,251.33C113.45989192597969,254.66154294602953,123.77079530535566,250.73845603619813,131.66666666666666,246.10500000000002C141.35450368230926,240.41998249607005,147.97218826502345,222.76795989969017,157.5,215.98999999999998C165.46971442427392,210.32045002543344,175.0369827222978,210.5084686719586,183.33333333333331,205.82500000000002C192.31320669418852,200.75566800868114,201.24347284375585,194.6906287595903,209.16666666666669,186.065C218.79328545845624,175.58492823046095,226.6239753755116,159.76149662563247,235,145.59499999999997C243.8750435430988,130.5845051599934,251.14553815195686,110.9535012428088,260.83333333333337,98.285C268.7292229922347,87.95973134143412,278.9805868889963,71.97597632700088,286.66666666666663,73.49C296.9258276913827,75.51087580480956,304.8403972306312,108.73212932635455,312.5,131.82C322.8476442993523,163.0102693329904,326.8921745818421,217.4856703469367,338.33333333333337,245.34500000000003C345.753936832368,263.4142396281397,355.68053572015174,272.7262396433826,364.16666666666663,286.95500000000004C372.91046273048806,301.61578942021805,381.8760614216405,315.5582331787555,390,332.08C399.24154356531716,350.87465561953763,404.03024859011737,384.7828702677608,415.8333333333333,394.21C423.20078208178626,400.09438502800793,434.01795871825857,402.07122258006075,441.6666666666667,398.67499999999995C452.0520853358456,394.0636076412434,457.25992230705117,361.4511119323816,467.5,357.825C475.1919723173025,355.1011971696245,484.91300944284075,367.4220425752808,493.3333333333333,366.565C502.1537951027888,365.6672303454863,510.8652921647135,350.5838591059045,519.1666666666667,351.46000000000004C528.1396599707747,352.40702466131665,536.7405745661886,375.7041656622961,545,375.02C554.0316318951433,374.2718689748247,562.2222222222221,353.10666666666657,570.8333333333333,342.15C579.4444444444443,331.1933333333332,587.0872152801817,311.4715436780785,596.6666666666667,309.28C604.6116826324953,307.46237508499615,622.5,321.91499999999996,622.5,321.91499999999996"></path><g fill="#ffffff"><circle cx="80" cy="208.96" r="8"></circle><circle cx="105.83333333333334" cy="251.33" r="8"></circle><circle cx="131.66666666666666" cy="246.10500000000002" r="8"></circle><circle cx="157.5" cy="215.98999999999998" r="8"></circle><circle cx="183.33333333333331" cy="205.82500000000002" r="8"></circle><circle cx="209.16666666666669" cy="186.065" r="8"></circle><circle cx="235" cy="145.59499999999997" r="8"></circle><circle cx="260.83333333333337" cy="98.285" r="8"></circle><circle cx="286.66666666666663" cy="73.49" r="8"></circle><circle cx="312.5" cy="131.82" r="8"></circle><circle cx="338.33333333333337" cy="245.34500000000003" r="8"></circle><circle cx="364.16666666666663" cy="286.95500000000004" r="8"></circle><circle cx="390" cy="332.08" r="8"></circle><circle cx="415.8333333333333" cy="394.21" r="8"></circle><circle cx="441.6666666666667" cy="398.67499999999995" r="8"></circle><circle cx="467.5" cy="357.825" r="8"></circle><circle cx="493.3333333333333" cy="366.565" r="8"></circle><circle cx="519.1666666666667" cy="351.46000000000004" r="8"></circle><circle cx="545" cy="375.02" r="8"></circle><circle cx="570.8333333333333" cy="342.15" r="8"></circle><circle cx="596.6666666666667" cy="309.28" r="8"></circle><circle cx="622.5" cy="321.91499999999996" r="8"></circle></g><g stroke="steelblue" stroke-width="2" fill="none"><circle cx="80" cy="208.96" r="4"></circle><circle cx="105.83333333333334" cy="251.33" r="4"></circle><circle cx="131.66666666666666" cy="246.10500000000002" r="4"></circle><circle cx="157.5" cy="215.98999999999998" r="4"></circle><circle cx="183.33333333333331" cy="205.82500000000002" r="4"></circle><circle cx="209.16666666666669" cy="186.065" r="4"></circle><circle cx="235" cy="145.59499999999997" r="4"></circle><circle cx="260.83333333333337" cy="98.285" r="4"></circle><circle cx="286.66666666666663" cy="73.49" r="4"></circle><circle cx="312.5" cy="131.82" r="4"></circle><circle cx="338.33333333333337" cy="245.34500000000003" r="4"></circle><circle cx="364.16666666666663" cy="286.95500000000004" r="4"></circle><circle cx="390" cy="332.08" r="4"></circle><circle cx="415.8333333333333" cy="394.21" r="4"></circle><circle cx="441.6666666666667" cy="398.67499999999995" r="4"></circle><circle cx="467.5" cy="357.825" r="4"></circle><circle cx="493.3333333333333" cy="366.565" r="4"></circle><circle cx="519.1666666666667" cy="351.46000000000004" r="4"></circle><circle cx="545" cy="375.02" r="4"></circle><circle cx="570.8333333333333" cy="342.15" r="4"></circle><circle cx="596.6666666666667" cy="309.28" r="4"></circle><circle cx="622.5" cy="321.91499999999996" r="4"></circle></g><path transform="translate(700,397.63)" d="M0,-14.71415478191356L8.495221224235612,0L0,14.71415478191356L-8.495221224235612,0Z" fill="#ffffff"></path><path transform="translate(700,397.63)" d="M0,-11.397535284773888L6.5803700647624614,0L0,11.397535284773888L-6.5803700647624614,0Z" fill="#33cc33"></path></g></svg>