<svg xmlns="http://www.w3.org/2000/svg" width="720" height="540" viewBox="0,0,720,540"><g fill="none" stroke-linecap="round"><rect width="720" height="540" fill="#ffffff"></rect><g transform="translate(0,440)" fill="none" font-size="10" font-family="sans-serif" text-anchor="middle"><path class="domain" stroke="currentColor" d="M80.5,6V0.5H700.5V6"></path><g class="tick" opacity="1" transform="translate(80.5,0)"><line stroke="currentColor" y2="6"></line><text fill="currentColor" y="9" dy="0.71em">1996</text></g><g class="tick" opacity="1" transform="translate(132.16666666666666,0)"><line stroke="currentColor" y2="6"></line><text fill="currentColor" y="9" dy="0.71em">1998</text></g><g class="tick" opacity="1" transform="translate(183.83333333333331,0)"><line stroke="currentColor" y2="6"></line><text fill="currentColor" y="9" dy="0.71em">2000</text></g><g class="tick" opacity="1" transform="translate(235.5,0)"><line stroke="currentColor" y2="6"></line><text fill="currentColor" y="9" dy="0.71em">2002</text></g><g class="tick" opacity="1" transform="translate(287.16666666666663,0)"><line stroke="currentColor" y2="6"></line><text fill="currentColor" y="9" dy="0.71em">2004</text></g><g class="tick" opacity="1" transform="translate(338.83333333333337,0)"><line stroke="currentColor" y2="6"></line><text fill="currentColor" y="9" dy="0.71em">2006</text></g><g class="tick" opacity="1" transform="translate(390.5,0)"><line stroke="currentColor" y2="6"></line><text fill="currentColor" y="9" dy="0.71em">2008</text></g><g class="tick" opacity="1" transform="translate(442.1666666666667,0)"><line stroke="currentColor" y2="6"></line><text fill="currentColor" y="9" dy="0.71em">2010</text></g><g class="tick" opacity="1" transform="translate(493.8333333333333,0)"><line stroke="currentColor" y2="6"></line><text fill="currentColor" y="9" dy="0.71em">2012</text></g><g class="tick" opacity="1" transform="translate(545.5,0)"><line stroke="currentColor" y2="6"></line><text fill="currentColor" y="9" dy="0.71em">2014</text></g><g class="tick" opacity="1" transform="translate(597.1666666666667,0)"><line stroke="currentColor" y2="6"></line><text fill="currentColor" y="9" dy="0.71em">2016</text></g><g class="tick" opacity="1" transform="translate(648.8333333333333,0)"><line stroke="currentColor" y2="6"></line><text fill="currentColor" y="9" dy="0.71em">2018</text></g><g class="tick" opacity="1" transform="translate(700.5,0)"><line stroke="currentColor" y2="6"></line><text fill="currentColor" y="9" dy="0.71em">2020</text></g></g><g transform="translate(80,0)" fill="none" font-size="10" font-family="sans-serif" text-anchor="end"><g class="tick" opacity="1" transform="translate(0,440.5)"><line stroke="currentColor" x2="-6"></line><text fill="currentColor" x="-9" dy="0.32em">0.0k</text></g><g class="tick" opacity="1" transform="translate(0,415.1666666666667)"><line stroke="currentColor" x2="-6"></line><text fill="currentColor" x="-9" dy="0.32em">0.2k</text></g><g class="tick" opacity="1" transform="translate(0,389.83333333333337)"><line stroke="currentColor" x2="-6"></line><text fill="currentColor" x="-9" dy="0.32em">0.4k</text></g><g class="tick" opacity="1" transform="translate(0,364.5)"><line stroke="currentColor" x2="-6"></line><text fill="currentColor" x="-9" dy="0.32em">0.6k</text></g><g class="tick" opacity="1" transform="translate(0,339.1666666666667)"><line stroke="currentColor" x2="-6"></line><text fill="currentColor" x="-9" dy="0.32em">0.8k</text></g><g class="tick" opacity="1" transform="translate(0,313.83333333333337)"><line stroke="currentColor" x2="-6"></line><text fill="currentColor" x="-9" dy="0.32em">1.0k</text></g><g class="tick" opacity="1" transform="translate(0,288.5)"><line stroke="currentColor" x2="-6"></line><text fill="currentColor" x="-9" dy="0.32em">1.2k</text></g><g class="tick" opacity="1" transform="translate(0,263.16666666666663)"><line stroke="currentColor" x2="-6"></line><text fill="currentColor" x="-9" dy="0.32em">1.4k</text></g><g class="tick" opacity="1" transform="translate(0,237.83333333333334)"><line stroke="currentColor" x2="-6"></line><text fill="currentColor" x="-9" dy="0.32em">1.6k</text></g><g class="tick" opacity="1" transform="translate(0,212.5)"><line stroke="currentColor" x2="-6"></line><text fill="currentColor" x="-9" dy="0.32em">1.8k</text></g><g class="tick" opacity="1" transform="translate(0,187.16666666666669)"><line stroke="currentColor" x2="-6"></line><text fill="currentColor" x="-9" dy="0.32em">2.0k</text></g><g class="tick" opacity="1" transform="translate(0,161.83333333333337)"><line stroke="currentColor" x2="-6"></line><text fill="currentColor" x="-9" dy="0.32em">2.2k</text></g><g class="tick" opacity="1" transform="translate(0,136.5)"><line stroke="currentColor" x2="-6"></line><text fill="currentColor" x="-9" dy="0.32em">2.4k</text></g><g class="tick" opacity="1" transform="translate(0,111.16666666666666)"><line stroke="currentColor" x2="-6"></line><text fill="currentColor" x="-9" dy="0.32em">2.6k</text></g><g class="tick" opacity="1" transform="translate(0,85.83333333333333)"><line stroke="currentColor" x2="-6"></line><text fill="currentColor" x="-9" dy="0.32em">2.8k</text></g><g class="tick" opacity="1" transform="translate(0,60.5)"><line stroke="currentColor" x2="-6"></line><text fill="currentColor" x="-9" dy="0.32em">3.0k</text></g></g><line x1="570.8333333333333" y1="341.32666666666665" x2="80" y2="341.32666666666665" style="stroke: steelblue; stroke-width: 2;"></line><line x1="570.8333333333333" y1="341.32666666666665" x2="700" y2="420.24" style="stroke: green; stroke-width: 2;"></line><path fill="none" stroke="black" stroke-width="2.5" stroke-linejoin="round" stroke-linecap="round" d="M80,323.34000000000003C80,323.34000000000003,93.73234478608387,380.5917791102802,105.83333333333334,388.82666666666665C113.16379311263773,393.81514440825634,123.05555555555554,388.82666666666665,131.66666666666666,388.82666666666665C140.27777777777774,388.8266666666666,148.88888888888889,388.8266666666666,157.5,388.82666666666665C166.11111111111111,388.82666666666665,174.80432048053243,390.0158603881563,183.33333333333331,388.82666666666665C192.02979805261594,387.6141252598459,200.47020194738406,382.69254140682085,209.16666666666669,381.48C217.69567951946746,380.2908062785102,226.38888888888894,381.47999999999996,235,381.48C243.61111111111114,381.48,253.21729930260807,385.72625919549694,260.83333333333337,381.48C271.33721936784633,375.62364188991745,276.1627806321536,345.5363581100824,286.66666666666663,339.67999999999995C294.2827006973918,335.43374080450303,303.88888888888886,339.67999999999995,312.5,339.67999999999995C321.1111111111112,339.67999999999995,330.4557594228465,343.2738832422438,338.33333333333337,339.67999999999995C348.0635872847317,335.24089260271404,354.4364127152683,314.35244073061915,364.16666666666663,309.91333333333336C372.0442405771534,306.31945009108944,381.3888888888889,309.91333333333336,390,309.91333333333336C398.6111111111111,309.9133333333333,407.27497388408165,310.8665231082205,415.8333333333333,309.91333333333336C424.4985212553364,308.94824550619705,433.0014787446633,305.0517544938028,441.6666666666667,304.08666666666664C450.2250261159183,303.1334768917795,458.9934519323989,302.7445168154678,467.5,304.08666666666664C476.22101305346746,305.4626544679458,486.15259421558756,317.12390806565367,493.3333333333333,312.44666666666666C515.1599844332615,298.2296738958896,511.07227954612534,62.81239915831928,519.1666666666667,62.913333333333355C528.4587269950706,63.02920207416099,520.5749238114851,378.7587881793332,545,392.5C552.2267371107116,396.56566287221074,563.6279217871479,388.4217265396602,570.8333333333333,379.4533333333333C584.5058820330412,362.4354583534439,586.1985564807308,305.6260244137299,596.6666666666667,278.5C604.2923358464395,258.7395958136309,622.5,229.60666666666668,622.5,229.60666666666668"></path><g fill="#ffffff"><circle cx="80" cy="323.34000000000003" r="8"></circle><circle cx="105.83333333333334" cy="388.82666666666665" r="8"></circle><circle cx="131.66666666666666" cy="388.82666666666665" r="8"></circle><circle cx="157.5" cy="388.82666666666665" r="8"></circle><circle cx="183.33333333333331" cy="388.82666666666665" r="8"></circle><circle cx="209.16666666666669" cy="381.48" r="8"></circle><circle cx="235" cy="381.48" r="8"></circle><circle cx="260.83333333333337" cy="381.48" r="8"></circle><circle cx="286.66666666666663" cy="339.67999999999995" r="8"></circle><circle cx="312.5" cy="339.67999999999995" r="8"></circle><circle cx="338.33333333333337" cy="339.67999999999995" r="8"></circle><circle cx="364.16666666666663" cy="309.91333333333336" r="8"></circle><circle cx="390" cy="309.91333333333336" r="8"></circle><circle cx="415.8333333333333" cy="309.91333333333336" r="8"></circle><circle cx="441.6666666666667" cy="304.08666666666664" r="8"></circle><circle cx="467.5" cy="304.08666666666664" r="8"></circle><circle cx="493.3333333333333" cy="312.44666666666666" r="8"></circle><circle cx="519.1666666666667" cy="62.913333333333355" r="8"></circle><circle cx="545" cy="392.5" r="8"></circle><circle cx="570.8333333333333" cy="379.4533333333333" r="8"></circle><circle cx="596.6666666666667" cy="278.5" r="8"></circle><circle cx="622.5" cy="229.60666666666668" r="8"></circle></g><g stroke="steelblue" stroke-width="2" fill="none"><circle cx="80" cy="323.34000000000003" r="4"></circle><circle cx="105.83333333333334" cy="388.82666666666665" r="4"></circle><circle cx="131.66666666666666" cy="388.82666666666665" r="4"></circle><circle cx="157.5" cy="388.82666666666665" r="4"></circle><circle cx="183.33333333333331" cy="388.82666666666665" r="4"></circle><circle cx="209.16666666666669" cy="381.48" r="4"></circle><circle cx="235" cy="381.48" r="4"></circle><circle cx="260.83333333333337" cy="381.48" r="4"></circle><circle cx="286.66666666666663" cy="339.67999999999995" r="4"></circle><circle cx="312.5" cy="339.67999999999995" r="4"></circle><circle cx="338.33333333333337" cy="339.67999999999995" r="4"></circle><circle cx="364.16666666666663" cy="309.91333333333336" r="4"></circle><circle cx="390" cy="309.91333333333336" r="4"></circle><circle cx="415.8333333333333" cy="309.91333333333336" r="4"></circle><circle cx="441.6666666666667" cy="304.08666666666664" r="4"></circle><circle cx="467.5" cy="304.08666666666664" r="4"></circle><circle cx="493.3333333333333" cy="312.44666666666666" r="4"></circle><circle cx="519.1666666666667" cy="62.913333333333355" r="4"></circle><circle cx="545" cy="392.5" r="4"></circle><circle cx="570.8333333333333" cy="379.4533333333333" r="4"></circle><circle cx="596.6666666666667" cy="278.5" r="4"></circle><circle cx="622.5" cy="229.60666666666668" r="4"></circle></g><path transform="translate(700,420.24)" d="M0,-14.71415478191356L8.495221224235612,0L0,14.71415478191356L-8.495221224235612,0Z" fill="#ffffff"></path><path transform="translate(700,420.24)" d="M0,-11.397535284773888L6.5803700647624614,0L0,11.397535284773888L-6.5803700647624614,0Z" fill="#33cc33"></path></g></svg>