<svg xmlns="http://www.w3.org/2000/svg" width="720" height="540" viewBox="0,0,720,540"><g fill="none" stroke-linecap="round"><rect width="720" height="540" fill="#ffffff"></rect><g transform="translate(0,440)" fill="none" font-size="10" font-family="sans-serif" text-anchor="middle"><path class="domain" stroke="currentColor" d="M80.5,6V0.5H700.5V6"></path><g class="tick" opacity="1" transform="translate(80.5,0)"><line stroke="currentColor" y2="6"></line><text fill="currentColor" y="9" dy="0.71em">1996</text></g><g class="tick" opacity="1" transform="translate(132.16666666666666,0)"><line stroke="currentColor" y2="6"></line><text fill="currentColor" y="9" dy="0.71em">1998</text></g><g class="tick" opacity="1" transform="translate(183.83333333333331,0)"><line stroke="currentColor" y2="6"></line><text fill="currentColor" y="9" dy="0.71em">2000</text></g><g class="tick" opacity="1" transform="translate(235.5,0)"><line stroke="currentColor" y2="6"></line><text fill="currentColor" y="9" dy="0.71em">2002</text></g><g class="tick" opacity="1" transform="translate(287.16666666666663,0)"><line stroke="currentColor" y2="6"></line><text fill="currentColor" y="9" dy="0.71em">2004</text></g><g class="tick" opacity="1" transform="translate(338.83333333333337,0)"><line stroke="currentColor" y2="6"></line><text fill="currentColor" y="9" dy="0.71em">2006</text></g><g class="tick" opacity="1" transform="translate(390.5,0)"><line stroke="currentColor" y2="6"></line><text fill="currentColor" y="9" dy="0.71em">2008</text></g><g class="tick" opacity="1" transform="translate(442.1666666666667,0)"><line stroke="currentColor" y2="6"></line><text fill="currentColor" y="9" dy="0.71em">2010</text></g><g class="tick" opacity="1" transform="translate(493.8333333333333,0)"><line stroke="currentColor" y2="6"></line><text fill="currentColor" y="9" dy="0.71em">2012</text></g><g class="tick" opacity="1" transform="translate(545.5,0)"><line stroke="currentColor" y2="6"></line><text fill="currentColor" y="9" dy="0.71em">2014</text></g><g class="tick" opacity="1" transform="translate(597.1666666666667,0)"><line stroke="currentColor" y2="6"></line><text fill="currentColor" y="9" dy="0.71em">2016</text></g><g class="tick" opacity="1" transform="translate(648.8333333333333,0)"><line stroke="currentColor" y2="6"></line><text fill="currentColor" y="9" dy="0.71em">2018</text></g><g class="tick" opacity="1" transform="translate(700.5,0)"><line stroke="currentColor" y2="6"></line><text fill="currentColor" y="9" dy="0.71em">2020</text></g></g><g transform="translate(80,0)" fill="none" font-size="10" font-family="sans-serif" text-anchor="end"><g class="tick" opacity="1" transform="translate(0,440.5)"><line stroke="currentColor" x2="-6"></line><text fill="currentColor" x="-9" dy="0.32em">0</text></g><g class="tick" opacity="1" transform="translate(0,413.3571428571429)"><line stroke="currentColor" x2="-6"></line><text fill="currentColor" x="-9" dy="0.32em">20</text></g><g class="tick" opacity="1" transform="translate(0,386.2142857142857)"><line stroke="currentColor" x2="-6"></line><text fill="currentColor" x="-9" dy="0.32em">40</text></g><g class="tick" opacity="1" transform="translate(0,359.07142857142856)"><line stroke="currentColor" x2="-6"></line><text fill="currentColor" x="-9" dy="0.32em">60</text></g><g class="tick" opacity="1" transform="translate(0,331.92857142857144)"><line stroke="currentColor" x2="-6"></line><text fill="currentColor" x="-9" dy="0.32em">80</text></g><g class="tick" opacity="1" transform="translate(0,304.7857142857143)"><line stroke="currentColor" x2="-6"></line><text fill="currentColor" x="-9" dy="0.32em">100</text></g><g class="tick" opacity="1" transform="translate(0,277.6428571428571)"><line stroke="currentColor" x2="-6"></line><text fill="currentColor" x="-9" dy="0.32em">120</text></g><g class="tick" opacity="1" transform="translate(0,250.5)"><line stroke="currentColor" x2="-6"></line><text fill="currentColor" x="-9" dy="0.32em">140</text></g><g class="tick" opacity="1" transform="translate(0,223.35714285714286)"><line stroke="currentColor" x2="-6"></line><text fill="currentColor" x="-9" dy="0.32em">160</text></g><g class="tick" opacity="1" transform="translate(0,196.2142857142857)"><line stroke="currentColor" x2="-6"></line><text fill="currentColor" x="-9" dy="0.32em">180</text></g><g class="tick" opacity="1" transform="translate(0,169.07142857142856)"><line stroke="currentColor" x2="-6"></line><text fill="currentColor" x="-9" dy="0.32em">200</text></g><g class="tick" opacity="1" transform="translate(0,141.92857142857144)"><line stroke="currentColor" x2="-6"></line><text fill="currentColor" x="-9" dy="0.32em">220</text></g><g class="tick" opacity="1" transform="translate(0,114.7857142857143)"><line stroke="currentColor" x2="-6"></line><text fill="currentColor" x="-9" dy="0.32em">240</text></g><g class="tick" opacity="1" transform="translate(0,87.64285714285714)"><line stroke="currentColor" x2="-6"></line><text fill="currentColor" x="-9" dy="0.32em">260</text></g><g class="tick" opacity="1" transform="translate(0,60.5)"><line stroke="currentColor" x2="-6"></line><text fill="currentColor" x="-9" dy="0.32em">280</text></g></g><line x1="570.8333333333333" y1="30.14285714285716" x2="80" y2="30.14285714285716" style="stroke: steelblue; stroke-width: 2;"></line><line x1="570.8333333333333" y1="30.14285714285716" x2="700" y2="358.57142857142856" style="stroke: green; stroke-width: 2;"></line><path fill="none" stroke="black" stroke-width="2.5" stroke-linejoin="round" stroke-linecap="round" d="M209.16666666666669,292.07142857142856C209.16666666666669,292.07142857142856,227.49090617598424,303.39377563693455,235,300.21428571428567C245.95784317357766,295.57453120317155,252.66337235071063,248.23145489816676,260.83333333333337,248.64285714285717C269.9997698102977,249.10443738179063,279.4240669535453,317.42541863392887,286.66666666666663,316.5C299.7296985334176,314.83087929970816,303.93697511417747,81.70376407831301,312.5,81.71428571428572C321.16029600594084,81.72492687009284,322.35106933065487,318.2009882410917,338.33333333333337,321.92857142857144C345.47330990432056,323.5938459241342,356.3609601148578,297.2849053689711,364.16666666666663,281.21428571428567C374.075714389727,260.8132450089403,382.0199639171827,234.89909741027645,390,207.92857142857142C399.5067563261059,175.79811289003615,406.9952908008694,100.82696107647898,415.8333333333333,100.7142857142857C424.2391657334728,100.60712055789017,428.7181558915568,192.27381044704228,441.6666666666667,197.07142857142858C448.91764111815553,199.7580237368583,459.9145404314047,188.37731932089198,467.5,179.42857142857142C478.1224513580548,166.89701175943537,483.78579325308414,124.82136839971149,493.3333333333333,123.78571428571426C501.2935099741896,122.9222468776746,511.702733131538,159.14130478202944,519.1666666666667,157.71428571428572C530.3558150151224,155.57504800940646,535.549576908343,65.95772887136,545,65.42857142857142C553.0083960988177,64.98015738833338,562.2222222222222,107.95238095238096,570.8333333333333,129.21428571428572C579.4444444444443,150.47619047619048,596.6666666666667,193,596.6666666666667,193"></path><g fill="#ffffff"><circle cx="209.16666666666669" cy="292.07142857142856" r="8"></circle><circle cx="235" cy="300.21428571428567" r="8"></circle><circle cx="260.83333333333337" cy="248.64285714285717" r="8"></circle><circle cx="286.66666666666663" cy="316.5" r="8"></circle><circle cx="312.5" cy="81.71428571428572" r="8"></circle><circle cx="338.33333333333337" cy="321.92857142857144" r="8"></circle><circle cx="364.16666666666663" cy="281.21428571428567" r="8"></circle><circle cx="390" cy="207.92857142857142" r="8"></circle><circle cx="415.8333333333333" cy="100.7142857142857" r="8"></circle><circle cx="441.6666666666667" cy="197.07142857142858" r="8"></circle><circle cx="467.5" cy="179.42857142857142" r="8"></circle><circle cx="493.3333333333333" cy="123.78571428571426" r="8"></circle><circle cx="519.1666666666667" cy="157.71428571428572" r="8"></circle><circle cx="545" cy="65.42857142857142" r="8"></circle><circle cx="570.8333333333333" cy="129.21428571428572" r="8"></circle><circle cx="596.6666666666667" cy="193" r="8"></circle></g><g stroke="steelblue" stroke-width="2" fill="none"><circle cx="209.16666666666669" cy="292.07142857142856" r="4"></circle><circle cx="235" cy="300.21428571428567" r="4"></circle><circle cx="260.83333333333337" cy="248.64285714285717" r="4"></circle><circle cx="286.66666666666663" cy="316.5" r="4"></circle><circle cx="312.5" cy="81.71428571428572" r="4"></circle><circle cx="338.33333333333337" cy="321.92857142857144" r="4"></circle><circle cx="364.16666666666663" cy="281.21428571428567" r="4"></circle><circle cx="390" cy="207.92857142857142" r="4"></circle><circle cx="415.8333333333333" cy="100.7142857142857" r="4"></circle><circle cx="441.6666666666667" cy="197.07142857142858" r="4"></circle><circle cx="467.5" cy="179.42857142857142" r="4"></circle><circle cx="493.3333333333333" cy="123.78571428571426" r="4"></circle><circle cx="519.1666666666667" cy="157.71428571428572" r="4"></circle><circle cx="545" cy="65.42857142857142" r="4"></circle><circle cx="570.8333333333333" cy="129.21428571428572" r="4"></circle><circle cx="596.6666666666667" cy="193" r="4"></circle></g><path transform="translate(700,358.57142857142856)" d="M0,-14.71415478191356L8.495221224235612,0L0,14.71415478191356L-8.495221224235612,0Z" fill="#ffffff"></path><path transform="translate(700,358.57142857142856)" d="M0,-11.397535284773888L6.5803700647624614,0L0,11.397535284773888L-6.5803700647624614,0Z" fill="#33cc33"></path></g></svg>