<svg xmlns="http://www.w3.org/2000/svg" width="720" height="540" viewBox="0,0,720,540"><g fill="none" stroke-linecap="round"><rect width="720" height="540" fill="#ffffff"></rect><g transform="translate(0,440)" fill="none" font-size="10" font-family="sans-serif" text-anchor="middle"><path class="domain" stroke="currentColor" d="M80.5,6V0.5H700.5V6"></path><g class="tick" opacity="1" transform="translate(80.5,0)"><line stroke="currentColor" y2="6"></line><text fill="currentColor" y="9" dy="0.71em">1996</text></g><g class="tick" opacity="1" transform="translate(132.16666666666666,0)"><line stroke="currentColor" y2="6"></line><text fill="currentColor" y="9" dy="0.71em">1998</text></g><g class="tick" opacity="1" transform="translate(183.83333333333331,0)"><line stroke="currentColor" y2="6"></line><text fill="currentColor" y="9" dy="0.71em">2000</text></g><g class="tick" opacity="1" transform="translate(235.5,0)"><line stroke="currentColor" y2="6"></line><text fill="currentColor" y="9" dy="0.71em">2002</text></g><g class="tick" opacity="1" transform="translate(287.16666666666663,0)"><line stroke="currentColor" y2="6"></line><text fill="currentColor" y="9" dy="0.71em">2004</text></g><g class="tick" opacity="1" transform="translate(338.83333333333337,0)"><line stroke="currentColor" y2="6"></line><text fill="currentColor" y="9" dy="0.71em">2006</text></g><g class="tick" opacity="1" transform="translate(390.5,0)"><line stroke="currentColor" y2="6"></line><text fill="currentColor" y="9" dy="0.71em">2008</text></g><g class="tick" opacity="1" transform="translate(442.1666666666667,0)"><line stroke="currentColor" y2="6"></line><text fill="currentColor" y="9" dy="0.71em">2010</text></g><g class="tick" opacity="1" transform="translate(493.8333333333333,0)"><line stroke="currentColor" y2="6"></line><text fill="currentColor" y="9" dy="0.71em">2012</text></g><g class="tick" opacity="1" transform="translate(545.5,0)"><line stroke="currentColor" y2="6"></line><text fill="currentColor" y="9" dy="0.71em">2014</text></g><g class="tick" opacity="1" transform="translate(597.1666666666667,0)"><line stroke="currentColor" y2="6"></line><text fill="currentColor" y="9" dy="0.71em">2016</text></g><g class="tick" opacity="1" transform="translate(648.8333333333333,0)"><line stroke="currentColor" y2="6"></line><text fill="currentColor" y="9" dy="0.71em">2018</text></g><g class="tick" opacity="1" transform="translate(700.5,0)"><line stroke="currentColor" y2="6"></line><text fill="currentColor" y="9" dy="0.71em">2020</text></g></g><g transform="translate(80,0)" fill="none" font-size="10" font-family="sans-serif" text-anchor="end"><g class="tick" opacity="1" transform="translate(0,440.5)"><line stroke="currentColor" x2="-6"></line><text fill="currentColor" x="-9" dy="0.32em">0</text></g><g class="tick" opacity="1" transform="translate(0,405.95454545454544)"><line stroke="currentColor" x2="-6"></line><text fill="currentColor" x="-9" dy="0.32em">50</text></g><g class="tick" opacity="1" transform="translate(0,371.40909090909093)"><line stroke="currentColor" x2="-6"></line><text fill="currentColor" x="-9" dy="0.32em">100</text></g><g class="tick" opacity="1" transform="translate(0,336.8636363636364)"><line stroke="currentColor" x2="-6"></line><text fill="currentColor" x="-9" dy="0.32em">150</text></g><g class="tick" opacity="1" transform="translate(0,302.3181818181818)"><line stroke="currentColor" x2="-6"></line><text fill="currentColor" x="-9" dy="0.32em">200</text></g><g class="tick" opacity="1" transform="translate(0,267.77272727272725)"><line stroke="currentColor" x2="-6"></line><text fill="currentColor" x="-9" dy="0.32em">250</text></g><g class="tick" opacity="1" transform="translate(0,233.22727272727275)"><line stroke="currentColor" x2="-6"></line><text fill="currentColor" x="-9" dy="0.32em">300</text></g><g class="tick" opacity="1" transform="translate(0,198.6818181818182)"><line stroke="currentColor" x2="-6"></line><text fill="currentColor" x="-9" dy="0.32em">350</text></g><g class="tick" opacity="1" transform="translate(0,164.13636363636363)"><line stroke="currentColor" x2="-6"></line><text fill="currentColor" x="-9" dy="0.32em">400</text></g><g class="tick" opacity="1" transform="translate(0,129.59090909090907)"><line stroke="currentColor" x2="-6"></line><text fill="currentColor" x="-9" dy="0.32em">450</text></g><g class="tick" opacity="1" transform="translate(0,95.04545454545456)"><line stroke="currentColor" x2="-6"></line><text fill="currentColor" x="-9" dy="0.32em">500</text></g><g class="tick" opacity="1" transform="translate(0,60.5)"><line stroke="currentColor" x2="-6"></line><text fill="currentColor" x="-9" dy="0.32em">550</text></g></g><path fill="none" stroke="black" stroke-width="2.5" stroke-linejoin="round" stroke-linecap="round" d="M80,440C80,440,92.75877855782176,369.37719381958516,105.83333333333334,359.8545454545454C113.07511695085383,354.5801051306182,123.05555555555554,359.85454545454536,131.66666666666666,359.8545454545454C140.27777777777774,359.8545454545454,148.88888888888889,359.8545454545454,157.5,359.8545454545454C166.11111111111111,359.85454545454536,176.05123943976574,354.71766393456926,183.33333333333331,359.8545454545454C195.90617540443782,368.72358793498984,196.59382459556224,423.5309575195556,209.16666666666669,432.4C216.44876056023432,437.53688151997625,226.38888888888894,432.39999999999986,235,432.4C243.61111111111114,432.3999999999999,252.22529534098175,432.63005640110936,260.83333333333337,432.4C269.4475219563935,432.16977921857927,278.05247804360647,431.24840259960246,286.66666666666663,431.0181818181818C295.27470465901837,430.7881254170724,303.88888888888886,431.0181818181818,312.5,431.0181818181818C321.1111111111112,431.0181818181818,329.9151634226266,432.8420631989305,338.33333333333337,431.0181818181818C347.15639175577064,429.10657725939586,355.34360824422936,421.184331831513,364.16666666666663,419.27272727272725C372.58483657737344,417.4488458919786,381.3888888888889,419.27272727272725,390,419.27272727272725C398.6111111111111,419.2727272727272,408.56219351027096,426.0254125616057,415.8333333333333,419.27272727272725C442.5918469941442,394.4221775725971,414.908153005856,95.21418606376658,441.6666666666667,70.36363636363635C448.93780648972927,63.61095107475795,460.32164050799116,63.93349021412123,467.5,70.36363636363635C489.17994291914493,89.78383977340403,479.8363257368496,252.11788620460203,493.3333333333333,304.58181818181816C500.548282425851,332.6268937812081,510.5140411583206,346.17006026769553,519.1666666666667,366.76363636363635C527.7370488200362,387.1614701629221,536.694472926373,427.81154805067456,545,427.56363636363636C553.9673350145646,427.29597037061865,558.8587989706886,359.7909032339334,570.8333333333333,355.01818181818186C578.1788188118355,352.0904724985021,589.5285755364692,371.7090525412811,596.6666666666667,368.1454545454546C612.838417635281,360.07192083880864,622.5,221.67272727272726,622.5,221.67272727272726"></path><g fill="#ffffff"><circle cx="80" cy="440" r="8"></circle><circle cx="105.83333333333334" cy="359.8545454545454" r="8"></circle><circle cx="131.66666666666666" cy="359.8545454545454" r="8"></circle><circle cx="157.5" cy="359.8545454545454" r="8"></circle><circle cx="183.33333333333331" cy="359.8545454545454" r="8"></circle><circle cx="209.16666666666669" cy="432.4" r="8"></circle><circle cx="235" cy="432.4" r="8"></circle><circle cx="260.83333333333337" cy="432.4" r="8"></circle><circle cx="286.66666666666663" cy="431.0181818181818" r="8"></circle><circle cx="312.5" cy="431.0181818181818" r="8"></circle><circle cx="338.33333333333337" cy="431.0181818181818" r="8"></circle><circle cx="364.16666666666663" cy="419.27272727272725" r="8"></circle><circle cx="390" cy="419.27272727272725" r="8"></circle><circle cx="415.8333333333333" cy="419.27272727272725" r="8"></circle><circle cx="441.6666666666667" cy="70.36363636363635" r="8"></circle><circle cx="467.5" cy="70.36363636363635" r="8"></circle><circle cx="493.3333333333333" cy="304.58181818181816" r="8"></circle><circle cx="519.1666666666667" cy="366.76363636363635" r="8"></circle><circle cx="545" cy="427.56363636363636" r="8"></circle><circle cx="570.8333333333333" cy="355.01818181818186" r="8"></circle><circle cx="596.6666666666667" cy="368.1454545454546" r="8"></circle><circle cx="622.5" cy="221.67272727272726" r="8"></circle></g><g stroke="steelblue" stroke-width="2" fill="none"><circle cx="80" cy="440" r="4"></circle><circle cx="105.83333333333334" cy="359.8545454545454" r="4"></circle><circle cx="131.66666666666666" cy="359.8545454545454" r="4"></circle><circle cx="157.5" cy="359.8545454545454" r="4"></circle><circle cx="183.33333333333331" cy="359.8545454545454" r="4"></circle><circle cx="209.16666666666669" cy="432.4" r="4"></circle><circle cx="235" cy="432.4" r="4"></circle><circle cx="260.83333333333337" cy="432.4" r="4"></circle><circle cx="286.66666666666663" cy="431.0181818181818" r="4"></circle><circle cx="312.5" cy="431.0181818181818" r="4"></circle><circle cx="338.33333333333337" cy="431.0181818181818" r="4"></circle><circle cx="364.16666666666663" cy="419.27272727272725" r="4"></circle><circle cx="390" cy="419.27272727272725" r="4"></circle><circle cx="415.8333333333333" cy="419.27272727272725" r="4"></circle><circle cx="441.6666666666667" cy="70.36363636363635" r="4"></circle><circle cx="467.5" cy="70.36363636363635" r="4"></circle><circle cx="493.3333333333333" cy="304.58181818181816" r="4"></circle><circle cx="519.1666666666667" cy="366.76363636363635" r="4"></circle><circle cx="545" cy="427.56363636363636" r="4"></circle><circle cx="570.8333333333333" cy="355.01818181818186" r="4"></circle><circle cx="596.6666666666667" cy="368.1454545454546" r="4"></circle><circle cx="622.5" cy="221.67272727272726" r="4"></circle></g></g></svg>