<svg xmlns="http://www.w3.org/2000/svg" width="720" height="540" viewBox="0,0,720,540"><g fill="none" stroke-linecap="round"><rect width="720" height="540" fill="#ffffff"></rect><g transform="translate(0,440)" fill="none" font-size="10" font-family="sans-serif" text-anchor="middle"><path class="domain" stroke="currentColor" d="M80.5,6V0.5H700.5V6"></path><g class="tick" opacity="1" transform="translate(80.5,0)"><line stroke="currentColor" y2="6"></line><text fill="currentColor" y="9" dy="0.71em">1996</text></g><g class="tick" opacity="1" transform="translate(132.16666666666666,0)"><line stroke="currentColor" y2="6"></line><text fill="currentColor" y="9" dy="0.71em">1998</text></g><g class="tick" opacity="1" transform="translate(183.83333333333331,0)"><line stroke="currentColor" y2="6"></line><text fill="currentColor" y="9" dy="0.71em">2000</text></g><g class="tick" opacity="1" transform="translate(235.5,0)"><line stroke="currentColor" y2="6"></line><text fill="currentColor" y="9" dy="0.71em">2002</text></g><g class="tick" opacity="1" transform="translate(287.16666666666663,0)"><line stroke="currentColor" y2="6"></line><text fill="currentColor" y="9" dy="0.71em">2004</text></g><g class="tick" opacity="1" transform="translate(338.83333333333337,0)"><line stroke="currentColor" y2="6"></line><text fill="currentColor" y="9" dy="0.71em">2006</text></g><g class="tick" opacity="1" transform="translate(390.5,0)"><line stroke="currentColor" y2="6"></line><text fill="currentColor" y="9" dy="0.71em">2008</text></g><g class="tick" opacity="1" transform="translate(442.1666666666667,0)"><line stroke="currentColor" y2="6"></line><text fill="currentColor" y="9" dy="0.71em">2010</text></g><g class="tick" opacity="1" transform="translate(493.8333333333333,0)"><line stroke="currentColor" y2="6"></line><text fill="currentColor" y="9" dy="0.71em">2012</text></g><g class="tick" opacity="1" transform="translate(545.5,0)"><line stroke="currentColor" y2="6"></line><text fill="currentColor" y="9" dy="0.71em">2014</text></g><g class="tick" opacity="1" transform="translate(597.1666666666667,0)"><line stroke="currentColor" y2="6"></line><text fill="currentColor" y="9" dy="0.71em">2016</text></g><g class="tick" opacity="1" transform="translate(648.8333333333333,0)"><line stroke="currentColor" y2="6"></line><text fill="currentColor" y="9" dy="0.71em">2018</text></g><g class="tick" opacity="1" transform="translate(700.5,0)"><line stroke="currentColor" y2="6"></line><text fill="currentColor" y="9" dy="0.71em">2020</text></g></g><g transform="translate(80,0)" fill="none" font-size="10" font-family="sans-serif" text-anchor="end"><g class="tick" opacity="1" transform="translate(0,440.5)"><line stroke="currentColor" x2="-6"></line><text fill="currentColor" x="-9" dy="0.32em">0</text></g><g class="tick" opacity="1" transform="translate(0,398.27777777777777)"><line stroke="currentColor" x2="-6"></line><text fill="currentColor" x="-9" dy="0.32em">20</text></g><g class="tick" opacity="1" transform="translate(0,356.05555555555554)"><line stroke="currentColor" x2="-6"></line><text fill="currentColor" x="-9" dy="0.32em">40</text></g><g class="tick" opacity="1" transform="translate(0,313.83333333333337)"><line stroke="currentColor" x2="-6"></line><text fill="currentColor" x="-9" dy="0.32em">60</text></g><g class="tick" opacity="1" transform="translate(0,271.61111111111114)"><line stroke="currentColor" x2="-6"></line><text fill="currentColor" x="-9" dy="0.32em">80</text></g><g class="tick" opacity="1" transform="translate(0,229.38888888888889)"><line stroke="currentColor" x2="-6"></line><text fill="currentColor" x="-9" dy="0.32em">100</text></g><g class="tick" opacity="1" transform="translate(0,187.16666666666669)"><line stroke="currentColor" x2="-6"></line><text fill="currentColor" x="-9" dy="0.32em">120</text></g><g class="tick" opacity="1" transform="translate(0,144.94444444444443)"><line stroke="currentColor" x2="-6"></line><text fill="currentColor" x="-9" dy="0.32em">140</text></g><g class="tick" opacity="1" transform="translate(0,102.72222222222224)"><line stroke="currentColor" x2="-6"></line><text fill="currentColor" x="-9" dy="0.32em">160</text></g><g class="tick" opacity="1" transform="translate(0,60.5)"><line stroke="currentColor" x2="-6"></line><text fill="currentColor" x="-9" dy="0.32em">180</text></g></g><path fill="none" stroke="black" stroke-width="2.5" stroke-linejoin="round" stroke-linecap="round" d="M80,440C80,440,97.22222222222221,440,105.83333333333334,440C114.44444444444446,440,123.05555555555554,440,131.66666666666666,440C140.27777777777774,440,148.88888888888889,440,157.5,440C166.11111111111111,440,176.18618508270333,445.7540331681671,183.33333333333331,440C198.80212609741343,427.5463690531151,194.07001671960307,330.4188369584723,209.16666666666669,321.77777777777777C216.3211670196947,317.6826665328595,226.3888888888889,330.22222222222223,235,330.22222222222223C243.61111111111106,330.2222222222222,253.24505593290107,328.0350654735115,260.83333333333337,321.77777777777777C271.4445210535959,313.02780056221934,276.15820823831274,284.65356389479405,286.66666666666663,275.3333333333333C294.2814833123705,268.5795504350053,304.9809902840376,261.91448094910425,312.5,264.77777777777777C323.41066977127076,268.93264488593724,328.7873600878234,316.45723865348754,338.33333333333337,317.55555555555554C346.29426281096823,318.47150442494615,356.473112233773,299.1785693219465,364.16666666666663,285.88888888888886C374.4016569314571,268.2091868680681,382.0471394335179,217.8730398928892,390,218.33333333333331C399.56285372793195,218.88680950786153,408.12937861374274,320.0841556169158,415.8333333333333,319.6666666666667C426.0352562076177,319.11380904660876,428.84038586498264,140.1405682939232,441.6666666666667,138.11111111111114C448.9271296820755,136.96231365025815,456.2722806890659,183.23110386565887,467.5,190.88888888888889C474.95692639927455,195.97483178773592,484.99979946016794,194.8550976026323,493.3333333333333,193C502.263166509944,191.01216238273412,511.79836181094817,186.9998860711504,519.1666666666667,178.22222222222223C530.963360298776,164.16913765812737,535.2373944277433,126.79585874969325,545,106.44444444444446C552.863953477766,90.05101605909373,560.8174168867955,66.79094131096382,570.8333333333333,64.2222222222222C578.5997875442381,62.230408563444584,596.6666666666667,79.00000000000003,596.6666666666667,79.00000000000003"></path><g fill="#ffffff"><circle cx="80" cy="440" r="8"></circle><circle cx="105.83333333333334" cy="440" r="8"></circle><circle cx="131.66666666666666" cy="440" r="8"></circle><circle cx="157.5" cy="440" r="8"></circle><circle cx="183.33333333333331" cy="440" r="8"></circle><circle cx="209.16666666666669" cy="321.77777777777777" r="8"></circle><circle cx="235" cy="330.22222222222223" r="8"></circle><circle cx="260.83333333333337" cy="321.77777777777777" r="8"></circle><circle cx="286.66666666666663" cy="275.3333333333333" r="8"></circle><circle cx="312.5" cy="264.77777777777777" r="8"></circle><circle cx="338.33333333333337" cy="317.55555555555554" r="8"></circle><circle cx="364.16666666666663" cy="285.88888888888886" r="8"></circle><circle cx="390" cy="218.33333333333331" r="8"></circle><circle cx="415.8333333333333" cy="319.6666666666667" r="8"></circle><circle cx="441.6666666666667" cy="138.11111111111114" r="8"></circle><circle cx="467.5" cy="190.88888888888889" r="8"></circle><circle cx="493.3333333333333" cy="193" r="8"></circle><circle cx="519.1666666666667" cy="178.22222222222223" r="8"></circle><circle cx="545" cy="106.44444444444446" r="8"></circle><circle cx="570.8333333333333" cy="64.2222222222222" r="8"></circle><circle cx="596.6666666666667" cy="79.00000000000003" r="8"></circle></g><g stroke="steelblue" stroke-width="2" fill="none"><circle cx="80" cy="440" r="4"></circle><circle cx="105.83333333333334" cy="440" r="4"></circle><circle cx="131.66666666666666" cy="440" r="4"></circle><circle cx="157.5" cy="440" r="4"></circle><circle cx="183.33333333333331" cy="440" r="4"></circle><circle cx="209.16666666666669" cy="321.77777777777777" r="4"></circle><circle cx="235" cy="330.22222222222223" r="4"></circle><circle cx="260.83333333333337" cy="321.77777777777777" r="4"></circle><circle cx="286.66666666666663" cy="275.3333333333333" r="4"></circle><circle cx="312.5" cy="264.77777777777777" r="4"></circle><circle cx="338.33333333333337" cy="317.55555555555554" r="4"></circle><circle cx="364.16666666666663" cy="285.88888888888886" r="4"></circle><circle cx="390" cy="218.33333333333331" r="4"></circle><circle cx="415.8333333333333" cy="319.6666666666667" r="4"></circle><circle cx="441.6666666666667" cy="138.11111111111114" r="4"></circle><circle cx="467.5" cy="190.88888888888889" r="4"></circle><circle cx="493.3333333333333" cy="193" r="4"></circle><circle cx="519.1666666666667" cy="178.22222222222223" r="4"></circle><circle cx="545" cy="106.44444444444446" r="4"></circle><circle cx="570.8333333333333" cy="64.2222222222222" r="4"></circle><circle cx="596.6666666666667" cy="79.00000000000003" r="4"></circle></g></g></svg>