<svg xmlns="http://www.w3.org/2000/svg" width="720" height="540" viewBox="0,0,720,540"><g fill="none" stroke-linecap="round"><rect width="720" height="540" fill="#ffffff"></rect><g transform="translate(0,510)" fill="none" font-size="10" font-family="sans-serif" text-anchor="middle"><path class="domain" stroke="currentColor" d="M40.5,6V0.5H700.5V6"></path><g class="tick" opacity="1" transform="translate(40.5,0)"><line stroke="currentColor" y2="6"></line><text fill="currentColor" y="9" dy="0.71em">1996</text></g><g class="tick" opacity="1" transform="translate(95.5,0)"><line stroke="currentColor" y2="6"></line><text fill="currentColor" y="9" dy="0.71em">1998</text></g><g class="tick" opacity="1" transform="translate(150.5,0)"><line stroke="currentColor" y2="6"></line><text fill="currentColor" y="9" dy="0.71em">2000</text></g><g class="tick" opacity="1" transform="translate(205.5,0)"><line stroke="currentColor" y2="6"></line><text fill="currentColor" y="9" dy="0.71em">2002</text></g><g class="tick" opacity="1" transform="translate(260.5,0)"><line stroke="currentColor" y2="6"></line><text fill="currentColor" y="9" dy="0.71em">2004</text></g><g class="tick" opacity="1" transform="translate(315.5,0)"><line stroke="currentColor" y2="6"></line><text fill="currentColor" y="9" dy="0.71em">2006</text></g><g class="tick" opacity="1" transform="translate(370.5,0)"><line stroke="currentColor" y2="6"></line><text fill="currentColor" y="9" dy="0.71em">2008</text></g><g class="tick" opacity="1" transform="translate(425.50000000000006,0)"><line stroke="currentColor" y2="6"></line><text fill="currentColor" y="9" dy="0.71em">2010</text></g><g class="tick" opacity="1" transform="translate(480.49999999999994,0)"><line stroke="currentColor" y2="6"></line><text fill="currentColor" y="9" dy="0.71em">2012</text></g><g class="tick" opacity="1" transform="translate(535.5,0)"><line stroke="currentColor" y2="6"></line><text fill="currentColor" y="9" dy="0.71em">2014</text></g><g class="tick" opacity="1" transform="translate(590.5,0)"><line stroke="currentColor" y2="6"></line><text fill="currentColor" y="9" dy="0.71em">2016</text></g><g class="tick" opacity="1" transform="translate(645.5,0)"><line stroke="currentColor" y2="6"></line><text fill="currentColor" y="9" dy="0.71em">2018</text></g><g class="tick" opacity="1" transform="translate(700.5,0)"><line stroke="currentColor" y2="6"></line><text fill="currentColor" y="9" dy="0.71em">2020</text></g></g><g transform="translate(40,0)" fill="none" font-size="10" font-family="sans-serif" text-anchor="end"><path class="domain" stroke="currentColor" d="M-6,510.5H0.5V20.5H-6"></path><g class="tick" opacity="1" transform="translate(0,510.5)"><line stroke="currentColor" x2="-6"></line><text fill="currentColor" x="-9" dy="0.32em">0.0k</text></g><g class="tick" opacity="1" transform="translate(0,471.947678992919)"><line stroke="currentColor" x2="-6"></line><text fill="currentColor" x="-9" dy="0.32em">0.1k</text></g><g class="tick" opacity="1" transform="translate(0,433.3953579858379)"><line stroke="currentColor" x2="-6"></line><text fill="currentColor" x="-9" dy="0.32em">0.2k</text></g><g class="tick" opacity="1" transform="translate(0,394.8430369787569)"><line stroke="currentColor" x2="-6"></line><text fill="currentColor" x="-9" dy="0.32em">0.3k</text></g><g class="tick" opacity="1" transform="translate(0,356.29071597167587)"><line stroke="currentColor" x2="-6"></line><text fill="currentColor" x="-9" dy="0.32em">0.4k</text></g><g class="tick" opacity="1" transform="translate(0,317.7383949645949)"><line stroke="currentColor" x2="-6"></line><text fill="currentColor" x="-9" dy="0.32em">0.5k</text></g><g class="tick" opacity="1" transform="translate(0,279.18607395751377)"><line stroke="currentColor" x2="-6"></line><text fill="currentColor" x="-9" dy="0.32em">0.6k</text></g><g class="tick" opacity="1" transform="translate(0,240.63375295043272)"><line stroke="currentColor" x2="-6"></line><text fill="currentColor" x="-9" dy="0.32em">0.7k</text></g><g class="tick" opacity="1" transform="translate(0,202.0814319433517)"><line stroke="currentColor" x2="-6"></line><text fill="currentColor" x="-9" dy="0.32em">0.8k</text></g><g class="tick" opacity="1" transform="translate(0,163.52911093627063)"><line stroke="currentColor" x2="-6"></line><text fill="currentColor" x="-9" dy="0.32em">0.9k</text></g><g class="tick" opacity="1" transform="translate(0,124.97678992918964)"><line stroke="currentColor" x2="-6"></line><text fill="currentColor" x="-9" dy="0.32em">1.0k</text></g><g class="tick" opacity="1" transform="translate(0,86.42446892210857)"><line stroke="currentColor" x2="-6"></line><text fill="currentColor" x="-9" dy="0.32em">1.1k</text></g><g class="tick" opacity="1" transform="translate(0,47.872147915027554)"><line stroke="currentColor" x2="-6"></line><text fill="currentColor" x="-9" dy="0.32em">1.2k</text></g></g><g stroke="steelblue" stroke-width="1.5" fill="none"><circle cx="40" cy="100.95987411487022" r="3"></circle><circle cx="67.5" cy="352.32100708103854" r="3"></circle><circle cx="95" cy="119.85051140833987" r="3"></circle><circle cx="122.5" cy="35.80645161290322" r="3"></circle><circle cx="150" cy="99.41778127458696" r="3"></circle><circle cx="177.5" cy="140.6687647521636" r="3"></circle><circle cx="205" cy="91.70731707317074" r="3"></circle><circle cx="232.5" cy="127.1754523996853" r="3"></circle><circle cx="260" cy="218.92997639653817" r="3"></circle><circle cx="287.5" cy="154.54760031471278" r="3"></circle><circle cx="315" cy="250.1573564122738" r="3"></circle><circle cx="342.5" cy="266.73485444531866" r="3"></circle><circle cx="370" cy="20" r="3"></circle><circle cx="397.49999999999994" cy="190.786782061369" r="3"></circle><circle cx="425.00000000000006" cy="235.507474429583" r="3"></circle><circle cx="452.5" cy="357.3328088119591" r="3"></circle><circle cx="479.99999999999994" cy="406.294256490952" r="3"></circle><circle cx="507.50000000000006" cy="354.63414634146335" r="3"></circle><circle cx="535" cy="410.92053501180175" r="3"></circle><circle cx="562.5" cy="429.42564909520064" r="3"></circle><circle cx="590" cy="409.37844217151854" r="3"></circle><circle cx="617.5" cy="407.8363493312353" r="3"></circle></g></g></svg>