<svg xmlns="http://www.w3.org/2000/svg" width="720" height="540" viewBox="0,0,720,540"><g fill="none" stroke-linecap="round"><rect width="720" height="540" fill="#ffffff"></rect><g transform="translate(0,440)" fill="none" font-size="10" font-family="sans-serif" text-anchor="middle"><path class="domain" stroke="currentColor" d="M80.5,6V0.5H700.5V6"></path><g class="tick" opacity="1" transform="translate(80.5,0)"><line stroke="currentColor" y2="6"></line><text fill="currentColor" y="9" dy="0.71em">1996</text></g><g class="tick" opacity="1" transform="translate(132.16666666666666,0)"><line stroke="currentColor" y2="6"></line><text fill="currentColor" y="9" dy="0.71em">1998</text></g><g class="tick" opacity="1" transform="translate(183.83333333333331,0)"><line stroke="currentColor" y2="6"></line><text fill="currentColor" y="9" dy="0.71em">2000</text></g><g class="tick" opacity="1" transform="translate(235.5,0)"><line stroke="currentColor" y2="6"></line><text fill="currentColor" y="9" dy="0.71em">2002</text></g><g class="tick" opacity="1" transform="translate(287.16666666666663,0)"><line stroke="currentColor" y2="6"></line><text fill="currentColor" y="9" dy="0.71em">2004</text></g><g class="tick" opacity="1" transform="translate(338.83333333333337,0)"><line stroke="currentColor" y2="6"></line><text fill="currentColor" y="9" dy="0.71em">2006</text></g><g class="tick" opacity="1" transform="translate(390.5,0)"><line stroke="currentColor" y2="6"></line><text fill="currentColor" y="9" dy="0.71em">2008</text></g><g class="tick" opacity="1" transform="translate(442.1666666666667,0)"><line stroke="currentColor" y2="6"></line><text fill="currentColor" y="9" dy="0.71em">2010</text></g><g class="tick" opacity="1" transform="translate(493.8333333333333,0)"><line stroke="currentColor" y2="6"></line><text fill="currentColor" y="9" dy="0.71em">2012</text></g><g class="tick" opacity="1" transform="translate(545.5,0)"><line stroke="currentColor" y2="6"></line><text fill="currentColor" y="9" dy="0.71em">2014</text></g><g class="tick" opacity="1" transform="translate(597.1666666666667,0)"><line stroke="currentColor" y2="6"></line><text fill="currentColor" y="9" dy="0.71em">2016</text></g><g class="tick" opacity="1" transform="translate(648.8333333333333,0)"><line stroke="currentColor" y2="6"></line><text fill="currentColor" y="9" dy="0.71em">2018</text></g><g class="tick" opacity="1" transform="translate(700.5,0)"><line stroke="currentColor" y2="6"></line><text fill="currentColor" y="9" dy="0.71em">2020</text></g></g><g transform="translate(80,0)" fill="none" font-size="10" font-family="sans-serif" text-anchor="end"><g class="tick" opacity="1" transform="translate(0,440.5)"><line stroke="currentColor" x2="-6"></line><text fill="currentColor" x="-9" dy="0.32em">0</text></g><g class="tick" opacity="1" transform="translate(0,408.8333333333333)"><line stroke="currentColor" x2="-6"></line><text fill="currentColor" x="-9" dy="0.32em">50</text></g><g class="tick" opacity="1" transform="translate(0,377.1666666666667)"><line stroke="currentColor" x2="-6"></line><text fill="currentColor" x="-9" dy="0.32em">100</text></g><g class="tick" opacity="1" transform="translate(0,345.5)"><line stroke="currentColor" x2="-6"></line><text fill="currentColor" x="-9" dy="0.32em">150</text></g><g class="tick" opacity="1" transform="translate(0,313.83333333333337)"><line stroke="currentColor" x2="-6"></line><text fill="currentColor" x="-9" dy="0.32em">200</text></g><g class="tick" opacity="1" transform="translate(0,282.16666666666663)"><line stroke="currentColor" x2="-6"></line><text fill="currentColor" x="-9" dy="0.32em">250</text></g><g class="tick" opacity="1" transform="translate(0,250.5)"><line stroke="currentColor" x2="-6"></line><text fill="currentColor" x="-9" dy="0.32em">300</text></g><g class="tick" opacity="1" transform="translate(0,218.83333333333331)"><line stroke="currentColor" x2="-6"></line><text fill="currentColor" x="-9" dy="0.32em">350</text></g><g class="tick" opacity="1" transform="translate(0,187.16666666666669)"><line stroke="currentColor" x2="-6"></line><text fill="currentColor" x="-9" dy="0.32em">400</text></g><g class="tick" opacity="1" transform="translate(0,155.5)"><line stroke="currentColor" x2="-6"></line><text fill="currentColor" x="-9" dy="0.32em">450</text></g><g class="tick" opacity="1" transform="translate(0,123.83333333333331)"><line stroke="currentColor" x2="-6"></line><text fill="currentColor" x="-9" dy="0.32em">500</text></g><g class="tick" opacity="1" transform="translate(0,92.16666666666669)"><line stroke="currentColor" x2="-6"></line><text fill="currentColor" x="-9" dy="0.32em">550</text></g><g class="tick" opacity="1" transform="translate(0,60.5)"><line stroke="currentColor" x2="-6"></line><text fill="currentColor" x="-9" dy="0.32em">600</text></g></g><path fill="none" stroke="black" stroke-width="2.5" stroke-linejoin="round" stroke-linecap="round" d="M80,237.33333333333334C80,237.33333333333334,98.69155350376164,269.234925126274,105.83333333333334,267.09999999999997C121.66300872874234,262.36796225186254,123.39108665185655,75.1131391233012,131.66666666666666,75.20000000000002C140.6753926760272,75.29455601150764,138.16162481560497,294.373130365327,157.5,303.20000000000005C164.64622854353445,306.4618473440447,175.3156260304684,284.1270725731289,183.33333333333331,285.46666666666664C192.76572968241143,287.0426262221642,199.5692843814192,318.258176048495,209.16666666666669,320.3C217.1033056548919,321.988504125288,227.07994123835613,304.0127331429134,235,305.73333333333335C244.63351859648006,307.8261756253364,250.74879453784803,336.37652707826766,260.83333333333337,341.20000000000005C268.57590881432424,344.90330303987207,279.377949604484,345.3226746894352,286.66666666666663,339.93333333333334C299.1679279542108,330.6897910356133,304.34472514783056,268.05766593547673,312.5,268.3666666666667C321.6899503945203,268.7148709201078,327.4755740822177,337.79389843991606,338.33333333333337,361.46666666666664C345.8637698376097,377.8849969951531,355.0765824585501,399.37967001581285,364.16666666666663,400.1C372.3861575267187,400.7513411301473,381.4407717871257,372.1386737814106,390,372.2333333333333C398.6642753384446,372.32915463881477,406.2702546380001,395.29432765647334,415.8333333333333,401.3666666666667C423.7860869851381,406.41648563991,433.01703505208843,406.7429046915515,441.6666666666667,408.96666666666664C450.23993443353555,411.1707960113559,458.926732233131,414.96237168584395,467.5,414.6666666666667C476.14963161457837,414.36832774246454,484.89987200080725,410.5370041487423,493.3333333333333,407.06666666666666C502.13808073604116,403.4435463691942,510.60023106592814,392.9739654771553,519.1666666666667,393.1333333333333C527.8234000910088,393.2943810679622,536.0802235652328,406.70154440476534,545,408.3333333333333C553.3411905379576,409.8592754318217,562.1914080389837,404.74294960337977,570.8333333333333,403.9C579.4140651069663,403.0630193274153,588.4119310409528,400.89204867416703,596.6666666666667,403.26666666666665C605.7050264638258,405.8667077546166,622.5,420.3666666666667,622.5,420.3666666666667"></path><g fill="#ffffff"><circle cx="80" cy="237.33333333333334" r="8"></circle><circle cx="105.83333333333334" cy="267.09999999999997" r="8"></circle><circle cx="131.66666666666666" cy="75.20000000000002" r="8"></circle><circle cx="157.5" cy="303.20000000000005" r="8"></circle><circle cx="183.33333333333331" cy="285.46666666666664" r="8"></circle><circle cx="209.16666666666669" cy="320.3" r="8"></circle><circle cx="235" cy="305.73333333333335" r="8"></circle><circle cx="260.83333333333337" cy="341.20000000000005" r="8"></circle><circle cx="286.66666666666663" cy="339.93333333333334" r="8"></circle><circle cx="312.5" cy="268.3666666666667" r="8"></circle><circle cx="338.33333333333337" cy="361.46666666666664" r="8"></circle><circle cx="364.16666666666663" cy="400.1" r="8"></circle><circle cx="390" cy="372.2333333333333" r="8"></circle><circle cx="415.8333333333333" cy="401.3666666666667" r="8"></circle><circle cx="441.6666666666667" cy="408.96666666666664" r="8"></circle><circle cx="467.5" cy="414.6666666666667" r="8"></circle><circle cx="493.3333333333333" cy="407.06666666666666" r="8"></circle><circle cx="519.1666666666667" cy="393.1333333333333" r="8"></circle><circle cx="545" cy="408.3333333333333" r="8"></circle><circle cx="570.8333333333333" cy="403.9" r="8"></circle><circle cx="596.6666666666667" cy="403.26666666666665" r="8"></circle><circle cx="622.5" cy="420.3666666666667" r="8"></circle></g><g stroke="steelblue" stroke-width="2" fill="none"><circle cx="80" cy="237.33333333333334" r="4"></circle><circle cx="105.83333333333334" cy="267.09999999999997" r="4"></circle><circle cx="131.66666666666666" cy="75.20000000000002" r="4"></circle><circle cx="157.5" cy="303.20000000000005" r="4"></circle><circle cx="183.33333333333331" cy="285.46666666666664" r="4"></circle><circle cx="209.16666666666669" cy="320.3" r="4"></circle><circle cx="235" cy="305.73333333333335" r="4"></circle><circle cx="260.83333333333337" cy="341.20000000000005" r="4"></circle><circle cx="286.66666666666663" cy="339.93333333333334" r="4"></circle><circle cx="312.5" cy="268.3666666666667" r="4"></circle><circle cx="338.33333333333337" cy="361.46666666666664" r="4"></circle><circle cx="364.16666666666663" cy="400.1" r="4"></circle><circle cx="390" cy="372.2333333333333" r="4"></circle><circle cx="415.8333333333333" cy="401.3666666666667" r="4"></circle><circle cx="441.6666666666667" cy="408.96666666666664" r="4"></circle><circle cx="467.5" cy="414.6666666666667" r="4"></circle><circle cx="493.3333333333333" cy="407.06666666666666" r="4"></circle><circle cx="519.1666666666667" cy="393.1333333333333" r="4"></circle><circle cx="545" cy="408.3333333333333" r="4"></circle><circle cx="570.8333333333333" cy="403.9" r="4"></circle><circle cx="596.6666666666667" cy="403.26666666666665" r="4"></circle><circle cx="622.5" cy="420.3666666666667" r="4"></circle></g></g></svg>